{
.appVersion = "1131";
DisplayStrings = (
"/hoHip-thai"
);
copyright = "Copyright © 2018 by Cadson Demak Co.,Ltd.. All rights reserved.";
customParameters = (
{
name = vendorID;
value = CDK;
},
{
name = description;
value = "Copyright (c) 2018, Cadson Demak (info@cadsondemak.com)";
},
{
name = license;

glyphs = (
{
glyphname = A;
lastChange = "2018-05-03 08:05:00 +0000";
layers = (
{
anchors = (
{
name = bottom;
position = "{296, 0}";
},
{
name = ogonek;
position = "{585, 0}";
},
{
name = top;
position = "{296, 700}";
}
);
background = {
paths = (
{
closed = 1;
nodes = (
"70 0 LINE",
"140 211 LINE",
"449 211 LINE",
"519 0 LINE",
"559 0 LINE",
"323 700 LINE",
"267 700 LINE",
"30 0 LINE"
);
},
{
closed = 1;
nodes = (
"294 662 LINE",
"296 662 LINE",
"438 248 LINE",
"153 248 LINE"
);
}
);
};
layerId = "39D11A97-A6D9-4B52-A6F5-15D5E4373676";
paths = (
{
closed = 1;
nodes = (
"70 0 LINE",
"294 662 LINE",
"296 662 LINE",
"519 0 LINE",
"559 0 LINE",
"322 700 LINE",
"268 700 LINE",
"30 0 LINE"
);
},
{
closed = 1;
nodes = (
"462 211 LINE",
"462 248 LINE",
"122 248 LINE",
"122 211 LINE"
);
}
);
width = 589;
},
{
anchors = (
{
name = bottom;
position = "{337, 0}";
},
{
name = ogonek;
position = "{626, 0}";
},
{
name = top;
position = "{337, 700}";
}
);
background = {
paths = (
{
closed = 1;
nodes = (
"147 0 LINE",
"204 153 LINE",
"468 153 LINE",
"525 0 LINE",
"667 0 LINE",
"398 700 LINE",
"274 700 LINE",
"5 0 LINE"
);
},
{
closed = 1;
nodes = (
"346 557 LINE",
"326 557 LINE",
"428 267 LINE",
"244 267 LINE"
);
}
);
};
layerId = "D6105F7E-CAE1-4F7B-A52E-8AA6E6082DF8";
paths = (
{
closed = 1;
nodes = (
"147 0 LINE",
"204 153 LINE",
"468 153 LINE",
"525 0 LINE",
"667 0 LINE",
"398 700 LINE",
"274 700 LINE",
"5 0 LINE"
);
},
{
closed = 1;
nodes = (
"335 531 LINE",
"337 531 LINE",
"429 267 LINE",
"243 267 LINE"
);
}
);
width = 672;
},
{
anchors = (
{
name = bottom;
position = "{311, 0}";
},
{
name = ogonek;
position = "{600, 0}";
},
{
name = top;
position = "{311, 700}";
}
);
layerId = "3C986DA2-2E28-42A4-B05D-29F449A87569";
paths = (
{
closed = 1;
nodes = (
"99 0 LINE",
"164 189 LINE",
"456 189 LINE",
"521 0 LINE",
"600 0 LINE",
"351 700 LINE",
"269 700 LINE",
"20 0 LINE"
);
},
{
closed = 1;
nodes = (
"309 612 LINE",
"311 612 LINE",
"434 255 LINE",
"187 255 LINE"
);
}
);
width = 620;
}
);
leftKerningGroup = A;
note = A;
rightKerningGroup = A;
rightMetricsKey = "=|";
unicode = 0041;
},
{
glyphname = B;
lastChange = "2018-05-03 08:03:20 +0000";
layers = (
{
anchors = (
{
name = bottom;
position = "{320, 0}";
},
{
name = top;
position = "{320, 700}";
}
);
background = {
paths = (
{
closed = 1;
nodes = (
"478 0 LINE",
"569 91 LINE",
"569 285 LINE",
"486 368 LINE",
"538 420 LINE",
"538 617 LINE",
"455 700 LINE",
"90 700 LINE",
"90 0 LINE"
);
},
{
closed = 1;
nodes = (
"128 334 LINE",
"465 334 LINE",
"532 269 LINE",
"532 101 LINE",
"465 36 LINE",
"128 36 LINE"
);
},
{
closed = 1;
nodes = (
"128 664 LINE",
"442 664 LINE",
"501 607 LINE",
"501 428 LINE",
"443 370 LINE",
"128 370 LINE"
);
}
);
};
layerId = "39D11A97-A6D9-4B52-A6F5-15D5E4373676";
paths = (
{
closed = 1;
nodes = (
"478 0 LINE",
"569 91 LINE",
"569 285 LINE",
"486 368 LINE",
"538 420 LINE",
"538 617 LINE",
"455 700 LINE",
"90 700 LINE",
"90 0 LINE"
);
},
{
closed = 1;
nodes = (
"129 334 LINE",
"463 334 LINE",
"530 269 LINE",
"530 102 LINE",
"463 37 LINE",
"129 37 LINE"
);
},
{
closed = 1;
nodes = (
"129 663 LINE",
"440 663 LINE",
"499 606 LINE",
"499 429 LINE",
"441 371 LINE",
"129 371 LINE"
);
}
);
width = 629;
},
{
anchors = (
{
name = bottom;
position = "{343, 0}";
},
{
name = top;
position = "{343, 700}";
}
);
background = {
paths = (
{
closed = 1;
nodes = (
"527 0 LINE",
"641 114 LINE",
"641 291 LINE",
"569 363 LINE",
"610 404 LINE",
"610 594 LINE",
"504 700 LINE",
"65 700 LINE",
"65 0 LINE"
);
},
{
closed = 1;
nodes = (
"198 297 LINE",
"463 297 LINE",
"507 254 LINE",
"507 158 LINE",
"463 115 LINE",
"198 115 LINE"
);
},
{
closed = 1;
nodes = (
"198 585 LINE",
"440 585 LINE",
"476 550 LINE",
"476 443 LINE",
"439 407 LINE",
"198 407 LINE"
);
}
);
};
layerId = "D6105F7E-CAE1-4F7B-A52E-8AA6E6082DF8";
paths = (
{
closed = 1;
nodes = (
"527 0 LINE",
"641 114 LINE",
"641 291 LINE",
"569 363 LINE",
"610 404 LINE",
"610 594 LINE",
"504 700 LINE",
"65 700 LINE",
"65 0 LINE"
);
},
{
closed = 1;
nodes = (
"198 297 LINE",
"463 297 LINE",
"507 254 LINE",
"507 158 LINE",
"463 115 LINE",
"198 115 LINE"
);
},
{
closed = 1;
nodes = (
"198 585 LINE",
"440 585 LINE",
"476 550 LINE",
"476 443 LINE",
"439 407 LINE",
"198 407 LINE"
);
}
);
width = 676;
},
{
anchors = (
{
name = bottom;
position = "{328, 0}";
},
{
name = top;
position = "{328, 700}";
}
);
layerId = "3C986DA2-2E28-42A4-B05D-29F449A87569";
paths = (
{
closed = 1;
nodes = (
"496 0 LINE",
"596 100 LINE",
"596 287 LINE",
"517 366 LINE",
"565 414 LINE",
"565 608 LINE",
"473 700 LINE",
"80 700 LINE",
"80 0 LINE"
);
},
{
closed = 1;
nodes = (
"154 320 LINE",
"464 320 LINE",
"522 263 LINE",
"522 123 LINE",
"464 66 LINE",
"154 66 LINE"
);
},
{
closed = 1;
nodes = (
"154 634 LINE",
"441 634 LINE",
"491 585 LINE",
"491 434 LINE",
"441 384 LINE",
"154 384 LINE"
);
}
);
width = 646;
}
);
leftMetricsKey = H;
note = B;
unicode = 0042;
},
{
glyphname = C;
lastChange = "2018-05-03 07:44:43 +0000";
layers = (
{
anchors = (
{
name = bottom;
position = "{314, 0}";
},
{
name = top;
position = "{322, 700}";
}
);
background = {
paths = (
{
closed = 1;
nodes = (
"463 0 LINE",
"559 96 LINE",
"559 138 LINE",
"520 138 LINE",
"520 109 LINE",
"447 37 LINE",
"196 37 LINE",
"119 113 LINE",
"119 587 LINE",
"196 663 LINE",
"447 663 LINE",
"520 591 LINE",
"520 562 LINE",
"559 562 LINE",
"559 604 LINE",
"456 700 LINE",
"180 700 LINE",
"80 600 LINE",
"80 100 LINE",
"180 0 LINE"
);
}
);
};
layerId = "39D11A97-A6D9-4B52-A6F5-15D5E4373676";
paths = (
{
closed = 1;
nodes = (
"463 0 LINE",
"559 96 LINE",
"559 138 LINE",
"520 138 LINE",
"520 109 LINE",
"447 37 LINE",
"196 37 LINE",
"119 113 LINE",
"119 587 LINE",
"196 663 LINE",
"447 663 LINE",
"520 591 LINE",
"520 562 LINE",
"559 562 LINE",
"559 604 LINE",
"456 700 LINE",
"180 700 LINE",
"80 600 LINE",
"80 100 LINE",
"180 0 LINE"
);
}
);
width = 614;
},
{
anchors = (
{
name = bottom;
position = "{337, 0}";
},
{
name = top;
position = "{345, 700}";
}
);
background = {
paths = (
{
closed = 1;
nodes = (
"509 -2 LINE",
"631 120 LINE",
"631 220 LINE",
"495 220 LINE",
"495 165 LINE",
"448 118 LINE",
"242 118 LINE",
"191 169 LINE",
"191 555 LINE",
"242 606 LINE",
"448 606 LINE",
"495 559 LINE",
"495 504 LINE",
"631 504 LINE",
"631 604 LINE",
"501 726 LINE",
"181 726 LINE",
"55 600 LINE",
"55 124 LINE",
"181 -2 LINE"
);
}
);
};
layerId = "D6105F7E-CAE1-4F7B-A52E-8AA6E6082DF8";
paths = (
{
closed = 1;
nodes = (
"509 0 LINE",
"631 122 LINE",
"631 222 LINE",
"495 222 LINE",
"495 167 LINE",
"445 118 LINE",
"245 118 LINE",
"191 171 LINE",
"191 529 LINE",
"245 582 LINE",
"445 582 LINE",
"495 533 LINE",
"495 478 LINE",
"631 478 LINE",
"631 578 LINE",
"501 700 LINE",
"181 700 LINE",
"55 574 LINE",
"55 126 LINE",
"181 0 LINE"
);
}
);
width = 661;
},
{
anchors = (
{
name = bottom;
position = "{322, 0}";
},
{
name = top;
position = "{330, 700}";
}
);
layerId = "3C986DA2-2E28-42A4-B05D-29F449A87569";
paths = (
{
closed = 1;
nodes = (
"480 0 LINE",
"586 106 LINE",
"586 170 LINE",
"510 170 LINE",
"510 131 LINE",
"446 68 LINE",
"214 68 LINE",
"146 135 LINE",
"146 565 LINE",
"214 632 LINE",
"446 632 LINE",
"510 569 LINE",
"510 530 LINE",
"586 530 LINE",
"586 594 LINE",
"473 700 LINE",
"180 700 LINE",
"70 590 LINE",
"70 110 LINE",
"180 0 LINE"
);
}
);
width = 631;
}
);
leftKerningGroup = O;
leftMetricsKey = O;
note = C;
rightKerningGroup = C;
unicode = 0043;
},
{
glyphname = D;
lastChange = "2018-05-03 07:44:37 +0000";
layers = (
{
anchors = (
{
name = bottom;
position = "{318, 0}";
},
{
name = center;
position = "{318, 350}";
},
{
name = top;
position = "{318, 700}";
}
);
background = {
paths = (
{
closed = 1;
nodes = (
"467 0 LINE",
"567 100 LINE",
"567 600 LINE",
"467 700 LINE",
"90 700 LINE",
"90 0 LINE"
);
},
{
closed = 1;
nodes = (
"129 664 LINE",
"450 664 LINE",
"528 587 LINE",
"528 113 LINE",
"450 36 LINE",
"129 36 LINE"
);
}
);
};
layerId = "39D11A97-A6D9-4B52-A6F5-15D5E4373676";
paths = (
{
closed = 1;
nodes = (
"467 0 LINE",
"567 100 LINE",
"567 600 LINE",
"467 700 LINE",
"90 700 LINE",
"90 0 LINE"
);
},
{
closed = 1;
nodes = (
"129 663 LINE",
"451 663 LINE",
"528 586 LINE",
"528 114 LINE",
"451 37 LINE",
"129 37 LINE"
);
}
);
width = 647;
},
{
anchors = (
{
name = bottom;
position = "{341, 0}";
},
{
name = center;
position = "{341, 350}";
},
{
name = top;
position = "{341, 700}";
}
);
background = {
paths = (
{
closed = 1;
nodes = (
"501 0 LINE",
"611 110 LINE",
"611 590 LINE",
"501 700 LINE",
"95 700 LINE",
"95 0 LINE"
);
},
{
closed = 1;
nodes = (
"171 632 LINE",
"467 632 LINE",
"535 565 LINE",
"535 135 LINE",
"467 68 LINE",
"171 68 LINE"
);
}
);
};
layerId = "D6105F7E-CAE1-4F7B-A52E-8AA6E6082DF8";
paths = (
{
closed = 1;
nodes = (
"513 0 LINE",
"639 126 LINE",
"639 574 LINE",
"513 700 LINE",
"65 700 LINE",
"65 0 LINE"
);
},
{
closed = 1;
nodes = (
"201 580 LINE",
"452 580 LINE",
"503 529 LINE",
"503 171 LINE",
"452 120 LINE",
"201 120 LINE"
);
}
);
width = 694;
},
{
anchors = (
{
name = bottom;
position = "{326, 0}";
},
{
name = center;
position = "{326, 350}";
},
{
name = top;
position = "{326, 700}";
}
);
layerId = "3C986DA2-2E28-42A4-B05D-29F449A87569";
paths = (
{
closed = 1;
nodes = (
"484 0 LINE",
"594 110 LINE",
"594 590 LINE",
"484 700 LINE",
"80 700 LINE",
"80 0 LINE"
);
},
{
closed = 1;
nodes = (
"156 632 LINE",
"450 632 LINE",
"518 565 LINE",
"518 135 LINE",
"450 68 LINE",
"156 68 LINE"
);
}
);
width = 664;
}
);
leftKerningGroup = D;
leftMetricsKey = H;
note = D;
rightKerningGroup = O;
unicode = 0044;
},
{
glyphname = E;
lastChange = "2018-05-03 07:17:09 +0000";
layers = (
{
anchors = (
{
name = bottom;
position = "{308, 0}";
},
{
name = ogonek;
position = "{532, 0}";
},
{
name = top;
position = "{304, 700}";
},
{
name = topleft;
position = "{12, 700}";
}
);
background = {
paths = (
{
closed = 1;
nodes = (
"495 0 LINE",
"495 37 LINE",
"119 37 LINE",
"119 333 LINE",
"466 333 LINE",
"466 371 LINE",
"119 371 LINE",
"119 663 LINE",
"495 663 LINE",
"495 700 LINE",
"80 700 LINE",
"80 0 LINE"
);
}
);
};
layerId = "39D11A97-A6D9-4B52-A6F5-15D5E4373676";
paths = (
{
closed = 1;
nodes = (
"505 0 LINE",
"505 37 LINE",
"129 37 LINE",
"129 333 LINE",
"476 333 LINE",
"476 370 LINE",
"129 370 LINE",
"129 663 LINE",
"505 663 LINE",
"505 700 LINE",
"90 700 LINE",
"90 0 LINE"
);
}
);
width = 565;
},
{
anchors = (
{
name = bottom;
position = "{331, 0}";
},
{
name = ogonek;
position = "{555, 0}";
},
{
name = top;
position = "{327, 700}";
},
{
name = topleft;
position = "{35, 700}";
}
);
background = {
paths = (
{
closed = 1;
nodes = (
"577 0 LINE",
"577 120 LINE",
"201 120 LINE",
"201 292 LINE",
"548 292 LINE",
"548 412 LINE",
"201 412 LINE",
"201 580 LINE",
"577 580 LINE",
"577 700 LINE",
"65 700 LINE",
"65 0 LINE"
);
}
);
};
layerId = "D6105F7E-CAE1-4F7B-A52E-8AA6E6082DF8";
paths = (
{
closed = 1;
nodes = (
"577 0 LINE",
"577 118 LINE",
"201 118 LINE",
"201 294 LINE",
"548 294 LINE",
"548 410 LINE",
"201 410 LINE",
"201 582 LINE",
"577 582 LINE",
"577 700 LINE",
"65 700 LINE",
"65 0 LINE"
);
}
);
width = 612;
},
{
anchors = (
{
name = bottom;
position = "{316, 0}";
},
{
name = ogonek;
position = "{540, 0}";
},
{
name = top;
position = "{312, 700}";
},
{
name = topleft;
position = "{20, 700}";
}
);
layerId = "3C986DA2-2E28-42A4-B05D-29F449A87569";
paths = (
{
closed = 1;
nodes = (
"532 0 LINE",
"532 68 LINE",
"156 68 LINE",
"156 318 LINE",
"503 318 LINE",
"503 386 LINE",
"156 386 LINE",
"156 632 LINE",
"532 632 LINE",
"532 700 LINE",
"80 700 LINE",
"80 0 LINE"
);
}
);
width = 582;
}
);
leftKerningGroup = E;
leftMetricsKey = H;
note = E;
rightKerningGroup = E;
unicode = 0045;
},
{
glyphname = F;
lastChange = "2018-05-03 07:44:01 +0000";
layers = (
{
anchors = (
{
name = bottom;
position = "{287, 0}";
},
{
name = top;
position = "{287, 700}";
}
);
background = {
paths = (
{
closed = 1;
nodes = (
"129 0 LINE",
"129 335 LINE",
"466 335 LINE",
"466 372 LINE",
"129 372 LINE",
"129 663 LINE",
"495 663 LINE",
"495 700 LINE",
"90 700 LINE",
"90 0 LINE"
);
}
);
};
layerId = "39D11A97-A6D9-4B52-A6F5-15D5E4373676";
paths = (
{
closed = 1;
nodes = (
"129 0 LINE",
"129 335 LINE",
"466 335 LINE",
"466 372 LINE",
"129 372 LINE",
"129 663 LINE",
"495 663 LINE",
"495 700 LINE",
"90 700 LINE",
"90 0 LINE"
);
}
);
width = 540;
},
{
anchors = (
{
name = bottom;
position = "{310, 0}";
},
{
name = top;
position = "{310, 700}";
}
);
background = {
paths = (
{
closed = 1;
nodes = (
"567 580 LINE",
"567 700 LINE",
"65 700 LINE",
"65 0 LINE",
"201 0 LINE",
"201 273 LINE",
"538 273 LINE",
"538 393 LINE",
"201 393 LINE",
"201 580 LINE"
);
}
);
};
layerId = "D6105F7E-CAE1-4F7B-A52E-8AA6E6082DF8";
paths = (
{
closed = 1;
nodes = (
"201 0 LINE",
"201 274 LINE",
"538 274 LINE",
"538 392 LINE",
"201 392 LINE",
"201 582 LINE",
"567 582 LINE",
"567 700 LINE",
"65 700 LINE",
"65 0 LINE"
);
}
);
width = 587;
},
{
anchors = (
{
name = bottom;
position = "{295, 0}";
},
{
name = top;
position = "{295, 700}";
}
);
layerId = "3C986DA2-2E28-42A4-B05D-29F449A87569";
paths = (
{
closed = 1;
nodes = (
"156 0 LINE",
"156 312 LINE",
"493 312 LINE",
"493 380 LINE",
"156 380 LINE",
"156 632 LINE",
"522 632 LINE",
"522 700 LINE",
"80 700 LINE",
"80 0 LINE"
);
}
);
width = 557;
}
);
note = F;
unicode = 0046;
},
{
glyphname = G;
lastChange = "2018-05-03 07:43:49 +0000";
layers = (
{
anchors = (
{
name = bottom;
position = "{324, 0}";
},
{
name = top;
position = "{322, 700}";
}
);
background = {
paths = (
{
closed = 1;
nodes = (
"469 0 LINE",
"565 96 LINE",
"565 350 LINE",
"362 350 LINE",
"362 311 LINE",
"524 311 LINE",
"524 109 LINE",
"451 37 LINE",
"196 37 LINE",
"119 113 LINE",
"119 587 LINE",
"196 663 LINE",
"453 663 LINE",
"526 591 LINE",
"526 562 LINE",
"565 562 LINE",
"565 604 LINE",
"469 700 LINE",
"180 700 LINE",
"80 600 LINE",
"80 100 LINE",
"180 0 LINE"
);
}
);
};
layerId = "39D11A97-A6D9-4B52-A6F5-15D5E4373676";
paths = (
{
closed = 1;
nodes = (
"469 0 LINE",
"565 96 LINE",
"565 350 LINE",
"362 350 LINE",
"362 313 LINE",
"526 313 LINE",
"526 111 LINE",
"451 37 LINE",
"196 37 LINE",
"119 113 LINE",
"119 587 LINE",
"196 663 LINE",
"453 663 LINE",
"526 591 LINE",
"526 562 LINE",
"565 562 LINE",
"565 604 LINE",
"469 700 LINE",
"180 700 LINE",
"80 600 LINE",
"80 100 LINE",
"180 0 LINE"
);
}
);
width = 635;
},
{
anchors = (
{
name = bottom;
position = "{347, 0}";
},
{
name = top;
position = "{345, 700}";
}
);
background = {
paths = (
{
closed = 1;
nodes = (
"515 0 LINE",
"637 122 LINE",
"637 391 LINE",
"343 391 LINE",
"343 271 LINE",
"501 271 LINE",
"501 165 LINE",
"454 118 LINE",
"242 118 LINE",
"191 169 LINE",
"191 531 LINE",
"242 582 LINE",
"454 582 LINE",
"501 535 LINE",
"501 478 LINE",
"637 478 LINE",
"637 578 LINE",
"515 700 LINE",
"181 700 LINE",
"55 574 LINE",
"55 126 LINE",
"181 0 LINE"
);
}
);
};
layerId = "D6105F7E-CAE1-4F7B-A52E-8AA6E6082DF8";
paths = (
{
closed = 1;
nodes = (
"515 0 LINE",
"637 122 LINE",
"637 390 LINE",
"353 390 LINE",
"353 274 LINE",
"505 274 LINE",
"505 167 LINE",
"455 118 LINE",
"245 118 LINE",
"191 171 LINE",
"191 529 LINE",
"245 582 LINE",
"451 582 LINE",
"501 533 LINE",
"501 478 LINE",
"637 478 LINE",
"637 578 LINE",
"515 700 LINE",
"181 700 LINE",
"55 574 LINE",
"55 126 LINE",
"181 0 LINE"
);
}
);
width = 682;
},
{
anchors = (
{
name = bottom;
position = "{332, 0}";
},
{
name = top;
position = "{330, 700}";
}
);
layerId = "3C986DA2-2E28-42A4-B05D-29F449A87569";
paths = (
{
closed = 1;
nodes = (
"486 0 LINE",
"592 106 LINE",
"592 365 LINE",
"358 365 LINE",
"358 297 LINE",
"516 297 LINE",
"516 131 LINE",
"452 68 LINE",
"214 68 LINE",
"146 135 LINE",
"146 565 LINE",
"214 632 LINE",
"452 632 LINE",
"516 569 LINE",
"516 530 LINE",
"592 530 LINE",
"592 594 LINE",
"486 700 LINE",
"180 700 LINE",
"70 590 LINE",
"70 110 LINE",
"180 0 LINE"
);
}
);
width = 652;
}
);
leftKerningGroup = O;
leftMetricsKey = O;
note = G;
rightKerningGroup = G;
unicode = 0047;
},
{
glyphname = H;
lastChange = "2018-05-03 07:17:24 +0000";
layers = (
{
anchors = (
{
name = bottom;
position = "{339, 0}";
},
{
name = center;
position = "{337, 350}";
},
{
name = top;
position = "{337, 700}";
},
{
name = topleft;
position = "{21, 700}";
}
);
background = {
paths = (
{
closed = 1;
nodes = (
"119 0 LINE",
"119 330 LINE",
"518 330 LINE",
"518 0 LINE",
"557 0 LINE",
"557 700 LINE",
"518 700 LINE",
"518 368 LINE",
"119 368 LINE",
"119 700 LINE",
"80 700 LINE",
"80 0 LINE"
);
}
);
};
layerId = "39D11A97-A6D9-4B52-A6F5-15D5E4373676";
paths = (
{
closed = 1;
nodes = (
"129 0 LINE",
"129 330 LINE",
"528 330 LINE",
"528 0 LINE",
"567 0 LINE",
"567 700 LINE",
"528 700 LINE",
"528 367 LINE",
"129 367 LINE",
"129 700 LINE",
"90 700 LINE",
"90 0 LINE"
);
}
);
width = 657;
},
{
anchors = (
{
name = bottom;
position = "{338, 0}";
},
{
name = center;
position = "{336, 350}";
},
{
name = top;
position = "{336, 700}";
},
{
name = topleft;
position = "{20, 700}";
}
);
background = {
paths = (
{
closed = 1;
nodes = (
"201 0 LINE",
"201 290 LINE",
"503 290 LINE",
"503 0 LINE",
"639 0 LINE",
"639 700 LINE",
"503 700 LINE",
"503 408 LINE",
"201 408 LINE",
"201 700 LINE",
"65 700 LINE",
"65 0 LINE"
);
}
);
};
layerId = "D6105F7E-CAE1-4F7B-A52E-8AA6E6082DF8";
paths = (
{
closed = 1;
nodes = (
"201 0 LINE",
"201 290 LINE",
"503 290 LINE",
"503 0 LINE",
"639 0 LINE",
"639 700 LINE",
"503 700 LINE",
"503 408 LINE",
"201 408 LINE",
"201 700 LINE",
"65 700 LINE",
"65 0 LINE"
);
}
);
width = 704;
},
{
anchors = (
{
name = bottom;
position = "{338, 0}";
},
{
name = center;
position = "{336, 350}";
},
{
name = top;
position = "{336, 700}";
},
{
name = topleft;
position = "{20, 700}";
}
);
layerId = "3C986DA2-2E28-42A4-B05D-29F449A87569";
paths = (
{
closed = 1;
nodes = (
"156 0 LINE",
"156 315 LINE",
"518 315 LINE",
"518 0 LINE",
"594 0 LINE",
"594 700 LINE",
"518 700 LINE",
"518 383 LINE",
"156 383 LINE",
"156 700 LINE",
"80 700 LINE",
"80 0 LINE"
);
}
);
width = 674;
}
);
note = H;
rightMetricsKey = "=|";
unicode = 0048;
},
{
glyphname = I;
lastChange = "2018-05-03 08:45:55 +0000";
layers = (
{
anchors = (
{
name = bottom;
position = "{115, 0}";
},
{
name = ogonek;
position = "{153, 0}";
},
{
name = top;
position = "{115, 700}";
},
{
name = topleft;
position = "{7, 700}";
}
);
layerId = "39D11A97-A6D9-4B52-A6F5-15D5E4373676";
paths = (
{
closed = 1;
nodes = (
"134 0 LINE",
"134 700 LINE",
"95 700 LINE",
"95 0 LINE"
);
}
);
width = 229;
},
{
anchors = (
{
name = bottom;
position = "{123, 0}";
},
{
name = ogonek;
position = "{161, 0}";
},
{
name = top;
position = "{123, 700}";
},
{
name = topleft;
position = "{15, 700}";
}
);
layerId = "D6105F7E-CAE1-4F7B-A52E-8AA6E6082DF8";
paths = (
{
closed = 1;
nodes = (
"191 0 LINE",
"191 700 LINE",
"55 700 LINE",
"55 0 LINE"
);
}
);
width = 246;
},
{
anchors = (
{
name = bottom;
position = "{123, 0}";
},
{
name = ogonek;
position = "{161, 0}";
},
{
name = top;
position = "{123, 700}";
},
{
name = topleft;
position = "{15, 700}";
}
);
layerId = "3C986DA2-2E28-42A4-B05D-29F449A87569";
paths = (
{
closed = 1;
nodes = (
"161 0 LINE",
"161 700 LINE",
"85 700 LINE",
"85 0 LINE"
);
}
);
width = 246;
}
);
note = I;
rightMetricsKey = "=|";
unicode = 0049;
},
{
glyphname = J;
lastChange = "2018-05-03 08:45:49 +0000";
layers = (
{
anchors = (
{
name = bottom;
position = "{269, 0}";
},
{
name = top;
position = "{434, 700}";
}
);
background = {
paths = (
{
closed = 1;
nodes = (
"354 0 LINE",
"444 90 LINE",
"444 700 LINE",
"405 700 LINE",
"405 102 LINE",
"339 37 LINE",
"151 37 LINE",
"73 114 LINE",
"73 177 LINE",
"35 177 LINE",
"35 100 LINE",
"135 0 LINE"
);
}
);
};
layerId = "39D11A97-A6D9-4B52-A6F5-15D5E4373676";
paths = (
{
closed = 1;
nodes = (
"364 0 LINE",
"454 90 LINE",
"454 700 LINE",
"415 700 LINE",
"415 102 LINE",
"349 37 LINE",
"161 37 LINE",
"83 114 LINE",
"83 177 LINE",
"45 177 LINE",
"45 100 LINE",
"145 0 LINE"
);
}
);
width = 539;
},
{
anchors = (
{
name = bottom;
position = "{292, 0}";
},
{
name = top;
position = "{457, 700}";
}
);
background = {
paths = (
{
closed = 1;
nodes = (
"350 120 LINE",
"206 120 LINE",
"154 172 LINE",
"154 261 LINE",
"20 261 LINE",
"20 126 LINE",
"146 0 LINE",
"410 0 LINE",
"526 116 LINE",
"526 700 LINE",
"390 700 LINE",
"390 160 LINE"
);
}
);
};
layerId = "D6105F7E-CAE1-4F7B-A52E-8AA6E6082DF8";
paths = (
{
closed = 1;
nodes = (
"410 0 LINE",
"526 116 LINE",
"526 700 LINE",
"390 700 LINE",
"390 160 LINE",
"347 118 LINE",
"207 118 LINE",
"152 172 LINE",
"152 261 LINE",
"20 261 LINE",
"20 126 LINE",
"146 0 LINE"
);
}
);
width = 586;
},
{
anchors = (
{
name = bottom;
position = "{277, 0}";
},
{
name = top;
position = "{442, 700}";
}
);
layerId = "3C986DA2-2E28-42A4-B05D-29F449A87569";
paths = (
{
closed = 1;
nodes = (
"381 0 LINE",
"481 100 LINE",
"481 700 LINE",
"405 700 LINE",
"405 124 LINE",
"348 68 LINE",
"178 68 LINE",
"109 136 LINE",
"109 209 LINE",
"35 209 LINE",
"35 110 LINE",
"145 0 LINE"
);
}
);
width = 556;
}
);
leftKerningGroup = J;
note = J;
rightKerningGroup = J;
unicode = 004A;
},
{
glyphname = K;
lastChange = "2018-05-03 07:17:09 +0000";
layers = (
{
anchors = (
{
name = bottom;
position = "{310, 0}";
},
{
name = top;
position = "{311, 700}";
}
);
background = {
paths = (
{
closed = 1;
nodes = (
"119 0 LINE",
"119 330 LINE",
"314 330 LINE",
"507 0 LINE",
"548 0 LINE",
"347 351 LINE",
"534 700 LINE",
"495 700 LINE",
"312 368 LINE",
"119 368 LINE",
"119 700 LINE",
"80 700 LINE",
"80 0 LINE"
);
}
);
};
layerId = "39D11A97-A6D9-4B52-A6F5-15D5E4373676";
paths = (
{
closed = 1;
nodes = (
"129 0 LINE",
"129 331 LINE",
"324 331 LINE",
"517 0 LINE",
"558 0 LINE",
"357 351 LINE",
"544 700 LINE",
"503 700 LINE",
"324 368 LINE",
"129 368 LINE",
"129 700 LINE",
"90 700 LINE",
"90 0 LINE"
);
}
);
width = 588;
},
{
anchors = (
{
name = bottom;
position = "{333, 0}";
},
{
name = top;
position = "{334, 700}";
}
);
background = {
paths = (
{
closed = 1;
nodes = (
"314 409 LINE",
"201 409 LINE",
"201 726 LINE",
"65 726 LINE",
"65 -26 LINE",
"201 -26 LINE",
"201 289 LINE",
"316 289 LINE",
"510 -26 LINE",
"662 -26 LINE",
"432 351 LINE",
"645 726 LINE",
"496 726 LINE"
);
}
);
};
layerId = "D6105F7E-CAE1-4F7B-A52E-8AA6E6082DF8";
paths = (
{
closed = 1;
nodes = (
"201 0 LINE",
"201 290 LINE",
"312 290 LINE",
"508 0 LINE",
"662 0 LINE",
"426 351 LINE",
"645 700 LINE",
"493 700 LINE",
"313 408 LINE",
"201 408 LINE",
"201 700 LINE",
"65 700 LINE",
"65 0 LINE"
);
}
);
width = 667;
},
{
anchors = (
{
name = bottom;
position = "{318, 0}";
},
{
name = top;
position = "{319, 700}";
}
);
layerId = "3C986DA2-2E28-42A4-B05D-29F449A87569";
paths = (
{
closed = 1;
nodes = (
"156 0 LINE",
"156 315 LINE",
"319 315 LINE",
"513 0 LINE",
"597 0 LINE",
"383 351 LINE",
"582 700 LINE",
"500 700 LINE",
"318 383 LINE",
"156 383 LINE",
"156 700 LINE",
"80 700 LINE",
"80 0 LINE"
);
}
);
width = 617;
}
);
leftMetricsKey = "=H";
note = K;
rightKerningGroup = K;
unicode = 004B;
},
{
glyphname = L;
lastChange = "2018-05-03 07:17:09 +0000";
layers = (
{
anchors = (
{
name = bottom;
position = "{301, 0}";
},
{
name = center;
position = "{272, 350}";
},
{
name = top;
position = "{120, 700}";
},
{
name = topright;
position = "{523, 700}";
}
);
background = {
paths = (
{
closed = 1;
nodes = (
"498 0 LINE",
"498 68 LINE",
"142 68 LINE",
"142 700 LINE",
"66 700 LINE",
"66 0 LINE"
);
}
);
};
layerId = "39D11A97-A6D9-4B52-A6F5-15D5E4373676";
paths = (
{
closed = 1;
nodes = (
"485 0 LINE",
"485 37 LINE",
"129 37 LINE",
"129 700 LINE",
"90 700 LINE",
"90 0 LINE"
);
}
);
width = 520;
},
{
anchors = (
{
name = bottom;
position = "{300, 0}";
},
{
name = center;
position = "{271, 350}";
},
{
name = top;
position = "{119, 700}";
},
{
name = topright;
position = "{522, 700}";
}
);
background = {
paths = (
{
closed = 1;
nodes = (
"507 0 LINE",
"507 68 LINE",
"151 68 LINE",
"151 700 LINE",
"75 700 LINE",
"75 0 LINE"
);
}
);
};
layerId = "D6105F7E-CAE1-4F7B-A52E-8AA6E6082DF8";
paths = (
{
closed = 1;
nodes = (
"557 0 LINE",
"557 118 LINE",
"201 118 LINE",
"201 700 LINE",
"65 700 LINE",
"65 0 LINE"
);
}
);
width = 567;
},
{
anchors = (
{
name = bottom;
position = "{300, 0}";
},
{
name = center;
position = "{271, 350}";
},
{
name = top;
position = "{119, 700}";
},
{
name = topright;
position = "{522, 700}";
}
);
layerId = "3C986DA2-2E28-42A4-B05D-29F449A87569";
paths = (
{
closed = 1;
nodes = (
"512 0 LINE",
"512 68 LINE",
"156 68 LINE",
"156 700 LINE",
"80 700 LINE",
"80 0 LINE"
);
}
);
width = 537;
}
);
note = L;
rightKerningGroup = L;
unicode = 004C;
},
{
glyphname = M;
lastChange = "2018-05-03 07:18:51 +0000";
layers = (
{
anchors = (
{
name = bottom;
position = "{389, 0}";
},
{
name = top;
position = "{389, 700}";
}
);
background = {
paths = (
{
closed = 1;
nodes = (
"127 0 LINE",
"127 631 LINE",
"129 631 LINE",
"359 59 LINE",
"400 59 LINE",
"631 631 LINE",
"633 631 LINE",
"633 0 LINE",
"670 0 LINE",
"670 700 LINE",
"616 700 LINE",
"381 103 LINE",
"379 103 LINE",
"143 700 LINE",
"90 700 LINE",
"90 0 LINE"
);
}
);
};
layerId = "39D11A97-A6D9-4B52-A6F5-15D5E4373676";
paths = (
{
closed = 1;
nodes = (
"127 0 LINE",
"127 631 LINE",
"129 631 LINE",
"361 59 LINE",
"399 59 LINE",
"631 631 LINE",
"633 631 LINE",
"633 0 LINE",
"670 0 LINE",
"670 700 LINE",
"618 700 LINE",
"381 104 LINE",
"379 104 LINE",
"142 700 LINE",
"90 700 LINE",
"90 0 LINE"
);
}
);
width = 760;
},
{
anchors = (
{
name = bottom;
position = "{388, 0}";
},
{
name = top;
position = "{388, 700}";
}
);
background = {
paths = (
{
closed = 1;
nodes = (
"182 -26 LINE",
"182 527 LINE",
"133 527 LINE",
"337 44 LINE",
"439 44 LINE",
"644 527 LINE",
"595 527 LINE",
"595 -26 LINE",
"727 -26 LINE",
"727 726 LINE",
"593 726 LINE",
"368 184 LINE",
"408 184 LINE",
"183 726 LINE",
"50 726 LINE",
"50 -26 LINE"
);
}
);
};
layerId = "D6105F7E-CAE1-4F7B-A52E-8AA6E6082DF8";
paths = (
{
closed = 1;
nodes = (
"196 0 LINE",
"196 426 LINE",
"198 426 LINE",
"361 98 LINE",
"445 98 LINE",
"609 426 LINE",
"611 426 LINE",
"611 0 LINE",
"742 0 LINE",
"742 700 LINE",
"616 700 LINE",
"404 248 LINE",
"402 248 LINE",
"191 700 LINE",
"65 700 LINE",
"65 0 LINE"
);
}
);
width = 807;
},
{
anchors = (
{
name = bottom;
position = "{388, 0}";
},
{
name = top;
position = "{388, 700}";
}
);
layerId = "3C986DA2-2E28-42A4-B05D-29F449A87569";
paths = (
{
closed = 1;
nodes = (
"152 0 LINE",
"152 553 LINE",
"154 553 LINE",
"358 70 LINE",
"418 70 LINE",
"623 553 LINE",
"625 553 LINE",
"625 0 LINE",
"697 0 LINE",
"697 700 LINE",
"614 700 LINE",
"389 158 LINE",
"387 158 LINE",
"162 700 LINE",
"80 700 LINE",
"80 0 LINE"
);
}
);
width = 777;
}
);
note = M;
rightMetricsKey = "=|";
unicode = 004D;
},
{
glyphname = N;
lastChange = "2018-05-03 07:21:31 +0000";
layers = (
{
anchors = (
{
name = bottom;
position = "{328, 0}";
},
{
name = top;
position = "{328, 700}";
}
);
background = {
paths = (
{
closed = 1;
nodes = (
"126 0 LINE",
"126 639 LINE",
"128 639 LINE",
"522 0 LINE",
"566 0 LINE",
"566 700 LINE",
"530 700 LINE",
"530 62 LINE",
"528 62 LINE",
"134 700 LINE",
"90 700 LINE",
"90 0 LINE"
);
}
);
};
layerId = "39D11A97-A6D9-4B52-A6F5-15D5E4373676";
paths = (
{
closed = 1;
nodes = (
"127 0 LINE",
"127 635 LINE",
"129 635 LINE",
"525 0 LINE",
"566 0 LINE",
"566 700 LINE",
"529 700 LINE",
"529 65 LINE",
"527 65 LINE",
"131 700 LINE",
"90 700 LINE",
"90 0 LINE"
);
}
);
width = 656;
},
{
anchors = (
{
name = bottom;
position = "{351, 0}";
},
{
name = top;
position = "{351, 700}";
}
);
background = {
paths = (
{
closed = 1;
nodes = (
"506 150 LINE",
"552 150 LINE",
"187 726 LINE",
"65 726 LINE",
"65 -26 LINE",
"197 -26 LINE",
"197 550 LINE",
"151 550 LINE",
"516 -26 LINE",
"638 -26 LINE",
"638 726 LINE",
"506 726 LINE"
);
}
);
};
layerId = "D6105F7E-CAE1-4F7B-A52E-8AA6E6082DF8";
paths = (
{
closed = 1;
nodes = (
"196 0 LINE",
"196 474 LINE",
"198 474 LINE",
"516 0 LINE",
"638 0 LINE",
"638 700 LINE",
"507 700 LINE",
"507 225 LINE",
"505 225 LINE",
"187 700 LINE",
"65 700 LINE",
"65 0 LINE"
);
}
);
width = 703;
},
{
anchors = (
{
name = bottom;
position = "{336, 0}";
},
{
name = top;
position = "{336, 700}";
}
);
layerId = "3C986DA2-2E28-42A4-B05D-29F449A87569";
paths = (
{
closed = 1;
nodes = (
"152 0 LINE",
"152 576 LINE",
"154 576 LINE",
"519 0 LINE",
"593 0 LINE",
"593 700 LINE",
"521 700 LINE",
"521 124 LINE",
"519 124 LINE",
"154 700 LINE",
"80 700 LINE",
"80 0 LINE"
);
}
);
width = 673;
}
);
note = N;
rightMetricsKey = "=|";
unicode = 004E;
},
{
glyphname = O;
lastChange = "2018-05-03 07:17:09 +0000";
layers = (
{
anchors = (
{
name = bottom;
position = "{330, 0}";
},
{
name = center;
position = "{330, 350}";
},
{
name = ogonek;
position = "{606, 10}";
},
{
name = top;
position = "{330, 700}";
},
{
name = topleft;
position = "{7, 700}";
},
{
name = topright;
position = "{600, 518}";
}
);
background = {
paths = (
{
closed = 1;
nodes = (
"469 0 LINE",
"569 100 LINE",
"569 600 LINE",
"469 700 LINE",
"170 700 LINE",
"70 600 LINE",
"70 100 LINE",
"170 0 LINE"
);
},
{
closed = 1;
nodes = (
"109 113 LINE",
"109 587 LINE",
"186 663 LINE",
"453 663 LINE",
"530 587 LINE",
"530 113 LINE",
"453 37 LINE",
"186 37 LINE"
);
}
);
};
layerId = "39D11A97-A6D9-4B52-A6F5-15D5E4373676";
paths = (
{
closed = 1;
nodes = (
"479 0 LINE",
"579 100 LINE",
"579 600 LINE",
"479 700 LINE",
"180 700 LINE",
"80 600 LINE",
"80 100 LINE",
"180 0 LINE"
);
},
{
closed = 1;
nodes = (
"119 113 LINE",
"119 587 LINE",
"196 663 LINE",
"463 663 LINE",
"540 587 LINE",
"540 113 LINE",
"463 37 LINE",
"196 37 LINE"
);
}
);
width = 659;
},
{
anchors = (
{
name = bottom;
position = "{354, 0}";
},
{
name = center;
position = "{354, 350}";
},
{
name = ogonek;
position = "{629, 10}";
},
{
name = top;
position = "{354, 700}";
},
{
name = topleft;
position = "{30, 700}";
},
{
name = topright;
position = "{623, 518}";
}
);
background = {
paths = (
{
closed = 1;
nodes = (
"525 0 LINE",
"651 126 LINE",
"651 574 LINE",
"525 700 LINE",
"181 700 LINE",
"55 574 LINE",
"55 126 LINE",
"181 0 LINE"
);
},
{
closed = 1;
nodes = (
"191 171 LINE",
"191 529 LINE",
"245 582 LINE",
"461 582 LINE",
"515 529 LINE",
"515 171 LINE",
"461 118 LINE",
"245 118 LINE"
);
}
);
};
layerId = "D6105F7E-CAE1-4F7B-A52E-8AA6E6082DF8";
paths = (
{
closed = 1;
nodes = (
"525 0 LINE",
"651 126 LINE",
"651 574 LINE",
"525 700 LINE",
"181 700 LINE",
"55 574 LINE",
"55 126 LINE",
"181 0 LINE"
);
},
{
closed = 1;
nodes = (
"191 171 LINE",
"191 529 LINE",
"245 582 LINE",
"461 582 LINE",
"515 529 LINE",
"515 171 LINE",
"461 118 LINE",
"245 118 LINE"
);
}
);
width = 706;
},
{
anchors = (
{
name = bottom;
position = "{339, 0}";
},
{
name = center;
position = "{339, 350}";
},
{
name = ogonek;
position = "{614, 10}";
},
{
name = top;
position = "{339, 700}";
},
{
name = topleft;
position = "{15, 700}";
},
{
name = topright;
position = "{608, 518}";
}
);
layerId = "3C986DA2-2E28-42A4-B05D-29F449A87569";
paths = (
{
closed = 1;
nodes = (
"496 0 LINE",
"606 110 LINE",
"606 590 LINE",
"496 700 LINE",
"180 700 LINE",
"70 590 LINE",
"70 110 LINE",
"180 0 LINE"
);
},
{
closed = 1;
nodes = (
"146 135 LINE",
"146 565 LINE",
"214 632 LINE",
"462 632 LINE",
"530 565 LINE",
"530 135 LINE",
"462 68 LINE",
"214 68 LINE"
);
}
);
width = 676;
}
);
leftKerningGroup = O;
note = O;
rightKerningGroup = O;
rightMetricsKey = "=|";
unicode = 004F;
},
{
glyphname = P;
lastChange = "2018-05-03 07:23:04 +0000";
layers = (
{
anchors = (
{
name = bottom;
position = "{303, 0}";
},
{
name = top;
position = "{303, 700}";
}
);
background = {
paths = (
{
closed = 1;
nodes = (
"129 0 LINE",
"129 322 LINE",
"462 322 LINE",
"545 405 LINE",
"545 618 LINE",
"463 700 LINE",
"90 700 LINE",
"90 0 LINE"
);
},
{
closed = 1;
nodes = (
"129 665 LINE",
"449 665 LINE",
"508 607 LINE",
"508 415 LINE",
"449 357 LINE",
"129 357 LINE"
);
}
);
};
layerId = "39D11A97-A6D9-4B52-A6F5-15D5E4373676";
paths = (
{
closed = 1;
nodes = (
"129 0 LINE",
"129 322 LINE",
"462 322 LINE",
"545 405 LINE",
"545 618 LINE",
"463 700 LINE",
"90 700 LINE",
"90 0 LINE"
);
},
{
closed = 1;
nodes = (
"129 663 LINE",
"447 663 LINE",
"506 605 LINE",
"506 417 LINE",
"447 359 LINE",
"129 359 LINE"
);
}
);
width = 605;
},
{
anchors = (
{
name = bottom;
position = "{326, 0}";
},
{
name = top;
position = "{326, 700}";
}
);
background = {
paths = (
{
closed = 1;
nodes = (
"201 -26 LINE",
"201 264 LINE",
"508 264 LINE",
"617 373 LINE",
"617 618 LINE",
"509 726 LINE",
"65 726 LINE",
"65 -26 LINE"
);
},
{
closed = 1;
nodes = (
"201 608 LINE",
"450 608 LINE",
"483 575 LINE",
"483 415 LINE",
"450 382 LINE",
"201 382 LINE"
);
}
);
};
layerId = "D6105F7E-CAE1-4F7B-A52E-8AA6E6082DF8";
paths = (
{
closed = 1;
nodes = (
"201 0 LINE",
"201 238 LINE",
"508 238 LINE",
"617 347 LINE",
"617 592 LINE",
"509 700 LINE",
"65 700 LINE",
"65 0 LINE"
);
},
{
closed = 1;
nodes = (
"201 584 LINE",
"447 584 LINE",
"483 549 LINE",
"483 389 LINE",
"447 354 LINE",
"201 354 LINE"
);
}
);
width = 652;
},
{
anchors = (
{
name = bottom;
position = "{311, 0}";
},
{
name = top;
position = "{311, 700}";
}
);
layerId = "3C986DA2-2E28-42A4-B05D-29F449A87569";
paths = (
{
closed = 1;
nodes = (
"156 0 LINE",
"156 290 LINE",
"479 290 LINE",
"572 383 LINE",
"572 608 LINE",
"480 700 LINE",
"80 700 LINE",
"80 0 LINE"
);
},
{
closed = 1;
nodes = (
"156 634 LINE",
"448 634 LINE",
"498 585 LINE",
"498 405 LINE",
"448 356 LINE",
"156 356 LINE"
);
}
);
width = 622;
}
);
note = P;
unicode = 0050;
},
{
glyphname = Q;
lastChange = "2018-05-03 07:23:56 +0000";
layers = (
{
anchors = (
{
name = bottom;
position = "{354, 0}";
},
{
name = top;
position = "{354, 700}";
}
);
background = {
paths = (
{
closed = 1;
nodes = (
"614 -60 LINE",
"528 25 LINE",
"509 0 LINE",
"592 -81 LINE"
);
}
);
};
components = (
{
locked = 1;
name = O;
transform = "{1, 0, 0, 1, 20, 0}";
}
);
layerId = "39D11A97-A6D9-4B52-A6F5-15D5E4373676";
paths = (
{
closed = 1;
nodes = (
"603 -60 LINE",
"509 33 LINE",
"488 10 LINE",
"581 -81 LINE"
);
}
);
width = 672;
},
{
anchors = (
{
name = bottom;
position = "{344, 0}";
},
{
name = top;
position = "{344, 700}";
}
);
background = {
paths = (
{
closed = 1;
nodes = (
"579 -104 LINE",
"623 -60 LINE",
"510 52 LINE",
"475 0 LINE"
);
}
);
};
components = (
{
locked = 1;
name = O;
}
);
layerId = "D6105F7E-CAE1-4F7B-A52E-8AA6E6082DF8";
paths = (
{
closed = 1;
nodes = (
"668 -55 LINE",
"510 101 LINE",
"441 0 LINE",
"582 -141 LINE"
);
}
);
width = 676;
},
{
anchors = (
{
name = bottom;
position = "{344, 0}";
},
{
name = top;
position = "{344, 700}";
}
);
components = (
{
locked = 1;
name = O;
}
);
layerId = "3C986DA2-2E28-42A4-B05D-29F449A87569";
paths = (
{
closed = 1;
nodes = (
"628 -58 LINE",
"515 54 LINE",
"478 0 LINE",
"582 -104 LINE"
);
}
);
width = 676;
}
);
leftKerningGroup = O;
leftMetricsKey = O;
note = Q;
rightKerningGroup = O;
unicode = 0051;
},
{
glyphname = R;
lastChange = "2018-05-03 07:28:12 +0000";
layers = (
{
anchors = (
{
name = bottom;
position = "{329, 0}";
},
{
name = top;
position = "{315, 700}";
}
);
background = {
paths = (
{
closed = 1;
nodes = (
"129 0 LINE",
"129 310 LINE",
"464 310 LINE",
"545 391 LINE",
"545 618 LINE",
"463 700 LINE",
"90 700 LINE",
"90 0 LINE"
);
},
{
closed = 1;
nodes = (
"549 0 LINE",
"549 203 LINE",
"432 328 LINE",
"392 310 LINE",
"510 183 LINE",
"510 0 LINE"
);
},
{
closed = 1;
nodes = (
"129 665 LINE",
"449 665 LINE",
"508 607 LINE",
"508 404 LINE",
"449 346 LINE",
"129 346 LINE"
);
}
);
};
layerId = "39D11A97-A6D9-4B52-A6F5-15D5E4373676";
paths = (
{
closed = 1;
nodes = (
"129 0 LINE",
"129 312 LINE",
"462 312 LINE",
"545 395 LINE",
"545 618 LINE",
"463 700 LINE",
"90 700 LINE",
"90 0 LINE"
);
},
{
closed = 1;
nodes = (
"549 0 LINE",
"549 233 LINE",
"462 328 LINE",
"422 318 LINE",
"510 223 LINE",
"510 0 LINE"
);
},
{
closed = 1;
nodes = (
"129 663 LINE",
"447 663 LINE",
"506 605 LINE",
"506 407 LINE",
"447 349 LINE",
"129 349 LINE"
);
}
);
width = 634;
},
{
anchors = (
{
name = bottom;
position = "{328, 0}";
},
{
name = top;
position = "{314, 700}";
}
);
background = {
paths = (
{
closed = 1;
nodes = (
"470 181 LINE",
"470 -26 LINE",
"606 -26 LINE",
"606 223 LINE",
"456 385 LINE",
"342 320 LINE"
);
},
{
closed = 1;
nodes = (
"186 -26 LINE",
"186 268 LINE",
"493 268 LINE",
"602 377 LINE",
"602 618 LINE",
"494 726 LINE",
"50 726 LINE",
"50 -26 LINE"
);
},
{
closed = 1;
nodes = (
"186 608 LINE",
"435 608 LINE",
"468 575 LINE",
"468 419 LINE",
"435 386 LINE",
"186 386 LINE"
);
}
);
};
layerId = "D6105F7E-CAE1-4F7B-A52E-8AA6E6082DF8";
paths = (
{
closed = 1;
nodes = (
"201 0 LINE",
"201 268 LINE",
"505 268 LINE",
"617 380 LINE",
"617 592 LINE",
"509 700 LINE",
"65 700 LINE",
"65 0 LINE"
);
},
{
closed = 1;
nodes = (
"621 0 LINE",
"621 232 LINE",
"480 385 LINE",
"377 320 LINE",
"485 201 LINE",
"485 0 LINE"
);
},
{
closed = 1;
nodes = (
"201 584 LINE",
"447 584 LINE",
"483 549 LINE",
"483 417 LINE",
"447 382 LINE",
"201 382 LINE"
);
}
);
width = 681;
},
{
anchors = (
{
name = bottom;
position = "{328, 0}";
},
{
name = top;
position = "{314, 700}";
}
);
layerId = "3C986DA2-2E28-42A4-B05D-29F449A87569";
paths = (
{
closed = 1;
nodes = (
"156 0 LINE",
"156 294 LINE",
"479 294 LINE",
"572 387 LINE",
"572 608 LINE",
"480 700 LINE",
"80 700 LINE",
"80 0 LINE"
);
},
{
closed = 1;
nodes = (
"576 0 LINE",
"576 214 LINE",
"450 350 LINE",
"386 314 LINE",
"500 190 LINE",
"500 0 LINE"
);
},
{
closed = 1;
nodes = (
"156 634 LINE",
"448 634 LINE",
"498 585 LINE",
"498 409 LINE",
"448 360 LINE",
"156 360 LINE"
);
}
);
width = 651;
}
);
note = R;
rightKerningGroup = R;
unicode = 0052;
},
{
glyphname = S;
lastChange = "2018-05-03 07:29:55 +0000";
layers = (
{
anchors = (
{
name = bottom;
position = "{306, 0}";
},
{
name = top;
position = "{297, 700}";
}
);
background = {
paths = (
{
closed = 1;
nodes = (
"442 0 LINE",
"526 84 LINE",
"526 296 LINE",
"444 378 LINE",
"174 378 LINE",
"114 437 LINE",
"114 604 LINE",
"174 663 LINE",
"421 663 LINE",
"481 604 LINE",
"481 575 LINE",
"518 575 LINE",
"518 618 LINE",
"436 700 LINE",
"159 700 LINE",
"77 618 LINE",
"77 423 LINE",
"159 341 LINE",
"429 341 LINE",
"489 282 LINE",
"489 99 LINE",
"430 37 LINE",
"172 37 LINE",
"115 96 LINE",
"115 124 LINE",
"75 124 LINE",
"75 82 LINE",
"157 0 LINE"
);
}
);
};
layerId = "39D11A97-A6D9-4B52-A6F5-15D5E4373676";
paths = (
{
closed = 1;
nodes = (
"442 0 LINE",
"526 84 LINE",
"526 296 LINE",
"444 378 LINE",
"176 378 LINE",
"116 437 LINE",
"116 604 LINE",
"176 663 LINE",
"419 663 LINE",
"479 604 LINE",
"479 575 LINE",
"518 575 LINE",
"518 618 LINE",
"436 700 LINE",
"159 700 LINE",
"77 618 LINE",
"77 423 LINE",
"159 341 LINE",
"427 341 LINE",
"487 282 LINE",
"487 98 LINE",
"427 37 LINE",
"175 37 LINE",
"115 96 LINE",
"115 124 LINE",
"75 124 LINE",
"75 82 LINE",
"157 0 LINE"
);
}
);
width = 596;
},
{
anchors = (
{
name = bottom;
position = "{329, 0}";
},
{
name = top;
position = "{320, 700}";
}
);
background = {
paths = (
{
closed = 1;
nodes = (
"488 0 LINE",
"598 110 LINE",
"598 311 LINE",
"490 419 LINE",
"219 419 LINE",
"186 452 LINE",
"186 547 LINE",
"219 580 LINE",
"423 580 LINE",
"456 547 LINE",
"456 491 LINE",
"590 491 LINE",
"590 592 LINE",
"482 700 LINE",
"160 700 LINE",
"52 592 LINE",
"52 407 LINE",
"160 299 LINE",
"431 299 LINE",
"464 266 LINE",
"464 154 LINE",
"430 120 LINE",
"218 120 LINE",
"186 152 LINE",
"186 208 LINE",
"50 208 LINE",
"50 108 LINE",
"158 0 LINE"
);
}
);
};
layerId = "D6105F7E-CAE1-4F7B-A52E-8AA6E6082DF8";
paths = (
{
closed = 1;
nodes = (
"488 0 LINE",
"598 110 LINE",
"598 309 LINE",
"490 417 LINE",
"219 417 LINE",
"186 450 LINE",
"186 549 LINE",
"220 582 LINE",
"422 582 LINE",
"456 549 LINE",
"456 491 LINE",
"590 491 LINE",
"590 592 LINE",
"482 700 LINE",
"160 700 LINE",
"52 592 LINE",
"52 407 LINE",
"160 299 LINE",
"431 299 LINE",
"464 266 LINE",
"464 152 LINE",
"429 118 LINE",
"218 118 LINE",
"184 151 LINE",
"184 208 LINE",
"50 208 LINE",
"50 108 LINE",
"158 0 LINE"
);
}
);
width = 643;
},
{
anchors = (
{
name = bottom;
position = "{314, 0}";
},
{
name = top;
position = "{305, 700}";
}
);
layerId = "3C986DA2-2E28-42A4-B05D-29F449A87569";
paths = (
{
closed = 1;
nodes = (
"459 0 LINE",
"553 94 LINE",
"553 301 LINE",
"461 393 LINE",
"191 393 LINE",
"141 442 LINE",
"141 583 LINE",
"191 632 LINE",
"421 632 LINE",
"471 583 LINE",
"471 543 LINE",
"545 543 LINE",
"545 608 LINE",
"453 700 LINE",
"159 700 LINE",
"67 608 LINE",
"67 417 LINE",
"159 325 LINE",
"429 325 LINE",
"479 276 LINE",
"479 119 LINE",
"429 68 LINE",
"189 68 LINE",
"141 117 LINE",
"141 156 LINE",
"65 156 LINE",
"65 92 LINE",
"157 0 LINE"
);
}
);
width = 613;
}
);
leftKerningGroup = S;
note = S;
rightKerningGroup = S;
unicode = 0053;
},
{
glyphname = T;
lastChange = "2018-05-03 07:17:09 +0000";
layers = (
{
anchors = (
{
name = bottom;
position = "{281, 0}";
},
{
name = center;
position = "{281, 350}";
},
{
name = top;
position = "{281, 700}";
}
);
background = {
paths = (
{
closed = 1;
nodes = (
"16 700 LINE",
"16 634 LINE",
"229 634 LINE",
"229 0 LINE",
"303 0 LINE",
"303 634 LINE",
"516 634 LINE",
"516 700 LINE"
);
}
);
};
layerId = "39D11A97-A6D9-4B52-A6F5-15D5E4373676";
paths = (
{
closed = 1;
nodes = (
"291 0 LINE",
"291 663 LINE",
"503 663 LINE",
"503 700 LINE",
"40 700 LINE",
"40 663 LINE",
"252 663 LINE",
"252 0 LINE"
);
}
);
width = 543;
},
{
anchors = (
{
name = bottom;
position = "{280, 0}";
},
{
name = center;
position = "{280, 350}";
},
{
name = top;
position = "{280, 700}";
}
);
background = {
paths = (
{
closed = 1;
nodes = (
"348 -26 LINE",
"348 606 LINE",
"560 606 LINE",
"560 726 LINE",
"0 726 LINE",
"0 606 LINE",
"212 606 LINE",
"212 -26 LINE"
);
}
);
};
layerId = "D6105F7E-CAE1-4F7B-A52E-8AA6E6082DF8";
paths = (
{
closed = 1;
nodes = (
"363 0 LINE",
"363 582 LINE",
"575 582 LINE",
"575 700 LINE",
"15 700 LINE",
"15 582 LINE",
"227 582 LINE",
"227 0 LINE"
);
}
);
width = 590;
},
{
anchors = (
{
name = bottom;
position = "{280, 0}";
},
{
name = center;
position = "{280, 350}";
},
{
name = top;
position = "{280, 700}";
}
);
layerId = "3C986DA2-2E28-42A4-B05D-29F449A87569";
paths = (
{
closed = 1;
nodes = (
"318 0 LINE",
"318 632 LINE",
"530 632 LINE",
"530 700 LINE",
"30 700 LINE",
"30 632 LINE",
"242 632 LINE",
"242 0 LINE"
);
}
);
width = 560;
}
);
leftKerningGroup = T;
note = T;
rightKerningGroup = T;
rightMetricsKey = "=|";
unicode = 0054;
},
{
glyphname = U;
lastChange = "2018-05-03 07:17:09 +0000";
layers = (
{
anchors = (
{
name = bottom;
position = "{331, 0}";
},
{
name = ogonek;
position = "{478, 0}";
},
{
name = top;
position = "{330, 700}";
},
{
name = topright;
position = "{620, 518}";
}
);
background = {
paths = (
{
closed = 1;
nodes = (
"470 0 LINE",
"580 110 LINE",
"580 700 LINE",
"504 700 LINE",
"504 134 LINE",
"436 68 LINE",
"210 68 LINE",
"142 134 LINE",
"142 700 LINE",
"66 700 LINE",
"66 110 LINE",
"176 0 LINE"
);
}
);
};
layerId = "39D11A97-A6D9-4B52-A6F5-15D5E4373676";
paths = (
{
closed = 1;
nodes = (
"469 0 LINE",
"569 100 LINE",
"569 700 LINE",
"530 700 LINE",
"530 113 LINE",
"453 37 LINE",
"206 37 LINE",
"129 113 LINE",
"129 700 LINE",
"90 700 LINE",
"90 100 LINE",
"190 0 LINE"
);
}
);
width = 659;
},
{
anchors = (
{
name = bottom;
position = "{355, 0}";
},
{
name = ogonek;
position = "{501, 0}";
},
{
name = top;
position = "{353, 700}";
},
{
name = topright;
position = "{643, 518}";
}
);
background = {
paths = (
{
closed = 1;
nodes = (
"515 0 LINE",
"641 126 LINE",
"641 700 LINE",
"505 700 LINE",
"505 171 LINE",
"454 120 LINE",
"252 120 LINE",
"201 171 LINE",
"201 700 LINE",
"65 700 LINE",
"65 126 LINE",
"191 0 LINE"
);
}
);
};
layerId = "D6105F7E-CAE1-4F7B-A52E-8AA6E6082DF8";
paths = (
{
closed = 1;
nodes = (
"515 0 LINE",
"641 126 LINE",
"641 700 LINE",
"505 700 LINE",
"505 171 LINE",
"451 118 LINE",
"255 118 LINE",
"201 171 LINE",
"201 700 LINE",
"65 700 LINE",
"65 126 LINE",
"191 0 LINE"
);
}
);
width = 706;
},
{
anchors = (
{
name = bottom;
position = "{340, 0}";
},
{
name = ogonek;
position = "{486, 0}";
},
{
name = top;
position = "{338, 700}";
},
{
name = topright;
position = "{628, 518}";
}
);
layerId = "3C986DA2-2E28-42A4-B05D-29F449A87569";
paths = (
{
closed = 1;
nodes = (
"486 0 LINE",
"596 110 LINE",
"596 700 LINE",
"520 700 LINE",
"520 135 LINE",
"452 68 LINE",
"224 68 LINE",
"156 135 LINE",
"156 700 LINE",
"80 700 LINE",
"80 110 LINE",
"190 0 LINE"
);
}
);
width = 676;
}
);
leftKerningGroup = U;
note = U;
rightKerningGroup = U;
rightMetricsKey = "=|";
unicode = 0055;
},
{
glyphname = V;
lastChange = "2018-05-04 04:49:10 +0000";
layers = (
{
anchors = (
{
name = bottom;
position = "{298, 0}";
},
{
name = top;
position = "{298, 700}";
}
);
background = {
paths = (
{
closed = 1;
nodes = (
"326 0 LINE",
"560 700 LINE",
"520 700 LINE",
"299 40 LINE",
"297 40 LINE",
"75 700 LINE",
"35 700 LINE",
"270 0 LINE"
);
}
);
};
layerId = "39D11A97-A6D9-4B52-A6F5-15D5E4373676";
paths = (
{
closed = 1;
nodes = (
"324 0 LINE",
"560 700 LINE",
"520 700 LINE",
"299 37 LINE",
"297 37 LINE",
"75 700 LINE",
"35 700 LINE",
"272 0 LINE"
);
}
);
width = 595;
},
{
anchors = (
{
name = bottom;
position = "{339, 0}";
},
{
name = top;
position = "{339, 700}";
}
);
background = {
paths = (
{
closed = 1;
nodes = (
"402 0 LINE",
"668 700 LINE",
"526 700 LINE",
"318 143 LINE",
"360 143 LINE",
"152 700 LINE",
"10 700 LINE",
"276 0 LINE"
);
}
);
};
layerId = "D6105F7E-CAE1-4F7B-A52E-8AA6E6082DF8";
paths = (
{
closed = 1;
nodes = (
"401 0 LINE",
"668 700 LINE",
"526 700 LINE",
"340 173 LINE",
"338 173 LINE",
"152 700 LINE",
"10 700 LINE",
"277 0 LINE"
);
}
);
width = 678;
},
{
anchors = (
{
name = bottom;
position = "{313, 0}";
},
{
name = top;
position = "{313, 700}";
}
);
layerId = "3C986DA2-2E28-42A4-B05D-29F449A87569";
paths = (
{
closed = 1;
nodes = (
"354 0 LINE",
"601 700 LINE",
"522 700 LINE",
"314 91 LINE",
"312 91 LINE",
"104 700 LINE",
"25 700 LINE",
"272 0 LINE"
);
}
);
width = 626;
}
);
note = V;
rightMetricsKey = "=|";
unicode = 0056;
},
{
glyphname = W;
lastChange = "2018-05-03 08:06:29 +0000";
layers = (
{
anchors = (
{
name = bottom;
position = "{420, 0}";
},
{
name = top;
position = "{420, 700}";
}
);
background = {
paths = (
{
closed = 1;
nodes = (
"236 0 LINE",
"419 582 LINE",
"421 582 LINE",
"603 0 LINE",
"655 0 LINE",
"789 700 LINE",
"749 700 LINE",
"627 48 LINE",
"625 48 LINE",
"441 640 LINE",
"399 640 LINE",
"214 48 LINE",
"212 48 LINE",
"90 700 LINE",
"50 700 LINE",
"184 0 LINE"
);
}
);
};
layerId = "39D11A97-A6D9-4B52-A6F5-15D5E4373676";
paths = (
{
closed = 1;
nodes = (
"236 0 LINE",
"419 583 LINE",
"421 583 LINE",
"603 0 LINE",
"655 0 LINE",
"789 700 LINE",
"750 700 LINE",
"627 47 LINE",
"625 47 LINE",
"441 640 LINE",
"399 640 LINE",
"214 47 LINE",
"212 47 LINE",
"89 700 LINE",
"50 700 LINE",
"184 0 LINE"
);
}
);
width = 839;
},
{
anchors = (
{
name = bottom;
position = "{453, 0}";
},
{
name = top;
position = "{453, 700}";
}
);
background = {
paths = (
{
closed = 1;
nodes = (
"631 122 LINE",
"678 122 LINE",
"510 666 LINE",
"396 666 LINE",
"229 132 LINE",
"275 132 LINE",
"163 726 LINE",
"25 726 LINE",
"177 -26 LINE",
"307 -26 LINE",
"475 511 LINE",
"431 511 LINE",
"598 -26 LINE",
"728 -26 LINE",
"880 726 LINE",
"741 726 LINE"
);
}
);
};
layerId = "D6105F7E-CAE1-4F7B-A52E-8AA6E6082DF8";
paths = (
{
closed = 1;
nodes = (
"305 0 LINE",
"452 447 LINE",
"454 447 LINE",
"600 0 LINE",
"724 0 LINE",
"880 700 LINE",
"742 700 LINE",
"648 206 LINE",
"646 206 LINE",
"507 640 LINE",
"399 640 LINE",
"259 206 LINE",
"257 206 LINE",
"163 700 LINE",
"25 700 LINE",
"181 0 LINE"
);
}
);
width = 905;
},
{
anchors = (
{
name = bottom;
position = "{432, 0}";
},
{
name = top;
position = "{432, 700}";
}
);
layerId = "3C986DA2-2E28-42A4-B05D-29F449A87569";
paths = (
{
closed = 1;
nodes = (
"263 0 LINE",
"431 537 LINE",
"433 537 LINE",
"600 0 LINE",
"682 0 LINE",
"823 700 LINE",
"746 700 LINE",
"636 96 LINE",
"634 96 LINE",
"466 640 LINE",
"398 640 LINE",
"231 106 LINE",
"229 106 LINE",
"117 700 LINE",
"40 700 LINE",
"181 0 LINE"
);
}
);
width = 863;
}
);
leftKerningGroup = W;
note = W;
rightKerningGroup = W;
rightMetricsKey = "=|";
unicode = 0057;
},
{
glyphname = X;
lastChange = "2018-05-03 07:39:27 +0000";
layers = (
{
anchors = (
{
name = bottom;
position = "{280, 0}";
},
{
name = top;
position = "{280, 700}";
}
);
background = {
paths = (
{
closed = 1;
nodes = (
"530 0 LINE",
"81 700 LINE",
"40 700 LINE",
"489 0 LINE"
);
},
{
closed = 1;
nodes = (
"71 0 LINE",
"520 700 LINE",
"479 700 LINE",
"30 0 LINE"
);
}
);
};
layerId = "39D11A97-A6D9-4B52-A6F5-15D5E4373676";
paths = (
{
closed = 1;
nodes = (
"71 0 LINE",
"279 325 LINE",
"489 0 LINE",
"530 0 LINE",
"300 357 LINE",
"520 700 LINE",
"479 700 LINE",
"281 391 LINE",
"81 700 LINE",
"40 700 LINE",
"261 359 LINE",
"30 0 LINE"
);
}
);
width = 560;
},
{
anchors = (
{
name = bottom;
position = "{339, 0}";
},
{
name = top;
position = "{339, 700}";
}
);
background = {
paths = (
{
closed = 1;
nodes = (
"416 355 LINE",
"663 726 LINE",
"510 726 LINE",
"339 470 LINE",
"168 726 LINE",
"15 726 LINE",
"262 361 LINE",
"5 -26 LINE",
"158 -26 LINE",
"339 247 LINE",
"520 -26 LINE",
"673 -26 LINE"
);
}
);
};
layerId = "D6105F7E-CAE1-4F7B-A52E-8AA6E6082DF8";
paths = (
{
closed = 1;
nodes = (
"158 0 LINE",
"339 247 LINE",
"520 0 LINE",
"673 0 LINE",
"416 355 LINE",
"663 700 LINE",
"510 700 LINE",
"339 470 LINE",
"168 700 LINE",
"15 700 LINE",
"262 361 LINE",
"5 0 LINE"
);
}
);
width = 678;
},
{
anchors = (
{
name = bottom;
position = "{302, 0}";
},
{
name = top;
position = "{302, 700}";
}
);
layerId = "3C986DA2-2E28-42A4-B05D-29F449A87569";
paths = (
{
closed = 1;
nodes = (
"104 0 LINE",
"302 299 LINE",
"500 0 LINE",
"584 0 LINE",
"344 355 LINE",
"574 700 LINE",
"490 700 LINE",
"302 418 LINE",
"114 700 LINE",
"30 700 LINE",
"260 361 LINE",
"20 0 LINE"
);
}
);
width = 604;
}
);
note = X;
rightMetricsKey = "=|";
unicode = 0058;
},
{
glyphname = Y;
lastChange = "2018-05-03 07:41:40 +0000";
layers = (
{
anchors = (
{
name = bottom;
position = "{276, 0}";
},
{
name = top;
position = "{276, 700}";
},
{
name = topleft;
position = "{-19, 700}";
}
);
background = {
paths = (
{
closed = 1;
nodes = (
"295 0 LINE",
"295 296 LINE",
"527 700 LINE",
"486 700 LINE",
"288 345 LINE",
"264 345 LINE",
"66 700 LINE",
"25 700 LINE",
"256 296 LINE",
"256 0 LINE"
);
}
);
};
layerId = "39D11A97-A6D9-4B52-A6F5-15D5E4373676";
paths = (
{
closed = 1;
nodes = (
"295 0 LINE",
"295 296 LINE",
"527 700 LINE",
"485 700 LINE",
"276 332 LINE",
"274 332 LINE",
"67 700 LINE",
"25 700 LINE",
"256 296 LINE",
"256 0 LINE"
);
}
);
width = 552;
},
{
anchors = (
{
name = bottom;
position = "{330, 0}";
},
{
name = top;
position = "{330, 700}";
},
{
name = topleft;
position = "{35, 700}";
}
);
background = {
paths = (
{
closed = 1;
nodes = (
"368 0 LINE",
"368 292 LINE",
"610 700 LINE",
"528 700 LINE",
"331 361 LINE",
"329 361 LINE",
"132 700 LINE",
"50 700 LINE",
"292 292 LINE",
"292 0 LINE"
);
}
);
};
layerId = "D6105F7E-CAE1-4F7B-A52E-8AA6E6082DF8";
paths = (
{
closed = 1;
nodes = (
"398 0 LINE",
"398 286 LINE",
"660 700 LINE",
"511 700 LINE",
"313 387 LINE",
"347 387 LINE",
"149 700 LINE",
"0 700 LINE",
"262 286 LINE",
"262 0 LINE"
);
}
);
width = 660;
},
{
anchors = (
{
name = bottom;
position = "{296, 0}";
},
{
name = top;
position = "{296, 700}";
},
{
name = topleft;
position = "{1, 700}";
}
);
layerId = "3C986DA2-2E28-42A4-B05D-29F449A87569";
paths = (
{
closed = 1;
nodes = (
"334 0 LINE",
"334 292 LINE",
"577 700 LINE",
"495 700 LINE",
"297 361 LINE",
"295 361 LINE",
"97 700 LINE",
"15 700 LINE",
"258 292 LINE",
"258 0 LINE"
);
}
);
width = 592;
}
);
leftKerningGroup = Y;
note = Y;
rightKerningGroup = Y;
rightMetricsKey = "=|";
unicode = 0059;
},
{
glyphname = Z;
lastChange = "2018-05-03 07:42:43 +0000";
layers = (
{
anchors = (
{
name = bottom;
position = "{277, 0}";
},
{
name = top;
position = "{281, 700}";
}
);
background = {
paths = (
{
closed = 1;
nodes = (
"491 0 LINE",
"491 35 LINE",
"100 35 LINE",
"100 37 LINE",
"491 655 LINE",
"491 700 LINE",
"70 700 LINE",
"70 665 LINE",
"451 665 LINE",
"451 663 LINE",
"60 45 LINE",
"60 0 LINE"
);
}
);
};
layerId = "39D11A97-A6D9-4B52-A6F5-15D5E4373676";
paths = (
{
closed = 1;
nodes = (
"491 0 LINE",
"491 35 LINE",
"100 35 LINE",
"100 37 LINE",
"491 655 LINE",
"491 700 LINE",
"70 700 LINE",
"70 665 LINE",
"451 665 LINE",
"451 663 LINE",
"60 45 LINE",
"60 0 LINE"
);
}
);
width = 551;
},
{
anchors = (
{
name = bottom;
position = "{300, 0}";
},
{
name = top;
position = "{304, 700}";
}
);
background = {
paths = (
{
closed = 1;
nodes = (
"45 585 LINE",
"422 585 LINE",
"422 614 LINE",
"35 108 LINE",
"35 0 LINE",
"563 0 LINE",
"563 115 LINE",
"176 115 LINE",
"176 86 LINE",
"563 592 LINE",
"563 700 LINE",
"45 700 LINE"
);
}
);
};
layerId = "D6105F7E-CAE1-4F7B-A52E-8AA6E6082DF8";
paths = (
{
closed = 1;
nodes = (
"563 0 LINE",
"563 114 LINE",
"198 114 LINE",
"198 116 LINE",
"563 592 LINE",
"563 700 LINE",
"45 700 LINE",
"45 586 LINE",
"400 586 LINE",
"400 584 LINE",
"35 108 LINE",
"35 0 LINE"
);
}
);
width = 598;
},
{
anchors = (
{
name = bottom;
position = "{285, 0}";
},
{
name = top;
position = "{289, 700}";
}
);
layerId = "3C986DA2-2E28-42A4-B05D-29F449A87569";
paths = (
{
closed = 1;
nodes = (
"518 0 LINE",
"518 65 LINE",
"131 65 LINE",
"131 67 LINE",
"518 625 LINE",
"518 700 LINE",
"60 700 LINE",
"60 635 LINE",
"437 635 LINE",
"437 633 LINE",
"50 75 LINE",
"50 0 LINE"
);
}
);
width = 568;
}
);
leftKerningGroup = Z;
note = Z;
rightKerningGroup = Z;
unicode = 005A;
},
{
glyphname = a;
lastChange = "2018-05-04 05:31:24 +0000";
layers = (
{
anchors = (
{
name = bottom;
position = "{268, 0}";
},
{
name = ogonek;
position = "{479, 0}";
},
{
name = top;
position = "{268, 498}";
}
);
background = {
paths = (
{
closed = 1;
nodes = (
"310 0 LINE",
"416 104 LINE",
"416 0 LINE",
"454 0 LINE",
"454 416 LINE",
"372 498 LINE",
"156 498 LINE",
"74 416 LINE",
"74 353 LINE",
"112 353 LINE",
"112 402 LINE",
"174 462 LINE",
"355 462 LINE",
"416 402 LINE",
"416 276 LINE",
"142 276 LINE",
"70 206 LINE",
"70 72 LINE",
"142 0 LINE"
);
},
{
closed = 1;
nodes = (
"108 83 LINE",
"108 194 LINE",
"156 240 LINE",
"416 240 LINE",
"416 153 LINE",
"298 36 LINE",
"156 36 LINE"
);
}
);
};
layerId = "39D11A97-A6D9-4B52-A6F5-15D5E4373676";
paths = (
{
closed = 1;
nodes = (
"308 0 LINE",
"416 106 LINE",
"416 0 LINE",
"454 0 LINE",
"454 416 LINE",
"372 498 LINE",
"156 498 LINE",
"74 416 LINE",
"74 353 LINE",
"112 353 LINE",
"112 402 LINE",
"174 462 LINE",
"355 462 LINE",
"416 402 LINE",
"416 276 LINE",
"142 276 LINE",
"70 206 LINE",
"70 72 LINE",
"142 0 LINE"
);
},
{
closed = 1;
nodes = (
"108 84 LINE",
"108 194 LINE",
"156 240 LINE",
"416 240 LINE",
"416 154 LINE",
"296 36 LINE",
"156 36 LINE"
);
}
);
width = 534;
},
{
anchors = (
{
name = bottom;
position = "{291, 0}";
},
{
name = ogonek;
position = "{502, 0}";
},
{
name = top;
position = "{291, 498}";
}
);
background = {
paths = (
{
closed = 1;
nodes = (
"331 0 LINE",
"407 71 LINE",
"407 0 LINE",
"526 0 LINE",
"526 390 LINE",
"418 498 LINE",
"157 498 LINE",
"49 390 LINE",
"49 331 LINE",
"181 331 LINE",
"181 361 LINE",
"214 394 LINE",
"362 394 LINE",
"396 361 LINE",
"396 299 LINE",
"144 299 LINE",
"45 202 LINE",
"45 98 LINE",
"143 0 LINE"
);
},
{
closed = 1;
nodes = (
"177 131 LINE",
"177 176 LINE",
"204 203 LINE",
"396 203 LINE",
"396 177 LINE",
"318 104 LINE",
"204 104 LINE"
);
}
);
};
layerId = "D6105F7E-CAE1-4F7B-A52E-8AA6E6082DF8";
paths = (
{
closed = 1;
nodes = (
"331 0 LINE",
"407 71 LINE",
"407 0 LINE",
"526 0 LINE",
"526 390 LINE",
"418 498 LINE",
"157 498 LINE",
"49 390 LINE",
"49 331 LINE",
"181 331 LINE",
"181 359 LINE",
"212 390 LINE",
"364 390 LINE",
"396 359 LINE",
"396 299 LINE",
"144 299 LINE",
"45 202 LINE",
"45 98 LINE",
"143 0 LINE"
);
},
{
closed = 1;
nodes = (
"177 131 LINE",
"177 176 LINE",
"204 203 LINE",
"396 203 LINE",
"396 177 LINE",
"318 104 LINE",
"204 104 LINE"
);
}
);
width = 581;
},
{
anchors = (
{
name = bottom;
position = "{276, 0}";
},
{
name = ogonek;
position = "{487, 0}";
},
{
name = top;
position = "{276, 498}";
}
);
layerId = "3C986DA2-2E28-42A4-B05D-29F449A87569";
paths = (
{
closed = 1;
nodes = (
"318 0 LINE",
"410 88 LINE",
"410 0 LINE",
"481 0 LINE",
"481 406 LINE",
"389 498 LINE",
"156 498 LINE",
"64 406 LINE",
"64 344 LINE",
"138 344 LINE",
"138 385 LINE",
"188 434 LINE",
"358 434 LINE",
"408 385 LINE",
"408 290 LINE",
"142 290 LINE",
"60 209 LINE",
"60 82 LINE",
"142 0 LINE"
);
},
{
closed = 1;
nodes = (
"134 103 LINE",
"134 187 LINE",
"174 226 LINE",
"408 226 LINE",
"408 165 LINE",
"303 64 LINE",
"174 64 LINE"
);
}
);
width = 551;
}
);
leftKerningGroup = a;
note = a;
rightKerningGroup = n;
rightMetricsKey = n;
unicode = 0061;
},
{
glyphname = b;
lastChange = "2018-05-03 08:40:18 +0000";
layers = (
{
anchors = (
{
name = bottom;
position = "{281, 0}";
},
{
name = top;
position = "{281, 498}";
}
);
background = {
paths = (
{
closed = 1;
nodes = (
"404 0 LINE",
"486 82 LINE",
"486 416 LINE",
"404 498 LINE",
"241 498 LINE",
"123 380 LINE",
"123 714 LINE",
"85 714 LINE",
"85 82 LINE",
"167 0 LINE"
);
},
{
closed = 1;
nodes = (
"123 94 LINE",
"123 328 LINE",
"257 462 LINE",
"389 462 LINE",
"448 404 LINE",
"448 94 LINE",
"389 36 LINE",
"182 36 LINE"
);
}
);
};
layerId = "39D11A97-A6D9-4B52-A6F5-15D5E4373676";
paths = (
{
closed = 1;
nodes = (
"404 0 LINE",
"486 82 LINE",
"486 416 LINE",
"404 498 LINE",
"242 498 LINE",
"123 377 LINE",
"123 714 LINE",
"85 714 LINE",
"85 82 LINE",
"167 0 LINE"
);
},
{
closed = 1;
nodes = (
"123 94 LINE",
"123 328 LINE",
"257 462 LINE",
"389 462 LINE",
"448 404 LINE",
"448 94 LINE",
"389 36 LINE",
"182 36 LINE"
);
}
);
width = 561;
},
{
anchors = (
{
name = bottom;
position = "{304, 0}";
},
{
name = top;
position = "{304, 498}";
}
);
background = {
paths = (
{
closed = 1;
nodes = (
"450 0 LINE",
"558 108 LINE",
"558 390 LINE",
"450 498 LINE",
"255 498 LINE",
"192 435 LINE",
"192 714 LINE",
"60 714 LINE",
"60 108 LINE",
"168 0 LINE"
);
},
{
closed = 1;
nodes = (
"192 147 LINE",
"192 292 LINE",
"284 384 LINE",
"393 384 LINE",
"426 351 LINE",
"426 147 LINE",
"393 114 LINE",
"225 114 LINE"
);
}
);
};
layerId = "D6105F7E-CAE1-4F7B-A52E-8AA6E6082DF8";
paths = (
{
closed = 1;
nodes = (
"450 0 LINE",
"558 108 LINE",
"558 390 LINE",
"450 498 LINE",
"255 498 LINE",
"192 435 LINE",
"192 714 LINE",
"60 714 LINE",
"60 108 LINE",
"168 0 LINE"
);
},
{
closed = 1;
nodes = (
"192 149 LINE",
"192 292 LINE",
"284 384 LINE",
"391 384 LINE",
"426 349 LINE",
"426 149 LINE",
"391 114 LINE",
"227 114 LINE"
);
}
);
width = 608;
},
{
anchors = (
{
name = bottom;
position = "{289, 0}";
},
{
name = top;
position = "{289, 498}";
}
);
layerId = "3C986DA2-2E28-42A4-B05D-29F449A87569";
paths = (
{
closed = 1;
nodes = (
"421 0 LINE",
"513 92 LINE",
"513 406 LINE",
"421 498 LINE",
"246 498 LINE",
"149 401 LINE",
"149 714 LINE",
"75 714 LINE",
"75 92 LINE",
"167 0 LINE"
);
},
{
closed = 1;
nodes = (
"149 115 LINE",
"149 314 LINE",
"267 432 LINE",
"389 432 LINE",
"439 383 LINE",
"439 115 LINE",
"389 66 LINE",
"199 66 LINE"
);
}
);
width = 578;
}
);
leftMetricsKey = n;
note = b;
rightKerningGroup = o;
rightMetricsKey = o;
unicode = 0062;
},
{
glyphname = c;
lastChange = "2018-05-03 08:39:30 +0000";
layers = (
{
anchors = (
{
name = bottom;
position = "{274, 0}";
},
{
name = top;
position = "{269, 498}";
}
);
background = {
paths = (
{
closed = 1;
nodes = (
"380 0 LINE",
"462 82 LINE",
"462 123 LINE",
"424 123 LINE",
"424 94 LINE",
"365 36 LINE",
"172 36 LINE",
"113 94 LINE",
"113 404 LINE",
"172 462 LINE",
"365 462 LINE",
"424 404 LINE",
"424 375 LINE",
"462 375 LINE",
"462 416 LINE",
"380 498 LINE",
"157 498 LINE",
"75 416 LINE",
"75 82 LINE",
"157 0 LINE"
);
}
);
};
layerId = "39D11A97-A6D9-4B52-A6F5-15D5E4373676";
paths = (
{
closed = 1;
nodes = (
"380 0 LINE",
"462 82 LINE",
"462 123 LINE",
"424 123 LINE",
"424 94 LINE",
"365 36 LINE",
"172 36 LINE",
"113 94 LINE",
"113 404 LINE",
"172 462 LINE",
"365 462 LINE",
"424 404 LINE",
"424 375 LINE",
"462 375 LINE",
"462 416 LINE",
"380 498 LINE",
"157 498 LINE",
"75 416 LINE",
"75 82 LINE",
"157 0 LINE"
);
}
);
width = 517;
},
{
anchors = (
{
name = bottom;
position = "{297, 0}";
},
{
name = top;
position = "{292, 498}";
}
);
background = {
paths = (
{
closed = 1;
nodes = (
"426 0 LINE",
"534 108 LINE",
"534 201 LINE",
"402 201 LINE",
"402 147 LINE",
"369 114 LINE",
"215 114 LINE",
"182 147 LINE",
"182 351 LINE",
"215 384 LINE",
"369 384 LINE",
"402 351 LINE",
"402 297 LINE",
"534 297 LINE",
"534 390 LINE",
"426 498 LINE",
"158 498 LINE",
"50 390 LINE",
"50 108 LINE",
"158 0 LINE"
);
}
);
};
layerId = "D6105F7E-CAE1-4F7B-A52E-8AA6E6082DF8";
paths = (
{
closed = 1;
nodes = (
"426 0 LINE",
"534 108 LINE",
"534 201 LINE",
"402 201 LINE",
"402 149 LINE",
"367 114 LINE",
"217 114 LINE",
"182 149 LINE",
"182 349 LINE",
"217 384 LINE",
"367 384 LINE",
"402 349 LINE",
"402 297 LINE",
"534 297 LINE",
"534 390 LINE",
"426 498 LINE",
"158 498 LINE",
"50 390 LINE",
"50 108 LINE",
"158 0 LINE"
);
}
);
width = 564;
},
{
anchors = (
{
name = bottom;
position = "{282, 0}";
},
{
name = top;
position = "{277, 498}";
}
);
layerId = "3C986DA2-2E28-42A4-B05D-29F449A87569";
paths = (
{
closed = 1;
nodes = (
"397 0 LINE",
"489 92 LINE",
"489 153 LINE",
"415 153 LINE",
"415 115 LINE",
"365 66 LINE",
"189 66 LINE",
"139 115 LINE",
"139 383 LINE",
"189 432 LINE",
"365 432 LINE",
"415 383 LINE",
"415 345 LINE",
"489 345 LINE",
"489 406 LINE",
"397 498 LINE",
"157 498 LINE",
"65 406 LINE",
"65 92 LINE",
"157 0 LINE"
);
}
);
width = 534;
}
);
leftKerningGroup = o;
leftMetricsKey = o;
note = c;
rightKerningGroup = c;
unicode = 0063;
},
{
glyphname = d;
lastChange = "2018-05-03 08:39:17 +0000";
layers = (
{
anchors = (
{
name = bottom;
position = "{282, 0}";
},
{
name = center;
position = "{282, 249}";
},
{
name = top;
position = "{282, 498}";
},
{
name = topright;
position = "{552, 498}";
}
);
background = {
paths = (
{
closed = 1;
nodes = (
"336 0 LINE",
"438 103 LINE",
"438 0 LINE",
"478 0 LINE",
"478 714 LINE",
"440 714 LINE",
"440 411 LINE",
"339 498 LINE",
"157 498 LINE",
"75 416 LINE",
"75 82 LINE",
"157 0 LINE"
);
},
{
closed = 1;
nodes = (
"113 94 LINE",
"113 404 LINE",
"172 462 LINE",
"328 462 LINE",
"440 363 LINE",
"440 155 LINE",
"321 36 LINE",
"172 36 LINE"
);
}
);
};
layerId = "39D11A97-A6D9-4B52-A6F5-15D5E4373676";
paths = (
{
closed = 1;
nodes = (
"334 0 LINE",
"440 106 LINE",
"440 0 LINE",
"478 0 LINE",
"478 714 LINE",
"440 714 LINE",
"440 412 LINE",
"339 498 LINE",
"157 498 LINE",
"75 416 LINE",
"75 82 LINE",
"157 0 LINE"
);
},
{
closed = 1;
nodes = (
"113 94 LINE",
"113 404 LINE",
"172 462 LINE",
"326 462 LINE",
"440 365 LINE",
"440 155 LINE",
"321 36 LINE",
"172 36 LINE"
);
}
);
width = 563;
},
{
anchors = (
{
name = bottom;
position = "{305, 0}";
},
{
name = center;
position = "{305, 249}";
},
{
name = top;
position = "{305, 498}";
},
{
name = topright;
position = "{575, 498}";
}
);
background = {
anchors = (
{
name = bottom;
position = "{305, 0}";
},
{
name = center;
position = "{305, 249}";
},
{
name = top;
position = "{305, 498}";
},
{
name = topright;
position = "{575, 498}";
}
);
paths = (
{
closed = 1;
nodes = (
"426 0 LINE",
"550 0 LINE",
"550 714 LINE",
"418 714 LINE",
"418 451 LINE",
"366 498 LINE",
"158 498 LINE",
"50 390 LINE",
"50 108 LINE",
"158 0 LINE",
"361 0 LINE",
"426 65 LINE"
);
},
{
closed = 1;
nodes = (
"337 114 LINE",
"215 114 LINE",
"182 147 LINE",
"182 351 LINE",
"215 384 LINE",
"348 384 LINE",
"418 323 LINE",
"418 193 LINE"
);
}
);
};
layerId = "D6105F7E-CAE1-4F7B-A52E-8AA6E6082DF8";
paths = (
{
closed = 1;
nodes = (
"353 0 LINE",
"426 71 LINE",
"426 0 LINE",
"550 0 LINE",
"550 714 LINE",
"418 714 LINE",
"418 451 LINE",
"366 498 LINE",
"158 498 LINE",
"50 390 LINE",
"50 108 LINE",
"158 0 LINE"
);
},
{
closed = 1;
nodes = (
"182 149 LINE",
"182 349 LINE",
"217 384 LINE",
"348 384 LINE",
"418 323 LINE",
"418 197 LINE",
"335 114 LINE",
"217 114 LINE"
);
}
);
width = 610;
},
{
anchors = (
{
name = bottom;
position = "{290, 0}";
},
{
name = center;
position = "{290, 249}";
},
{
name = top;
position = "{290, 498}";
},
{
name = topright;
position = "{560, 498}";
}
);
layerId = "3C986DA2-2E28-42A4-B05D-29F449A87569";
paths = (
{
closed = 1;
nodes = (
"342 0 LINE",
"433 91 LINE",
"433 0 LINE",
"505 0 LINE",
"505 714 LINE",
"431 714 LINE",
"431 426 LINE",
"349 498 LINE",
"157 498 LINE",
"65 406 LINE",
"65 92 LINE",
"157 0 LINE"
);
},
{
closed = 1;
nodes = (
"139 115 LINE",
"139 383 LINE",
"189 432 LINE",
"335 432 LINE",
"431 348 LINE",
"431 171 LINE",
"326 66 LINE",
"189 66 LINE"
);
}
);
width = 580;
}
);
leftKerningGroup = o;
leftMetricsKey = o;
note = d;
rightMetricsKey = u;
unicode = 0064;
},
{
glyphname = e;
lastChange = "2018-05-03 08:37:28 +0000";
layers = (
{
anchors = (
{
name = bottom;
position = "{275, 0}";
},
{
name = ogonek;
position = "{400, 0}";
},
{
name = top;
position = "{275, 498}";
}
);
background = {
paths = (
{
closed = 1;
nodes = (
"390 0 LINE",
"473 83 LINE",
"473 144 LINE",
"435 144 LINE",
"435 99 LINE",
"373 39 LINE",
"174 39 LINE",
"113 98 LINE",
"113 240 LINE",
"474 240 LINE",
"474 416 LINE",
"391 498 LINE",
"157 498 LINE",
"75 416 LINE",
"75 82 LINE",
"157 0 LINE"
);
},
{
closed = 1;
nodes = (
"113 399 LINE",
"174 458 LINE",
"375 458 LINE",
"436 399 LINE",
"436 287 LINE",
"113 287 LINE"
);
}
);
};
layerId = "39D11A97-A6D9-4B52-A6F5-15D5E4373676";
paths = (
{
closed = 1;
nodes = (
"390 0 LINE",
"473 83 LINE",
"473 144 LINE",
"435 144 LINE",
"435 96 LINE",
"373 36 LINE",
"174 36 LINE",
"113 97 LINE",
"113 240 LINE",
"474 240 LINE",
"474 416 LINE",
"391 498 LINE",
"157 498 LINE",
"75 416 LINE",
"75 82 LINE",
"157 0 LINE"
);
},
{
closed = 1;
nodes = (
"113 402 LINE",
"173 462 LINE",
"376 462 LINE",
"436 402 LINE",
"436 275 LINE",
"113 275 LINE"
);
}
);
width = 544;
},
{
anchors = (
{
name = bottom;
position = "{298, 0}";
},
{
name = ogonek;
position = "{423, 0}";
},
{
name = top;
position = "{298, 498}";
}
);
background = {
paths = (
{
closed = 1;
nodes = (
"439 0 LINE",
"545 106 LINE",
"545 173 LINE",
"413 173 LINE",
"413 143 LINE",
"382 112 LINE",
"215 112 LINE",
"182 145 LINE",
"182 204 LINE",
"546 204 LINE",
"546 390 LINE",
"437 498 LINE",
"158 498 LINE",
"50 390 LINE",
"50 108 LINE",
"158 0 LINE"
);
},
{
closed = 1;
nodes = (
"182 355 LINE",
"215 388 LINE",
"381 388 LINE",
"414 355 LINE",
"414 296 LINE",
"182 296 LINE"
);
}
);
};
layerId = "D6105F7E-CAE1-4F7B-A52E-8AA6E6082DF8";
paths = (
{
closed = 1;
nodes = (
"439 0 LINE",
"545 106 LINE",
"545 171 LINE",
"413 171 LINE",
"413 141 LINE",
"382 110 LINE",
"215 110 LINE",
"182 143 LINE",
"182 206 LINE",
"546 206 LINE",
"546 390 LINE",
"437 498 LINE",
"158 498 LINE",
"50 390 LINE",
"50 108 LINE",
"158 0 LINE"
);
},
{
closed = 1;
nodes = (
"182 357 LINE",
"215 390 LINE",
"381 390 LINE",
"414 357 LINE",
"414 298 LINE",
"182 298 LINE"
);
}
);
width = 591;
},
{
anchors = (
{
name = bottom;
position = "{283, 0}";
},
{
name = ogonek;
position = "{408, 0}";
},
{
name = top;
position = "{283, 498}";
}
);
layerId = "3C986DA2-2E28-42A4-B05D-29F449A87569";
paths = (
{
closed = 1;
nodes = (
"408 0 LINE",
"500 92 LINE",
"500 154 LINE",
"426 154 LINE",
"426 115 LINE",
"376 66 LINE",
"189 66 LINE",
"139 115 LINE",
"139 227 LINE",
"501 227 LINE",
"501 406 LINE",
"408 498 LINE",
"157 498 LINE",
"65 406 LINE",
"65 92 LINE",
"157 0 LINE"
);
},
{
closed = 1;
nodes = (
"139 383 LINE",
"189 432 LINE",
"377 432 LINE",
"427 383 LINE",
"427 291 LINE",
"139 291 LINE"
);
}
);
width = 561;
}
);
leftKerningGroup = o;
leftMetricsKey = o;
note = e;
rightKerningGroup = e;
unicode = 0065;
},
{
glyphname = f;
lastChange = "2018-05-03 08:35:38 +0000";
layers = (
{
anchors = (
{
name = bottom;
position = "{180, 0}";
},
{
name = top;
position = "{180, 498}";
}
);
background = {
paths = (
{
closed = 1;
nodes = (
"167 0 LINE",
"167 460 LINE",
"324 460 LINE",
"324 498 LINE",
"167 498 LINE",
"167 607 LINE",
"222 660 LINE",
"324 660 LINE",
"324 696 LINE",
"207 696 LINE",
"129 618 LINE",
"129 498 LINE",
"40 498 LINE",
"40 460 LINE",
"129 460 LINE",
"129 0 LINE"
);
}
);
};
layerId = "39D11A97-A6D9-4B52-A6F5-15D5E4373676";
paths = (
{
closed = 1;
nodes = (
"167 0 LINE",
"167 463 LINE",
"324 463 LINE",
"324 498 LINE",
"167 498 LINE",
"167 605 LINE",
"222 660 LINE",
"324 660 LINE",
"324 696 LINE",
"207 696 LINE",
"129 618 LINE",
"129 498 LINE",
"40 498 LINE",
"40 463 LINE",
"129 463 LINE",
"129 0 LINE"
);
}
);
width = 359;
},
{
anchors = (
{
name = bottom;
position = "{203, 0}";
},
{
name = top;
position = "{203, 498}";
}
);
background = {
paths = (
{
closed = 1;
nodes = (
"239 0 LINE",
"239 384 LINE",
"396 384 LINE",
"396 498 LINE",
"239 498 LINE",
"239 556 LINE",
"267 584 LINE",
"396 584 LINE",
"396 696 LINE",
"208 696 LINE",
"107 595 LINE",
"107 498 LINE",
"15 498 LINE",
"15 384 LINE",
"107 384 LINE",
"107 0 LINE"
);
}
);
};
layerId = "D6105F7E-CAE1-4F7B-A52E-8AA6E6082DF8";
paths = (
{
closed = 1;
nodes = (
"239 0 LINE",
"239 386 LINE",
"396 386 LINE",
"396 498 LINE",
"239 498 LINE",
"239 558 LINE",
"267 586 LINE",
"396 586 LINE",
"396 696 LINE",
"208 696 LINE",
"107 595 LINE",
"107 498 LINE",
"15 498 LINE",
"15 386 LINE",
"107 386 LINE",
"107 0 LINE"
);
}
);
width = 406;
},
{
anchors = (
{
name = bottom;
position = "{188, 0}";
},
{
name = top;
position = "{188, 498}";
}
);
layerId = "3C986DA2-2E28-42A4-B05D-29F449A87569";
paths = (
{
closed = 1;
nodes = (
"194 0 LINE",
"194 432 LINE",
"351 432 LINE",
"351 498 LINE",
"194 498 LINE",
"194 588 LINE",
"239 632 LINE",
"351 632 LINE",
"351 696 LINE",
"207 696 LINE",
"120 609 LINE",
"120 498 LINE",
"30 498 LINE",
"30 432 LINE",
"120 432 LINE",
"120 0 LINE"
);
}
);
width = 376;
}
);
leftKerningGroup = f;
note = f;
unicode = 0066;
},
{
glyphname = g;
lastChange = "2018-05-03 08:37:46 +0000";
layers = (
{
anchors = (
{
name = bottom;
position = "{280, 0}";
},
{
name = top;
position = "{280, 498}";
}
);
background = {
paths = (
{
closed = 1;
nodes = (
"398 -216 LINE",
"478 -135 LINE",
"478 498 LINE",
"438 498 LINE",
"438 399 LINE",
"340 498 LINE",
"157 498 LINE",
"75 416 LINE",
"75 82 LINE",
"157 0 LINE",
"332 0 LINE",
"440 97 LINE",
"440 -121 LINE",
"381 -179 LINE",
"159 -179 LINE",
"159 -216 LINE"
);
},
{
closed = 1;
nodes = (
"113 94 LINE",
"113 404 LINE",
"172 462 LINE",
"319 462 LINE",
"440 341 LINE",
"440 149 LINE",
"317 36 LINE",
"172 36 LINE"
);
}
);
};
layerId = "39D11A97-A6D9-4B52-A6F5-15D5E4373676";
paths = (
{
closed = 1;
nodes = (
"398 -216 LINE",
"478 -135 LINE",
"478 498 LINE",
"440 498 LINE",
"440 390 LINE",
"334 498 LINE",
"157 498 LINE",
"75 416 LINE",
"75 82 LINE",
"157 0 LINE",
"332 0 LINE",
"440 97 LINE",
"440 -121 LINE",
"381 -179 LINE",
"159 -179 LINE",
"159 -216 LINE"
);
},
{
closed = 1;
nodes = (
"113 94 LINE",
"113 404 LINE",
"172 462 LINE",
"319 462 LINE",
"440 341 LINE",
"440 146 LINE",
"319 36 LINE",
"172 36 LINE"
);
}
);
width = 563;
},
{
anchors = (
{
name = bottom;
position = "{303, 0}";
},
{
name = top;
position = "{303, 498}";
}
);
background = {
paths = (
{
closed = 1;
nodes = (
"441 -221 LINE",
"550 -114 LINE",
"550 498 LINE",
"426 498 LINE",
"426 435 LINE",
"363 498 LINE",
"158 498 LINE",
"50 390 LINE",
"50 108 LINE",
"158 0 LINE",
"357 0 LINE",
"418 55 LINE",
"418 -74 LINE",
"383 -109 LINE",
"134 -109 LINE",
"134 -221 LINE"
);
},
{
closed = 1;
nodes = (
"182 147 LINE",
"182 351 LINE",
"215 384 LINE",
"339 384 LINE",
"418 305 LINE",
"418 185 LINE",
"344 114 LINE",
"215 114 LINE"
);
}
);
};
layerId = "D6105F7E-CAE1-4F7B-A52E-8AA6E6082DF8";
paths = (
{
closed = 1;
nodes = (
"441 -221 LINE",
"550 -114 LINE",
"550 498 LINE",
"426 498 LINE",
"426 430 LINE",
"357 498 LINE",
"158 498 LINE",
"50 390 LINE",
"50 108 LINE",
"158 0 LINE",
"352 0 LINE",
"418 60 LINE",
"418 -74 LINE",
"383 -109 LINE",
"134 -109 LINE",
"134 -221 LINE"
);
},
{
closed = 1;
nodes = (
"182 149 LINE",
"182 349 LINE",
"217 384 LINE",
"339 384 LINE",
"418 305 LINE",
"418 185 LINE",
"344 114 LINE",
"217 114 LINE"
);
}
);
width = 610;
},
{
anchors = (
{
name = bottom;
position = "{288, 0}";
},
{
name = top;
position = "{288, 498}";
}
);
layerId = "3C986DA2-2E28-42A4-B05D-29F449A87569";
paths = (
{
closed = 1;
nodes = (
"414 -218 LINE",
"505 -127 LINE",
"505 498 LINE",
"433 498 LINE",
"433 411 LINE",
"346 498 LINE",
"157 498 LINE",
"65 406 LINE",
"65 92 LINE",
"157 0 LINE",
"339 0 LINE",
"431 83 LINE",
"431 -103 LINE",
"381 -152 LINE",
"149 -152 LINE",
"149 -218 LINE"
);
},
{
closed = 1;
nodes = (
"139 115 LINE",
"139 383 LINE",
"189 432 LINE",
"326 432 LINE",
"431 327 LINE",
"431 163 LINE",
"327 66 LINE",
"189 66 LINE"
);
}
);
width = 580;
}
);
leftKerningGroup = o;
leftMetricsKey = o;
note = g;
rightKerningGroup = u;
rightMetricsKey = u;
unicode = 0067;
},
{
glyphname = h;
lastChange = "2018-05-03 08:29:43 +0000";
layers = (
{
anchors = (
{
name = bottom;
position = "{279, 0}";
},
{
name = center;
position = "{279, 249}";
},
{
name = top;
position = "{281, 700}";
}
);
background = {
paths = (
{
closed = 1;
nodes = (
"123 0 LINE",
"123 322 LINE",
"263 462 LINE",
"376 462 LINE",
"435 404 LINE",
"435 0 LINE",
"473 0 LINE",
"473 416 LINE",
"391 498 LINE",
"247 498 LINE",
"123 374 LINE",
"123 724 LINE",
"85 724 LINE",
"85 0 LINE"
);
}
);
};
layerId = "39D11A97-A6D9-4B52-A6F5-15D5E4373676";
paths = (
{
closed = 1;
nodes = (
"123 0 LINE",
"123 323 LINE",
"263 462 LINE",
"376 462 LINE",
"435 404 LINE",
"435 0 LINE",
"473 0 LINE",
"473 416 LINE",
"391 498 LINE",
"248 498 LINE",
"123 372 LINE",
"123 724 LINE",
"85 724 LINE",
"85 0 LINE"
);
}
);
width = 553;
},
{
anchors = (
{
name = bottom;
position = "{302, 0}";
},
{
name = center;
position = "{302, 249}";
},
{
name = top;
position = "{304, 700}";
}
);
background = {
paths = (
{
closed = 1;
nodes = (
"192 0 LINE",
"192 286 LINE",
"290 384 LINE",
"378 384 LINE",
"413 349 LINE",
"413 0 LINE",
"545 0 LINE",
"545 390 LINE",
"437 498 LINE",
"264 498 LINE",
"192 426 LINE",
"192 724 LINE",
"60 724 LINE",
"60 0 LINE"
);
}
);
};
layerId = "D6105F7E-CAE1-4F7B-A52E-8AA6E6082DF8";
paths = (
{
closed = 1;
nodes = (
"192 0 LINE",
"192 286 LINE",
"290 384 LINE",
"378 384 LINE",
"413 349 LINE",
"413 0 LINE",
"545 0 LINE",
"545 390 LINE",
"437 498 LINE",
"264 498 LINE",
"192 426 LINE",
"192 724 LINE",
"60 724 LINE",
"60 0 LINE"
);
}
);
width = 600;
},
{
anchors = (
{
name = bottom;
position = "{287, 0}";
},
{
name = center;
position = "{287, 249}";
},
{
name = top;
position = "{289, 700}";
}
);
layerId = "3C986DA2-2E28-42A4-B05D-29F449A87569";
paths = (
{
closed = 1;
nodes = (
"149 0 LINE",
"149 308 LINE",
"273 432 LINE",
"376 432 LINE",
"426 383 LINE",
"426 0 LINE",
"500 0 LINE",
"500 406 LINE",
"408 498 LINE",
"253 498 LINE",
"149 394 LINE",
"149 724 LINE",
"75 724 LINE",
"75 0 LINE"
);
}
);
width = 570;
}
);
leftMetricsKey = n;
note = h;
rightKerningGroup = n;
rightMetricsKey = n;
unicode = 0068;
},
{
glyphname = i;
lastChange = "2018-05-03 07:17:09 +0000";
layers = (
{
anchors = (
{
name = bottom;
position = "{115, 0}";
},
{
name = ogonek;
position = "{152, 0}";
}
);
background = {
paths = (
{
closed = 1;
nodes = (
"145 0 LINE",
"145 498 LINE",
"71 498 LINE",
"71 0 LINE"
);
},
{
closed = 1;
nodes = (
"86 700 LINE",
"56 670 LINE",
"56 626 LINE",
"86 596 LINE",
"130 596 LINE",
"160 626 LINE",
"160 670 LINE",
"130 700 LINE"
);
}
);
};
layerId = "39D11A97-A6D9-4B52-A6F5-15D5E4373676";
paths = (
{
closed = 1;
nodes = (
"133 0 LINE",
"133 498 LINE",
"95 498 LINE",
"95 0 LINE"
);
},
{
closed = 1;
nodes = (
"128 598 LINE",
"148 618 LINE",
"148 650 LINE",
"128 670 LINE",
"100 670 LINE",
"80 650 LINE",
"80 618 LINE",
"100 598 LINE"
);
}
);
width = 228;
},
{
anchors = (
{
name = bottom;
position = "{135, 0}";
},
{
name = ogonek;
position = "{172, 0}";
}
);
background = {
paths = (
{
closed = 1;
nodes = (
"202 0 LINE",
"202 498 LINE",
"68 498 LINE",
"68 0 LINE"
);
},
{
closed = 1;
nodes = (
"99 712 LINE",
"53 666 LINE",
"53 602 LINE",
"99 556 LINE",
"171 556 LINE",
"217 602 LINE",
"217 666 LINE",
"171 712 LINE"
);
}
);
};
layerId = "D6105F7E-CAE1-4F7B-A52E-8AA6E6082DF8";
paths = (
{
closed = 1;
nodes = (
"202 0 LINE",
"202 498 LINE",
"70 498 LINE",
"70 0 LINE"
);
},
{
closed = 1;
nodes = (
"171 556 LINE",
"217 602 LINE",
"217 666 LINE",
"171 712 LINE",
"101 712 LINE",
"55 666 LINE",
"55 602 LINE",
"101 556 LINE"
);
}
);
width = 272;
},
{
anchors = (
{
name = bottom;
position = "{122, 0}";
},
{
name = ogonek;
position = "{159, 0}";
}
);
layerId = "3C986DA2-2E28-42A4-B05D-29F449A87569";
paths = (
{
closed = 1;
nodes = (
"159 0 LINE",
"159 498 LINE",
"85 498 LINE",
"85 0 LINE"
);
},
{
closed = 1;
nodes = (
"100 686 LINE",
"70 656 LINE",
"70 612 LINE",
"100 582 LINE",
"144 582 LINE",
"174 612 LINE",
"174 656 LINE",
"144 686 LINE"
);
}
);
width = 244;
}
);
note = i;
unicode = 0069;
},
{
glyphname = j;
lastChange = "2018-05-03 08:29:10 +0000";
layers = (
{
background = {
paths = (
{
closed = 1;
nodes = (
"67 -218 LINE",
"148 -137 LINE",
"148 498 LINE",
"110 498 LINE",
"110 -124 LINE",
"51 -182 LINE",
"-40 -182 LINE",
"-40 -218 LINE"
);
},
{
closed = 1;
nodes = (
"143 598 LINE",
"163 618 LINE",
"163 650 LINE",
"143 670 LINE",
"115 670 LINE",
"95 650 LINE",
"95 618 LINE",
"115 598 LINE"
);
}
);
};
layerId = "39D11A97-A6D9-4B52-A6F5-15D5E4373676";
paths = (
{
closed = 1;
nodes = (
"67 -218 LINE",
"148 -137 LINE",
"148 498 LINE",
"110 498 LINE",
"110 -122 LINE",
"50 -182 LINE",
"-40 -182 LINE",
"-40 -218 LINE"
);
},
{
closed = 1;
nodes = (
"143 598 LINE",
"163 618 LINE",
"163 650 LINE",
"143 670 LINE",
"115 670 LINE",
"95 650 LINE",
"95 618 LINE",
"115 598 LINE"
);
}
);
width = 243;
},
{
background = {
paths = (
{
closed = 1;
nodes = (
"110 -218 LINE",
"217 -111 LINE",
"217 498 LINE",
"85 498 LINE",
"85 -69 LINE",
"50 -104 LINE",
"-65 -104 LINE",
"-65 -218 LINE"
);
},
{
closed = 1;
nodes = (
"186 556 LINE",
"232 602 LINE",
"232 666 LINE",
"186 712 LINE",
"116 712 LINE",
"70 666 LINE",
"70 602 LINE",
"116 556 LINE"
);
}
);
};
layerId = "D6105F7E-CAE1-4F7B-A52E-8AA6E6082DF8";
paths = (
{
closed = 1;
nodes = (
"110 -218 LINE",
"217 -111 LINE",
"217 498 LINE",
"85 498 LINE",
"85 -69 LINE",
"50 -104 LINE",
"-65 -104 LINE",
"-65 -218 LINE"
);
},
{
closed = 1;
nodes = (
"186 556 LINE",
"232 602 LINE",
"232 666 LINE",
"186 712 LINE",
"116 712 LINE",
"70 666 LINE",
"70 602 LINE",
"116 556 LINE"
);
}
);
width = 287;
},
{
layerId = "3C986DA2-2E28-42A4-B05D-29F449A87569";
paths = (
{
closed = 1;
nodes = (
"83 -218 LINE",
"174 -127 LINE",
"174 498 LINE",
"100 498 LINE",
"100 -103 LINE",
"50 -152 LINE",
"-50 -152 LINE",
"-50 -218 LINE"
);
},
{
closed = 1;
nodes = (
"159 582 LINE",
"189 612 LINE",
"189 656 LINE",
"159 686 LINE",
"115 686 LINE",
"85 656 LINE",
"85 612 LINE",
"115 582 LINE"
);
}
);
width = 259;
}
);
leftKerningGroup = j;
note = j;
unicode = 006A;
},
{
glyphname = k;
lastChange = "2018-05-03 08:28:34 +0000";
layers = (
{
anchors = (
{
name = bottom;
position = "{266, 0}";
},
{
name = top;
position = "{259, 498}";
}
);
background = {
paths = (
{
closed = 1;
nodes = (
"123 0 LINE",
"123 241 LINE",
"257 241 LINE",
"422 0 LINE",
"463 0 LINE",
"287 258 LINE",
"453 498 LINE",
"412 498 LINE",
"255 277 LINE",
"123 277 LINE",
"123 724 LINE",
"85 724 LINE",
"85 0 LINE"
);
}
);
};
layerId = "39D11A97-A6D9-4B52-A6F5-15D5E4373676";
paths = (
{
closed = 1;
nodes = (
"123 0 LINE",
"123 241 LINE",
"254 241 LINE",
"419 0 LINE",
"463 0 LINE",
"287 258 LINE",
"453 498 LINE",
"409 498 LINE",
"256 277 LINE",
"123 277 LINE",
"123 724 LINE",
"85 724 LINE",
"85 0 LINE"
);
}
);
width = 493;
},
{
anchors = (
{
name = bottom;
position = "{289, 0}";
},
{
name = top;
position = "{282, 498}";
}
);
background = {
paths = (
{
closed = 1;
nodes = (
"192 0 LINE",
"192 202 LINE",
"284 202 LINE",
"426 0 LINE",
"572 0 LINE",
"390 258 LINE",
"562 498 LINE",
"416 498 LINE",
"287 316 LINE",
"192 316 LINE",
"192 724 LINE",
"60 724 LINE",
"60 0 LINE"
);
}
);
};
layerId = "D6105F7E-CAE1-4F7B-A52E-8AA6E6082DF8";
paths = (
{
closed = 1;
nodes = (
"192 0 LINE",
"192 202 LINE",
"282 202 LINE",
"424 0 LINE",
"572 0 LINE",
"390 258 LINE",
"562 498 LINE",
"414 498 LINE",
"285 316 LINE",
"192 316 LINE",
"192 724 LINE",
"60 724 LINE",
"60 0 LINE"
);
}
);
width = 577;
},
{
anchors = (
{
name = bottom;
position = "{274, 0}";
},
{
name = top;
position = "{267, 498}";
}
);
layerId = "3C986DA2-2E28-42A4-B05D-29F449A87569";
paths = (
{
closed = 1;
nodes = (
"149 0 LINE",
"149 226 LINE",
"266 226 LINE",
"422 0 LINE",
"504 0 LINE",
"326 258 LINE",
"494 498 LINE",
"412 498 LINE",
"266 292 LINE",
"149 292 LINE",
"149 724 LINE",
"75 724 LINE",
"75 0 LINE"
);
}
);
width = 524;
}
);
leftMetricsKey = n;
note = k;
rightKerningGroup = k;
unicode = 006B;
},
{
glyphname = l;
lastChange = "2018-05-03 08:26:34 +0000";
layers = (
{
anchors = (
{
name = bottom;
position = "{110, 0}";
},
{
name = center;
position = "{110, 249}";
},
{
name = top;
position = "{110, 724}";
},
{
name = topright;
position = "{212, 498}";
}
);
background = {
paths = (
{
closed = 1;
nodes = (
"128 0 LINE",
"128 724 LINE",
"90 724 LINE",
"90 0 LINE"
);
}
);
};
layerId = "39D11A97-A6D9-4B52-A6F5-15D5E4373676";
paths = (
{
closed = 1;
nodes = (
"128 0 LINE",
"128 724 LINE",
"90 724 LINE",
"90 0 LINE"
);
}
);
width = 218;
},
{
anchors = (
{
name = bottom;
position = "{130, 0}";
},
{
name = center;
position = "{130, 249}";
},
{
name = top;
position = "{130, 724}";
},
{
name = topright;
position = "{232, 498}";
}
);
layerId = "D6105F7E-CAE1-4F7B-A52E-8AA6E6082DF8";
paths = (
{
closed = 1;
nodes = (
"197 0 LINE",
"197 724 LINE",
"65 724 LINE",
"65 0 LINE"
);
}
);
width = 262;
},
{
anchors = (
{
name = bottom;
position = "{117, 0}";
},
{
name = center;
position = "{117, 249}";
},
{
name = top;
position = "{117, 724}";
},
{
name = topright;
position = "{219, 498}";
}
);
layerId = "3C986DA2-2E28-42A4-B05D-29F449A87569";
paths = (
{
closed = 1;
nodes = (
"154 0 LINE",
"154 724 LINE",
"80 724 LINE",
"80 0 LINE"
);
}
);
width = 234;
}
);
note = l;
unicode = 006C;
},
{
glyphname = m;
lastChange = "2018-05-03 08:11:43 +0000";
layers = (
{
anchors = (
{
name = bottom;
position = "{399, 0}";
},
{
name = top;
position = "{391, 498}";
}
);
background = {
paths = (
{
closed = 1;
nodes = (
"123 0 LINE",
"123 340 LINE",
"245 462 LINE",
"330 462 LINE",
"399 393 LINE",
"399 0 LINE",
"437 0 LINE",
"437 382 LINE",
"517 462 LINE",
"643 462 LINE",
"702 404 LINE",
"702 0 LINE",
"740 0 LINE",
"740 416 LINE",
"658 498 LINE",
"512 498 LINE",
"428 414 LINE",
"345 498 LINE",
"232 498 LINE",
"123 389 LINE",
"123 498 LINE",
"85 498 LINE",
"85 0 LINE"
);
}
);
};
layerId = "39D11A97-A6D9-4B52-A6F5-15D5E4373676";
paths = (
{
closed = 1;
nodes = (
"123 0 LINE",
"123 341 LINE",
"244 462 LINE",
"329 462 LINE",
"399 392 LINE",
"399 0 LINE",
"437 0 LINE",
"437 381 LINE",
"518 462 LINE",
"643 462 LINE",
"702 404 LINE",
"702 0 LINE",
"740 0 LINE",
"740 416 LINE",
"658 498 LINE",
"506 498 LINE",
"425 417 LINE",
"345 498 LINE",
"232 498 LINE",
"123 389 LINE",
"123 498 LINE",
"85 498 LINE",
"85 0 LINE"
);
}
);
width = 820;
},
{
anchors = (
{
name = bottom;
position = "{422, 0}";
},
{
name = top;
position = "{414, 498}";
}
);
background = {
paths = (
{
closed = 1;
nodes = (
"184 420 LINE",
"184 498 LINE",
"60 498 LINE",
"60 0 LINE",
"192 0 LINE",
"192 292 LINE",
"284 384 LINE",
"345 384 LINE",
"378 351 LINE",
"378 0 LINE",
"506 0 LINE",
"506 330 LINE",
"560 384 LINE",
"645 384 LINE",
"680 349 LINE",
"680 0 LINE",
"812 0 LINE",
"812 390 LINE",
"704 498 LINE",
"529 498 LINE",
"460 429 LINE",
"391 498 LINE",
"262 498 LINE"
);
}
);
};
layerId = "D6105F7E-CAE1-4F7B-A52E-8AA6E6082DF8";
paths = (
{
closed = 1;
nodes = (
"192 0 LINE",
"192 292 LINE",
"284 384 LINE",
"345 384 LINE",
"378 351 LINE",
"378 0 LINE",
"506 0 LINE",
"506 330 LINE",
"560 384 LINE",
"645 384 LINE",
"680 349 LINE",
"680 0 LINE",
"812 0 LINE",
"812 390 LINE",
"704 498 LINE",
"529 498 LINE",
"460 429 LINE",
"391 498 LINE",
"262 498 LINE",
"184 420 LINE",
"184 498 LINE",
"60 498 LINE",
"60 0 LINE"
);
}
);
width = 867;
},
{
anchors = (
{
name = bottom;
position = "{407, 0}";
},
{
name = top;
position = "{399, 498}";
}
);
layerId = "3C986DA2-2E28-42A4-B05D-29F449A87569";
paths = (
{
closed = 1;
nodes = (
"149 0 LINE",
"149 324 LINE",
"257 432 LINE",
"341 432 LINE",
"391 383 LINE",
"391 0 LINE",
"463 0 LINE",
"463 362 LINE",
"533 432 LINE",
"643 432 LINE",
"693 383 LINE",
"693 0 LINE",
"767 0 LINE",
"767 406 LINE",
"675 498 LINE",
"518 498 LINE",
"440 420 LINE",
"362 498 LINE",
"243 498 LINE",
"147 402 LINE",
"147 498 LINE",
"75 498 LINE",
"75 0 LINE"
);
}
);
width = 837;
}
);
leftKerningGroup = n;
leftMetricsKey = n;
note = m;
rightKerningGroup = n;
rightMetricsKey = n;
unicode = 006D;
},
{
glyphname = n;
lastChange = "2018-05-03 08:11:03 +0000";
layers = (
{
anchors = (
{
name = bottom;
position = "{278, 0}";
},
{
name = top;
position = "{281, 498}";
}
);
background = {
paths = (
{
closed = 1;
nodes = (
"123 0 LINE",
"123 322 LINE",
"263 462 LINE",
"374 462 LINE",
"433 404 LINE",
"433 0 LINE",
"471 0 LINE",
"471 416 LINE",
"389 498 LINE",
"248 498 LINE",
"125 375 LINE",
"125 498 LINE",
"85 498 LINE",
"85 0 LINE"
);
}
);
};
layerId = "39D11A97-A6D9-4B52-A6F5-15D5E4373676";
paths = (
{
closed = 1;
nodes = (
"123 0 LINE",
"123 323 LINE",
"263 462 LINE",
"374 462 LINE",
"433 404 LINE",
"433 0 LINE",
"471 0 LINE",
"471 416 LINE",
"389 498 LINE",
"248 498 LINE",
"123 372 LINE",
"123 498 LINE",
"85 498 LINE",
"85 0 LINE"
);
}
);
width = 551;
},
{
anchors = (
{
name = bottom;
position = "{301, 0}";
},
{
name = top;
position = "{304, 498}";
}
);
background = {
paths = (
{
closed = 1;
nodes = (
"194 0 LINE",
"194 272 LINE",
"302 380 LINE",
"376 380 LINE",
"409 347 LINE",
"409 0 LINE",
"543 0 LINE",
"543 390 LINE",
"435 498 LINE",
"254 498 LINE",
"192 436 LINE",
"192 498 LINE",
"60 498 LINE",
"60 0 LINE"
);
}
);
};
layerId = "D6105F7E-CAE1-4F7B-A52E-8AA6E6082DF8";
paths = (
{
closed = 1;
nodes = (
"192 0 LINE",
"192 286 LINE",
"290 384 LINE",
"376 384 LINE",
"411 349 LINE",
"411 0 LINE",
"543 0 LINE",
"543 390 LINE",
"435 498 LINE",
"262 498 LINE",
"184 420 LINE",
"184 498 LINE",
"60 498 LINE",
"60 0 LINE"
);
}
);
width = 598;
},
{
anchors = (
{
name = bottom;
position = "{286, 0}";
},
{
name = top;
position = "{289, 498}";
}
);
layerId = "3C986DA2-2E28-42A4-B05D-29F449A87569";
paths = (
{
closed = 1;
nodes = (
"149 0 LINE",
"149 308 LINE",
"273 432 LINE",
"374 432 LINE",
"424 383 LINE",
"424 0 LINE",
"498 0 LINE",
"498 406 LINE",
"406 498 LINE",
"253 498 LINE",
"147 392 LINE",
"147 498 LINE",
"75 498 LINE",
"75 0 LINE"
);
}
);
width = 568;
}
);
leftKerningGroup = n;
note = n;
rightKerningGroup = n;
unicode = 006E;
},
{
glyphname = o;
lastChange = "2018-05-03 08:11:48 +0000";
layers = (
{
anchors = (
{
name = bottom;
position = "{277, 0}";
},
{
name = center;
position = "{277, 249}";
},
{
name = ogonek;
position = "{505, 10}";
},
{
name = top;
position = "{277, 498}";
},
{
name = topright;
position = "{511, 307}";
}
);
background = {
paths = (
{
closed = 1;
nodes = (
"396 0 LINE",
"478 82 LINE",
"478 416 LINE",
"396 498 LINE",
"157 498 LINE",
"75 416 LINE",
"75 82 LINE",
"157 0 LINE"
);
},
{
closed = 1;
nodes = (
"113 94 LINE",
"113 404 LINE",
"172 462 LINE",
"381 462 LINE",
"440 404 LINE",
"440 94 LINE",
"381 36 LINE",
"172 36 LINE"
);
}
);
};
layerId = "39D11A97-A6D9-4B52-A6F5-15D5E4373676";
paths = (
{
closed = 1;
nodes = (
"396 0 LINE",
"478 82 LINE",
"478 416 LINE",
"396 498 LINE",
"157 498 LINE",
"75 416 LINE",
"75 82 LINE",
"157 0 LINE"
);
},
{
closed = 1;
nodes = (
"113 94 LINE",
"113 404 LINE",
"172 462 LINE",
"381 462 LINE",
"440 404 LINE",
"440 94 LINE",
"381 36 LINE",
"172 36 LINE"
);
}
);
width = 553;
},
{
anchors = (
{
name = bottom;
position = "{300, 0}";
},
{
name = center;
position = "{300, 249}";
},
{
name = ogonek;
position = "{528, 10}";
},
{
name = top;
position = "{300, 498}";
},
{
name = topright;
position = "{535, 307}";
}
);
background = {
paths = (
{
closed = 1;
nodes = (
"442 0 LINE",
"550 108 LINE",
"550 390 LINE",
"442 498 LINE",
"158 498 LINE",
"50 390 LINE",
"50 108 LINE",
"158 0 LINE"
);
},
{
closed = 1;
nodes = (
"182 149 LINE",
"182 349 LINE",
"217 384 LINE",
"383 384 LINE",
"418 349 LINE",
"418 149 LINE",
"383 114 LINE",
"217 114 LINE"
);
}
);
};
layerId = "D6105F7E-CAE1-4F7B-A52E-8AA6E6082DF8";
paths = (
{
closed = 1;
nodes = (
"442 0 LINE",
"550 108 LINE",
"550 390 LINE",
"442 498 LINE",
"158 498 LINE",
"50 390 LINE",
"50 108 LINE",
"158 0 LINE"
);
},
{
closed = 1;
nodes = (
"182 149 LINE",
"182 349 LINE",
"217 384 LINE",
"383 384 LINE",
"418 349 LINE",
"418 149 LINE",
"383 114 LINE",
"217 114 LINE"
);
}
);
width = 600;
},
{
anchors = (
{
name = bottom;
position = "{285, 0}";
},
{
name = center;
position = "{285, 249}";
},
{
name = ogonek;
position = "{513, 10}";
},
{
name = top;
position = "{285, 498}";
},
{
name = topright;
position = "{520, 307}";
}
);
layerId = "3C986DA2-2E28-42A4-B05D-29F449A87569";
paths = (
{
closed = 1;
nodes = (
"413 0 LINE",
"505 92 LINE",
"505 406 LINE",
"413 498 LINE",
"157 498 LINE",
"65 406 LINE",
"65 92 LINE",
"157 0 LINE"
);
},
{
closed = 1;
nodes = (
"139 115 LINE",
"139 383 LINE",
"189 432 LINE",
"381 432 LINE",
"431 383 LINE",
"431 115 LINE",
"381 66 LINE",
"189 66 LINE"
);
}
);
width = 570;
}
);
leftKerningGroup = o;
note = o;
rightKerningGroup = o;
rightMetricsKey = "=|";
unicode = 006F;
},
{
glyphname = p;
lastChange = "2018-05-03 08:14:06 +0000";
layers = (
{
anchors = (
{
name = bottom;
position = "{282, 0}";
},
{
name = top;
position = "{282, 498}";
}
);
background = {
paths = (
{
closed = 1;
nodes = (
"123 -212 LINE",
"123 84 LINE",
"216 0 LINE",
"406 0 LINE",
"488 82 LINE",
"488 416 LINE",
"406 498 LINE",
"225 498 LINE",
"125 398 LINE",
"125 498 LINE",
"85 498 LINE",
"85 -212 LINE"
);
},
{
closed = 1;
nodes = (
"123 133 LINE",
"123 339 LINE",
"246 462 LINE",
"391 462 LINE",
"450 404 LINE",
"450 94 LINE",
"391 36 LINE",
"230 36 LINE"
);
}
);
};
layerId = "39D11A97-A6D9-4B52-A6F5-15D5E4373676";
paths = (
{
closed = 1;
nodes = (
"123 -212 LINE",
"123 84 LINE",
"216 0 LINE",
"406 0 LINE",
"488 82 LINE",
"488 416 LINE",
"406 498 LINE",
"225 498 LINE",
"123 395 LINE",
"123 498 LINE",
"85 498 LINE",
"85 -212 LINE"
);
},
{
closed = 1;
nodes = (
"123 133 LINE",
"123 345 LINE",
"240 462 LINE",
"391 462 LINE",
"450 404 LINE",
"450 95 LINE",
"391 36 LINE",
"229 36 LINE"
);
}
);
width = 563;
},
{
anchors = (
{
name = bottom;
position = "{305, 0}";
},
{
name = top;
position = "{305, 498}";
}
);
background = {
paths = (
{
closed = 1;
nodes = (
"192 -212 LINE",
"192 51 LINE",
"254 0 LINE",
"452 0 LINE",
"560 108 LINE",
"560 390 LINE",
"452 498 LINE",
"245 498 LINE",
"184 437 LINE",
"184 498 LINE",
"60 498 LINE",
"60 -212 LINE"
);
},
{
closed = 1;
nodes = (
"192 185 LINE",
"192 303 LINE",
"273 384 LINE",
"393 384 LINE",
"428 349 LINE",
"428 149 LINE",
"393 114 LINE",
"271 114 LINE"
);
}
);
};
layerId = "D6105F7E-CAE1-4F7B-A52E-8AA6E6082DF8";
paths = (
{
closed = 1;
nodes = (
"192 -212 LINE",
"192 53 LINE",
"256 0 LINE",
"452 0 LINE",
"560 108 LINE",
"560 390 LINE",
"452 498 LINE",
"255 498 LINE",
"184 427 LINE",
"184 498 LINE",
"60 498 LINE",
"60 -212 LINE"
);
},
{
closed = 1;
nodes = (
"192 185 LINE",
"192 303 LINE",
"273 384 LINE",
"393 384 LINE",
"428 349 LINE",
"428 149 LINE",
"393 114 LINE",
"271 114 LINE"
);
}
);
width = 610;
},
{
anchors = (
{
name = bottom;
position = "{290, 0}";
},
{
name = top;
position = "{290, 498}";
}
);
layerId = "3C986DA2-2E28-42A4-B05D-29F449A87569";
paths = (
{
closed = 1;
nodes = (
"147 498 LINE",
"75 498 LINE",
"75 -212 LINE",
"149 -212 LINE",
"149 72 LINE",
"231 0 LINE",
"423 0 LINE",
"515 92 LINE",
"515 406 LINE",
"423 498 LINE",
"236 498 LINE",
"147 409 LINE"
);
},
{
closed = 1;
nodes = (
"256 432 LINE",
"391 432 LINE",
"441 383 LINE",
"441 115 LINE",
"391 66 LINE",
"245 66 LINE",
"149 153 LINE",
"149 325 LINE"
);
}
);
width = 580;
}
);
leftKerningGroup = n;
leftMetricsKey = n;
note = p;
rightKerningGroup = o;
rightMetricsKey = o;
unicode = 0070;
},
{
glyphname = q;
lastChange = "2018-05-03 08:15:05 +0000";
layers = (
{
anchors = (
{
name = bottom;
position = "{279, 0}";
},
{
name = top;
position = "{279, 498}";
}
);
background = {
paths = (
{
closed = 1;
nodes = (
"476 -212 LINE",
"476 416 LINE",
"394 498 LINE",
"157 498 LINE",
"75 416 LINE",
"75 82 LINE",
"157 0 LINE",
"325 0 LINE",
"439 114 LINE",
"439 -212 LINE"
);
},
{
closed = 1;
nodes = (
"113 94 LINE",
"113 404 LINE",
"172 462 LINE",
"379 462 LINE",
"438 404 LINE",
"438 168 LINE",
"310 36 LINE",
"172 36 LINE"
);
}
);
};
layerId = "39D11A97-A6D9-4B52-A6F5-15D5E4373676";
paths = (
{
closed = 1;
nodes = (
"476 -212 LINE",
"476 416 LINE",
"394 498 LINE",
"157 498 LINE",
"75 416 LINE",
"75 82 LINE",
"157 0 LINE",
"324 0 LINE",
"438 115 LINE",
"438 -212 LINE"
);
},
{
closed = 1;
nodes = (
"113 94 LINE",
"113 404 LINE",
"172 462 LINE",
"379 462 LINE",
"438 404 LINE",
"438 165 LINE",
"310 36 LINE",
"172 36 LINE"
);
}
);
width = 556;
},
{
anchors = (
{
name = bottom;
position = "{302, 0}";
},
{
name = top;
position = "{302, 498}";
}
);
background = {
paths = (
{
closed = 1;
nodes = (
"548 -212 LINE",
"548 390 LINE",
"440 498 LINE",
"158 498 LINE",
"50 390 LINE",
"50 108 LINE",
"158 0 LINE",
"347 0 LINE",
"414 67 LINE",
"414 -212 LINE"
);
},
{
closed = 1;
nodes = (
"182 147 LINE",
"182 351 LINE",
"215 384 LINE",
"383 384 LINE",
"416 351 LINE",
"416 215 LINE",
"317 114 LINE",
"215 114 LINE"
);
}
);
};
layerId = "D6105F7E-CAE1-4F7B-A52E-8AA6E6082DF8";
paths = (
{
closed = 1;
nodes = (
"548 -212 LINE",
"548 390 LINE",
"440 498 LINE",
"158 498 LINE",
"50 390 LINE",
"50 108 LINE",
"158 0 LINE",
"345 0 LINE",
"414 69 LINE",
"414 -212 LINE"
);
},
{
closed = 1;
nodes = (
"182 149 LINE",
"182 349 LINE",
"217 384 LINE",
"381 384 LINE",
"416 349 LINE",
"416 210 LINE",
"322 114 LINE",
"217 114 LINE"
);
}
);
width = 603;
},
{
anchors = (
{
name = bottom;
position = "{287, 0}";
},
{
name = top;
position = "{287, 498}";
}
);
layerId = "3C986DA2-2E28-42A4-B05D-29F449A87569";
paths = (
{
closed = 1;
nodes = (
"503 -212 LINE",
"503 406 LINE",
"411 498 LINE",
"157 498 LINE",
"65 406 LINE",
"65 92 LINE",
"157 0 LINE",
"332 0 LINE",
"429 97 LINE",
"429 -212 LINE"
);
},
{
closed = 1;
nodes = (
"139 115 LINE",
"139 383 LINE",
"189 432 LINE",
"379 432 LINE",
"429 383 LINE",
"429 184 LINE",
"314 66 LINE",
"189 66 LINE"
);
}
);
width = 573;
}
);
leftKerningGroup = o;
leftMetricsKey = o;
note = q;
rightKerningGroup = n;
unicode = 0071;
},
{
glyphname = r;
lastChange = "2018-05-03 08:16:14 +0000";
layers = (
{
anchors = (
{
name = bottom;
position = "{103, 0}";
},
{
name = top;
position = "{209, 498}";
}
);
background = {
paths = (
{
closed = 1;
nodes = (
"123 0 LINE",
"123 351 LINE",
"234 462 LINE",
"338 462 LINE",
"338 498 LINE",
"221 498 LINE",
"125 402 LINE",
"125 498 LINE",
"85 498 LINE",
"85 0 LINE"
);
}
);
};
layerId = "39D11A97-A6D9-4B52-A6F5-15D5E4373676";
paths = (
{
closed = 1;
nodes = (
"123 0 LINE",
"123 351 LINE",
"235 462 LINE",
"338 462 LINE",
"338 498 LINE",
"221 498 LINE",
"123 400 LINE",
"123 498 LINE",
"85 498 LINE",
"85 0 LINE"
);
}
);
width = 368;
},
{
anchors = (
{
name = bottom;
position = "{127, 0}";
},
{
name = top;
position = "{232, 498}";
}
);
background = {
paths = (
{
closed = 1;
nodes = (
"192 0 LINE",
"192 290 LINE",
"286 384 LINE",
"410 384 LINE",
"410 498 LINE",
"255 498 LINE",
"184 427 LINE",
"184 498 LINE",
"60 498 LINE",
"60 0 LINE"
);
}
);
};
layerId = "D6105F7E-CAE1-4F7B-A52E-8AA6E6082DF8";
paths = (
{
closed = 1;
nodes = (
"192 0 LINE",
"192 286 LINE",
"290 384 LINE",
"410 384 LINE",
"410 498 LINE",
"262 498 LINE",
"184 420 LINE",
"184 498 LINE",
"60 498 LINE",
"60 0 LINE"
);
}
);
width = 415;
},
{
anchors = (
{
name = bottom;
position = "{112, 0}";
},
{
name = top;
position = "{217, 498}";
}
);
layerId = "3C986DA2-2E28-42A4-B05D-29F449A87569";
paths = (
{
closed = 1;
nodes = (
"149 0 LINE",
"149 326 LINE",
"255 432 LINE",
"365 432 LINE",
"365 498 LINE",
"236 498 LINE",
"147 409 LINE",
"147 498 LINE",
"75 498 LINE",
"75 0 LINE"
);
}
);
width = 385;
}
);
leftKerningGroup = n;
leftMetricsKey = n;
note = r;
rightKerningGroup = r;
unicode = 0072;
},
{
glyphname = s;
lastChange = "2018-05-04 08:32:14 +0000";
layers = (
{
anchors = (
{
name = bottom;
position = "{251, 0}";
},
{
name = top;
position = "{243, 498}";
}
);
background = {
paths = (
{
closed = 1;
nodes = (
"362 0 LINE",
"435 73 LINE",
"435 194 LINE",
"361 268 LINE",
"153 268 LINE",
"103 318 LINE",
"103 414 LINE",
"154 462 LINE",
"335 462 LINE",
"386 414 LINE",
"386 364 LINE",
"425 364 LINE",
"425 426 LINE",
"353 498 LINE",
"137 498 LINE",
"64 425 LINE",
"64 303 LINE",
"133 234 LINE",
"346 234 LINE",
"396 184 LINE",
"396 85 LINE",
"345 36 LINE",
"150 36 LINE",
"99 85 LINE",
"99 134 LINE",
"60 134 LINE",
"60 72 LINE",
"132 0 LINE"
);
}
);
};
layerId = "39D11A97-A6D9-4B52-A6F5-15D5E4373676";
paths = (
{
closed = 1;
nodes = (
"362 0 LINE",
"435 73 LINE",
"435 194 LINE",
"361 268 LINE",
"153 268 LINE",
"102 318 LINE",
"102 412 LINE",
"154 462 LINE",
"336 462 LINE",
"387 414 LINE",
"387 364 LINE",
"425 364 LINE",
"425 426 LINE",
"353 498 LINE",
"137 498 LINE",
"64 425 LINE",
"64 303 LINE",
"133 234 LINE",
"347 234 LINE",
"397 184 LINE",
"397 85 LINE",
"346 36 LINE",
"149 36 LINE",
"98 85 LINE",
"98 134 LINE",
"60 134 LINE",
"60 72 LINE",
"132 0 LINE"
);
}
);
width = 495;
},
{
anchors = (
{
name = bottom;
position = "{275, 0}";
},
{
name = top;
position = "{266, 498}";
}
);
background = {
paths = (
{
closed = 1;
nodes = (
"409 0 LINE",
"507 98 LINE",
"507 207 LINE",
"409 305 LINE",
"195 305 LINE",
"171 329 LINE",
"171 365 LINE",
"194 388 LINE",
"342 388 LINE",
"365 365 LINE",
"365 335 LINE",
"497 335 LINE",
"497 400 LINE",
"399 498 LINE",
"137 498 LINE",
"39 400 LINE",
"39 294 LINE",
"136 197 LINE",
"351 197 LINE",
"375 173 LINE",
"375 133 LINE",
"352 110 LINE",
"190 110 LINE",
"167 133 LINE",
"167 163 LINE",
"35 163 LINE",
"35 98 LINE",
"133 0 LINE"
);
}
);
};
layerId = "D6105F7E-CAE1-4F7B-A52E-8AA6E6082DF8";
paths = (
{
closed = 1;
nodes = (
"411 0 LINE",
"507 96 LINE",
"507 209 LINE",
"412 304 LINE",
"193 304 LINE",
"169 328 LINE",
"169 365 LINE",
"192 388 LINE",
"344 388 LINE",
"367 365 LINE",
"367 337 LINE",
"497 337 LINE",
"497 400 LINE",
"399 498 LINE",
"135 498 LINE",
"39 402 LINE",
"39 293 LINE",
"134 198 LINE",
"353 198 LINE",
"377 174 LINE",
"377 133 LINE",
"354 110 LINE",
"188 110 LINE",
"165 133 LINE",
"165 161 LINE",
"35 161 LINE",
"35 98 LINE",
"133 0 LINE"
);
}
);
width = 542;
},
{
anchors = (
{
name = bottom;
position = "{260, 0}";
},
{
name = top;
position = "{251, 498}";
}
);
layerId = "3C986DA2-2E28-42A4-B05D-29F449A87569";
paths = (
{
closed = 1;
nodes = (
"380 0 LINE",
"462 82 LINE",
"462 200 LINE",
"380 282 LINE",
"168 282 LINE",
"128 322 LINE",
"128 395 LINE",
"168 434 LINE",
"338 434 LINE",
"378 395 LINE",
"378 354 LINE",
"452 354 LINE",
"452 416 LINE",
"370 498 LINE",
"136 498 LINE",
"54 416 LINE",
"54 299 LINE",
"133 220 LINE",
"348 220 LINE",
"388 180 LINE",
"388 103 LINE",
"348 64 LINE",
"164 64 LINE",
"124 103 LINE",
"124 144 LINE",
"50 144 LINE",
"50 82 LINE",
"132 0 LINE"
);
}
);
width = 512;
}
);
leftKerningGroup = s;
note = s;
rightKerningGroup = s;
unicode = 0073;
},
{
glyphname = t;
lastChange = "2018-05-04 05:05:25 +0000";
layers = (
{
anchors = (
{
name = bottom;
position = "{214, 0}";
},
{
name = center;
position = "{184, 249}";
},
{
name = top;
position = "{149, 638}";
},
{
name = topright;
position = "{357, 498}";
}
);
background = {
paths = (
{
closed = 1;
nodes = (
"323 0 LINE",
"323 35 LINE",
"226 35 LINE",
"167 93 LINE",
"167 462 LINE",
"323 462 LINE",
"323 498 LINE",
"167 498 LINE",
"167 660 LINE",
"131 660 LINE",
"131 498 LINE",
"40 498 LINE",
"40 463 LINE",
"129 463 LINE",
"129 82 LINE",
"211 0 LINE"
);
}
);
};
layerId = "39D11A97-A6D9-4B52-A6F5-15D5E4373676";
paths = (
{
closed = 1;
nodes = (
"323 0 LINE",
"323 35 LINE",
"227 35 LINE",
"167 95 LINE",
"167 462 LINE",
"323 462 LINE",
"323 498 LINE",
"167 498 LINE",
"167 660 LINE",
"131 660 LINE",
"131 498 LINE",
"40 498 LINE",
"40 463 LINE",
"129 463 LINE",
"129 82 LINE",
"211 0 LINE"
);
}
);
width = 373;
},
{
anchors = (
{
name = bottom;
position = "{237, 0}";
},
{
name = center;
position = "{208, 249}";
},
{
name = top;
position = "{172, 638}";
},
{
name = topright;
position = "{380, 498}";
}
);
background = {
paths = (
{
closed = 1;
nodes = (
"395 498 LINE",
"239 498 LINE",
"239 660 LINE",
"107 660 LINE",
"107 498 LINE",
"15 498 LINE",
"15 380 LINE",
"105 380 LINE",
"105 108 LINE",
"213 0 LINE",
"395 0 LINE",
"395 117 LINE",
"273 117 LINE",
"239 151 LINE",
"239 379 LINE",
"395 379 LINE"
);
}
);
};
layerId = "D6105F7E-CAE1-4F7B-A52E-8AA6E6082DF8";
paths = (
{
closed = 1;
nodes = (
"395 0 LINE",
"395 114 LINE",
"275 114 LINE",
"239 150 LINE",
"239 383 LINE",
"395 383 LINE",
"395 498 LINE",
"239 498 LINE",
"239 660 LINE",
"109 660 LINE",
"109 498 LINE",
"15 498 LINE",
"15 384 LINE",
"107 384 LINE",
"107 108 LINE",
"215 0 LINE"
);
}
);
width = 420;
},
{
anchors = (
{
name = bottom;
position = "{222, 0}";
},
{
name = center;
position = "{193, 249}";
},
{
name = top;
position = "{157, 638}";
},
{
name = topright;
position = "{365, 498}";
}
);
layerId = "3C986DA2-2E28-42A4-B05D-29F449A87569";
paths = (
{
closed = 1;
nodes = (
"350 0 LINE",
"350 65 LINE",
"244 65 LINE",
"194 115 LINE",
"194 432 LINE",
"350 432 LINE",
"350 498 LINE",
"194 498 LINE",
"194 660 LINE",
"122 660 LINE",
"122 498 LINE",
"30 498 LINE",
"30 433 LINE",
"120 433 LINE",
"120 92 LINE",
"212 0 LINE"
);
}
);
width = 390;
}
);
leftKerningGroup = t;
note = t;
rightKerningGroup = t;
unicode = 0074;
},
{
glyphname = u;
lastChange = "2018-05-03 08:19:02 +0000";
layers = (
{
anchors = (
{
name = bottom;
position = "{277, 0}";
},
{
name = ogonek;
position = "{483, 0}";
},
{
name = top;
position = "{275, 498}";
},
{
name = topright;
position = "{514, 307}";
}
);
background = {
paths = (
{
closed = 1;
nodes = (
"304 0 LINE",
"425 121 LINE",
"425 0 LINE",
"465 0 LINE",
"465 498 LINE",
"427 498 LINE",
"427 176 LINE",
"287 36 LINE",
"177 36 LINE",
"118 94 LINE",
"118 498 LINE",
"80 498 LINE",
"80 82 LINE",
"162 0 LINE"
);
}
);
};
layerId = "39D11A97-A6D9-4B52-A6F5-15D5E4373676";
paths = (
{
closed = 1;
nodes = (
"302 0 LINE",
"427 125 LINE",
"427 0 LINE",
"465 0 LINE",
"465 498 LINE",
"427 498 LINE",
"427 176 LINE",
"288 36 LINE",
"177 36 LINE",
"118 94 LINE",
"118 498 LINE",
"80 498 LINE",
"80 82 LINE",
"162 0 LINE"
);
}
);
width = 550;
},
{
anchors = (
{
name = bottom;
position = "{300, 0}";
},
{
name = ogonek;
position = "{507, 0}";
},
{
name = top;
position = "{298, 498}";
},
{
name = topright;
position = "{537, 307}";
}
);
background = {
paths = (
{
closed = 1;
nodes = (
"405 498 LINE",
"405 212 LINE",
"307 114 LINE",
"222 114 LINE",
"187 149 LINE",
"187 498 LINE",
"55 498 LINE",
"55 108 LINE",
"163 0 LINE",
"331 0 LINE",
"413 82 LINE",
"413 0 LINE",
"537 0 LINE",
"537 498 LINE"
);
}
);
};
layerId = "D6105F7E-CAE1-4F7B-A52E-8AA6E6082DF8";
paths = (
{
closed = 1;
nodes = (
"331 0 LINE",
"413 82 LINE",
"413 0 LINE",
"537 0 LINE",
"537 498 LINE",
"405 498 LINE",
"405 212 LINE",
"307 114 LINE",
"222 114 LINE",
"187 149 LINE",
"187 498 LINE",
"55 498 LINE",
"55 108 LINE",
"163 0 LINE"
);
}
);
width = 597;
},
{
anchors = (
{
name = bottom;
position = "{285, 0}";
},
{
name = ogonek;
position = "{492, 0}";
},
{
name = top;
position = "{283, 498}";
},
{
name = topright;
position = "{522, 307}";
}
);
layerId = "3C986DA2-2E28-42A4-B05D-29F449A87569";
paths = (
{
closed = 1;
nodes = (
"314 0 LINE",
"420 106 LINE",
"420 0 LINE",
"492 0 LINE",
"492 498 LINE",
"418 498 LINE",
"418 190 LINE",
"294 66 LINE",
"194 66 LINE",
"144 115 LINE",
"144 498 LINE",
"70 498 LINE",
"70 92 LINE",
"162 0 LINE"
);
}
);
width = 567;
}
);
leftKerningGroup = u;
note = u;
rightKerningGroup = u;
unicode = 0075;
},
{
glyphname = v;
lastChange = "2018-05-03 08:44:16 +0000";
layers = (
{
anchors = (
{
name = bottom;
position = "{226, 0}";
},
{
name = top;
position = "{226, 498}";
}
);
background = {
paths = (
{
closed = 1;
nodes = (
"256 0 LINE",
"426 498 LINE",
"388 498 LINE",
"228 27 LINE",
"224 27 LINE",
"63 498 LINE",
"25 498 LINE",
"196 0 LINE"
);
}
);
};
layerId = "39D11A97-A6D9-4B52-A6F5-15D5E4373676";
paths = (
{
closed = 1;
nodes = (
"254 0 LINE",
"425 498 LINE",
"386 498 LINE",
"228 32 LINE",
"224 32 LINE",
"64 498 LINE",
"25 498 LINE",
"198 0 LINE"
);
}
);
width = 450;
},
{
anchors = (
{
name = bottom;
position = "{267, 0}";
},
{
name = top;
position = "{267, 498}";
}
);
background = {
paths = (
{
closed = 1;
nodes = (
"332 0 LINE",
"534 498 LINE",
"397 498 LINE",
"249 126 LINE",
"285 126 LINE",
"137 498 LINE",
"0 498 LINE",
"202 0 LINE"
);
}
);
};
layerId = "D6105F7E-CAE1-4F7B-A52E-8AA6E6082DF8";
paths = (
{
closed = 1;
nodes = (
"331 0 LINE",
"534 498 LINE",
"397 498 LINE",
"269 151 LINE",
"265 151 LINE",
"137 498 LINE",
"0 498 LINE",
"203 0 LINE"
);
}
);
width = 534;
},
{
anchors = (
{
name = bottom;
position = "{241, 0}";
},
{
name = top;
position = "{241, 498}";
}
);
layerId = "3C986DA2-2E28-42A4-B05D-29F449A87569";
paths = (
{
closed = 1;
nodes = (
"284 0 LINE",
"467 498 LINE",
"391 498 LINE",
"243 74 LINE",
"239 74 LINE",
"91 498 LINE",
"15 498 LINE",
"198 0 LINE"
);
}
);
width = 482;
}
);
note = v;
rightMetricsKey = "=|";
unicode = 0076;
},
{
glyphname = w;
lastChange = "2018-05-03 08:23:10 +0000";
layers = (
{
anchors = (
{
name = bottom;
position = "{341, 0}";
},
{
name = top;
position = "{341, 498}";
}
);
background = {
paths = (
{
closed = 1;
nodes = (
"214 0 LINE",
"339 438 LINE",
"343 438 LINE",
"456 0 LINE",
"514 0 LINE",
"636 498 LINE",
"598 498 LINE",
"486 33 LINE",
"482 33 LINE",
"367 478 LINE",
"315 478 LINE",
"190 33 LINE",
"186 33 LINE",
"83 498 LINE",
"45 498 LINE",
"158 0 LINE"
);
}
);
};
layerId = "39D11A97-A6D9-4B52-A6F5-15D5E4373676";
paths = (
{
closed = 1;
nodes = (
"214 0 LINE",
"339 438 LINE",
"343 438 LINE",
"456 0 LINE",
"514 0 LINE",
"636 498 LINE",
"598 498 LINE",
"487 35 LINE",
"483 35 LINE",
"367 478 LINE",
"315 478 LINE",
"189 35 LINE",
"185 35 LINE",
"83 498 LINE",
"45 498 LINE",
"158 0 LINE"
);
}
);
width = 681;
},
{
anchors = (
{
name = bottom;
position = "{376, 0}";
},
{
name = top;
position = "{376, 498}";
}
);
background = {
paths = (
{
closed = 1;
nodes = (
"523 186 LINE",
"519 186 LINE",
"437 478 LINE",
"315 478 LINE",
"226 186 LINE",
"222 186 LINE",
"154 498 LINE",
"20 498 LINE",
"152 0 LINE",
"276 0 LINE",
"372 306 LINE",
"376 306 LINE",
"465 0 LINE",
"590 0 LINE",
"731 498 LINE",
"597 498 LINE"
);
}
);
};
layerId = "D6105F7E-CAE1-4F7B-A52E-8AA6E6082DF8";
paths = (
{
closed = 1;
nodes = (
"272 0 LINE",
"372 316 LINE",
"376 316 LINE",
"469 0 LINE",
"593 0 LINE",
"731 498 LINE",
"597 498 LINE",
"523 184 LINE",
"519 184 LINE",
"436 478 LINE",
"316 478 LINE",
"226 184 LINE",
"222 184 LINE",
"154 498 LINE",
"20 498 LINE",
"149 0 LINE"
);
}
);
width = 751;
},
{
anchors = (
{
name = bottom;
position = "{354, 0}";
},
{
name = top;
position = "{354, 498}";
}
);
layerId = "3C986DA2-2E28-42A4-B05D-29F449A87569";
paths = (
{
closed = 1;
nodes = (
"237 0 LINE",
"352 394 LINE",
"356 394 LINE",
"459 0 LINE",
"545 0 LINE",
"672 498 LINE",
"598 498 LINE",
"503 84 LINE",
"499 84 LINE",
"395 478 LINE",
"313 478 LINE",
"200 84 LINE",
"196 84 LINE",
"109 498 LINE",
"35 498 LINE",
"153 0 LINE"
);
}
);
width = 707;
}
);
leftKerningGroup = w;
note = w;
rightKerningGroup = w;
rightMetricsKey = "=|";
unicode = 0077;
},
{
glyphname = x;
lastChange = "2018-05-03 08:23:40 +0000";
layers = (
{
anchors = (
{
name = bottom;
position = "{221, 0}";
},
{
name = top;
position = "{221, 498}";
}
);
background = {
paths = (
{
closed = 1;
nodes = (
"411 0 LINE",
"73 498 LINE",
"35 498 LINE",
"373 0 LINE"
);
},
{
closed = 1;
nodes = (
"68 0 LINE",
"406 498 LINE",
"368 498 LINE",
"30 0 LINE"
);
}
);
};
layerId = "39D11A97-A6D9-4B52-A6F5-15D5E4373676";
paths = (
{
closed = 1;
nodes = (
"411 0 LINE",
"74 498 LINE",
"35 498 LINE",
"372 0 LINE"
);
},
{
closed = 1;
nodes = (
"69 0 LINE",
"406 498 LINE",
"367 498 LINE",
"30 0 LINE"
);
}
);
width = 441;
},
{
anchors = (
{
name = bottom;
position = "{283, 0}";
},
{
name = top;
position = "{283, 498}";
}
);
background = {
paths = (
{
closed = 1;
nodes = (
"408 0 LINE",
"561 0 LINE",
"163 498 LINE",
"10 498 LINE"
);
},
{
closed = 1;
nodes = (
"403 498 LINE",
"5 0 LINE",
"158 0 LINE",
"556 498 LINE"
);
}
);
};
layerId = "D6105F7E-CAE1-4F7B-A52E-8AA6E6082DF8";
paths = (
{
closed = 1;
nodes = (
"561 0 LINE",
"163 498 LINE",
"10 498 LINE",
"408 0 LINE"
);
},
{
closed = 1;
nodes = (
"158 0 LINE",
"556 498 LINE",
"403 498 LINE",
"5 0 LINE"
);
}
);
width = 566;
},
{
anchors = (
{
name = bottom;
position = "{244, 0}";
},
{
name = top;
position = "{244, 498}";
}
);
layerId = "3C986DA2-2E28-42A4-B05D-29F449A87569";
paths = (
{
closed = 1;
nodes = (
"386 0 LINE",
"468 0 LINE",
"107 498 LINE",
"25 498 LINE"
);
},
{
closed = 1;
nodes = (
"381 498 LINE",
"20 0 LINE",
"102 0 LINE",
"463 498 LINE"
);
}
);
width = 488;
}
);
note = x;
unicode = 0078;
},
{
glyphname = y;
lastChange = "2018-05-03 08:24:47 +0000";
layers = (
{
anchors = (
{
name = bottom;
position = "{280, -218}";
},
{
name = top;
position = "{276, 498}";
}
);
background = {
paths = (
{
closed = 0;
nodes = (
"431 126 LINE",
"431 -122 LINE",
"372 -180 LINE",
"149 -180 LINE",
"149 -216 LINE",
"387 -216 LINE",
"469 -135 LINE",
"469 498 LINE",
"431 498 LINE",
"431 180 LINE",
"288 36 LINE",
"177 36 LINE",
"118 94 LINE",
"118 498 LINE",
"80 498 LINE",
"80 82 LINE",
"162 0 LINE",
"302 0 LINE",
"427 125 LINE"
);
}
);
};
layerId = "39D11A97-A6D9-4B52-A6F5-15D5E4373676";
paths = (
{
closed = 1;
nodes = (
"387 -216 LINE",
"469 -135 LINE",
"469 498 LINE",
"431 498 LINE",
"431 180 LINE",
"288 36 LINE",
"177 36 LINE",
"118 94 LINE",
"118 498 LINE",
"80 498 LINE",
"80 82 LINE",
"162 0 LINE",
"302 0 LINE",
"431 129 LINE",
"431 -122 LINE",
"372 -180 LINE",
"149 -180 LINE",
"149 -216 LINE"
);
}
);
width = 554;
},
{
anchors = (
{
name = bottom;
position = "{303, -218}";
},
{
name = top;
position = "{299, 498}";
}
);
background = {
paths = (
{
closed = 1;
nodes = (
"335 0 LINE",
"163 0 LINE",
"55 108 LINE",
"55 498 LINE",
"187 498 LINE",
"187 151 LINE",
"220 118 LINE",
"311 118 LINE",
"409 216 LINE",
"409 498 LINE",
"541 498 LINE",
"541 -114 LINE",
"432 -221 LINE",
"124 -221 LINE",
"124 -107 LINE",
"374 -107 LINE",
"409 -72 LINE",
"409 74 LINE"
);
}
);
};
layerId = "D6105F7E-CAE1-4F7B-A52E-8AA6E6082DF8";
paths = (
{
closed = 1;
nodes = (
"432 -221 LINE",
"541 -114 LINE",
"541 498 LINE",
"409 498 LINE",
"409 212 LINE",
"311 114 LINE",
"222 114 LINE",
"187 149 LINE",
"187 498 LINE",
"55 498 LINE",
"55 108 LINE",
"163 0 LINE",
"335 0 LINE",
"409 74 LINE",
"409 -74 LINE",
"374 -109 LINE",
"124 -109 LINE",
"124 -221 LINE"
);
}
);
width = 601;
},
{
anchors = (
{
name = bottom;
position = "{288, -218}";
},
{
name = top;
position = "{284, 498}";
}
);
layerId = "3C986DA2-2E28-42A4-B05D-29F449A87569";
paths = (
{
closed = 1;
nodes = (
"404 -218 LINE",
"496 -127 LINE",
"496 498 LINE",
"422 498 LINE",
"422 192 LINE",
"296 66 LINE",
"194 66 LINE",
"144 115 LINE",
"144 498 LINE",
"70 498 LINE",
"70 92 LINE",
"162 0 LINE",
"316 0 LINE",
"422 106 LINE",
"422 -103 LINE",
"372 -152 LINE",
"139 -152 LINE",
"139 -218 LINE"
);
}
);
width = 571;
}
);
leftKerningGroup = u;
leftMetricsKey = u;
note = y;
rightKerningGroup = u;
rightMetricsKey = u;
unicode = 0079;
},
{
glyphname = z;
lastChange = "2018-05-03 08:26:20 +0000";
layers = (
{
anchors = (
{
name = bottom;
position = "{233, 0}";
},
{
name = top;
position = "{234, 498}";
}
);
background = {
paths = (
{
closed = 1;
nodes = (
"407 0 LINE",
"407 34 LINE",
"82 34 LINE",
"82 36 LINE",
"407 450 LINE",
"407 498 LINE",
"60 498 LINE",
"60 464 LINE",
"375 464 LINE",
"375 462 LINE",
"50 48 LINE",
"50 0 LINE"
);
}
);
};
layerId = "39D11A97-A6D9-4B52-A6F5-15D5E4373676";
paths = (
{
closed = 1;
nodes = (
"407 0 LINE",
"407 34 LINE",
"90 34 LINE",
"90 36 LINE",
"407 455 LINE",
"407 498 LINE",
"60 498 LINE",
"60 464 LINE",
"367 464 LINE",
"367 462 LINE",
"50 43 LINE",
"50 0 LINE"
);
}
);
width = 457;
},
{
anchors = (
{
name = bottom;
position = "{256, 0}";
},
{
name = top;
position = "{257, 498}";
}
);
background = {
paths = (
{
closed = 1;
nodes = (
"35 388 LINE",
"304 388 LINE",
"304 386 LINE",
"25 103 LINE",
"25 0 LINE",
"479 0 LINE",
"479 110 LINE",
"200 110 LINE",
"200 112 LINE",
"479 395 LINE",
"479 498 LINE",
"35 498 LINE"
);
}
);
};
layerId = "D6105F7E-CAE1-4F7B-A52E-8AA6E6082DF8";
paths = (
{
closed = 1;
nodes = (
"479 0 LINE",
"479 108 LINE",
"196 108 LINE",
"196 110 LINE",
"479 395 LINE",
"479 498 LINE",
"35 498 LINE",
"35 390 LINE",
"308 390 LINE",
"308 388 LINE",
"25 103 LINE",
"25 0 LINE"
);
}
);
width = 504;
},
{
anchors = (
{
name = bottom;
position = "{241, 0}";
},
{
name = top;
position = "{242, 498}";
}
);
layerId = "3C986DA2-2E28-42A4-B05D-29F449A87569";
paths = (
{
closed = 1;
nodes = (
"434 0 LINE",
"434 62 LINE",
"125 62 LINE",
"125 64 LINE",
"434 429 LINE",
"434 498 LINE",
"50 498 LINE",
"50 436 LINE",
"349 436 LINE",
"349 434 LINE",
"40 69 LINE",
"40 0 LINE"
);
}
);
width = 474;
}
);
leftKerningGroup = z;
note = z;
rightKerningGroup = z;
unicode = 007A;
},
{
color = 6;
glyphname = AE;
lastChange = "2018-05-03 10:26:29 +0000";
layers = (
{
anchors = (
{
name = bottom;
position = "{456, 0}";
},
{
name = top;
position = "{490, 700}";
}
);
background = {
paths = (
{
closed = 1;
nodes = (
"129 189 LINE",
"487 189 LINE",
"487 257 LINE",
"129 257 LINE"
);
},
{
closed = 1;
nodes = (
"880 700 LINE",
"324 700 LINE",
"15 0 LINE",
"95 0 LINE",
"370 632 LINE",
"440 632 LINE",
"441 0 LINE",
"880 0 LINE",
"880 68 LINE",
"516 68 LINE",
"516 316 LINE",
"851 316 LINE",
"851 384 LINE",
"516 384 LINE",
"516 632 LINE",
"880 632 LINE"
);
}
);
};
layerId = "39D11A97-A6D9-4B52-A6F5-15D5E4373676";
paths = (
{
closed = 1;
nodes = (
"63 0 LINE",
"351 664 LINE",
"444 664 LINE",
"444 0 LINE",
"841 0 LINE",
"841 37 LINE",
"494 37 LINE",
"494 330 LINE",
"812 330 LINE",
"812 368 LINE",
"494 368 LINE",
"494 663 LINE",
"841 663 LINE",
"841 700 LINE",
"329 700 LINE",
"21 0 LINE"
);
},
{
closed = 1;
nodes = (
"454 195 LINE",
"454 235 LINE",
"102 235 LINE",
"102 195 LINE"
);
}
);
width = 900;
},
{
anchors = (
{
name = bottom;
position = "{493, 0}";
},
{
name = top;
position = "{527, 700}";
}
);
background = {
paths = (
{
closed = 1;
nodes = (
"150 0 LINE",
"403 580 LINE",
"433 580 LINE",
"433 0 LINE",
"927 0 LINE",
"927 120 LINE",
"569 120 LINE",
"569 290 LINE",
"898 290 LINE",
"898 410 LINE",
"569 410 LINE",
"569 580 LINE",
"927 580 LINE",
"927 700 LINE",
"315 700 LINE",
"5 0 LINE"
);
},
{
closed = 1;
nodes = (
"540 176 LINE",
"540 296 LINE",
"172 296 LINE",
"172 176 LINE"
);
}
);
};
layerId = "D6105F7E-CAE1-4F7B-A52E-8AA6E6082DF8";
paths = (
{
closed = 1;
nodes = (
"147 0 LINE",
"400 580 LINE",
"433 580 LINE",
"433 0 LINE",
"927 0 LINE",
"927 118 LINE",
"551 118 LINE",
"551 294 LINE",
"898 294 LINE",
"898 410 LINE",
"551 410 LINE",
"551 582 LINE",
"927 582 LINE",
"927 700 LINE",
"315 700 LINE",
"5 0 LINE"
);
},
{
closed = 1;
nodes = (
"540 179 LINE",
"540 293 LINE",
"172 293 LINE",
"172 179 LINE"
);
}
);
width = 962;
},
{
anchors = (
{
name = bottom;
position = "{470, 0}";
},
{
name = top;
position = "{504, 700}";
}
);
layerId = "3C986DA2-2E28-42A4-B05D-29F449A87569";
paths = (
{
closed = 1;
nodes = (
"95 0 LINE",
"370 632 LINE",
"440 632 LINE",
"440 0 LINE",
"874 0 LINE",
"874 68 LINE",
"516 68 LINE",
"516 316 LINE",
"845 316 LINE",
"845 384 LINE",
"516 384 LINE",
"516 632 LINE",
"874 632 LINE",
"874 700 LINE",
"324 700 LINE",
"15 0 LINE"
);
},
{
closed = 1;
nodes = (
"487 189 LINE",
"487 257 LINE",
"129 257 LINE",
"129 189 LINE"
);
}
);
width = 924;
}
);
leftKerningGroup = A;
note = AE;
rightKerningGroup = E;
rightMetricsKey = E;
unicode = 00C6;
},
{
color = 6;
glyphname = Eth;
lastChange = "2018-05-03 10:26:29 +0000";
layers = (
{
components = (
{
name = D;
transform = "{1, 0, 0, 1, 46, 0}";
}
);
layerId = "39D11A97-A6D9-4B52-A6F5-15D5E4373676";
paths = (
{
closed = 1;
nodes = (
"352 334 LINE",
"352 368 LINE",
"54 368 LINE",
"54 334 LINE"
);
}
);
width = 706;
},
{
components = (
{
name = D;
transform = "{1, 0, 0, 1, 45, 0}";
}
);
layerId = "D6105F7E-CAE1-4F7B-A52E-8AA6E6082DF8";
paths = (
{
closed = 1;
nodes = (
"400 292 LINE",
"400 410 LINE",
"5 410 LINE",
"5 292 LINE"
);
}
);
width = 706;
},
{
components = (
{
name = D;
transform = "{1, 0, 0, 1, 45, 0}";
}
);
layerId = "3C986DA2-2E28-42A4-B05D-29F449A87569";
paths = (
{
closed = 1;
nodes = (
"35 318 LINE",
"370 318 LINE",
"370 384 LINE",
"35 384 LINE"
);
}
);
width = 706;
}
);
note = Eth;
rightKerningGroup = O;
unicode = 00D0;
},
{
color = 6;
glyphname = Dcroat;
lastChange = "2018-05-03 10:26:29 +0000";
layers = (
{
components = (
{
name = D;
transform = "{1, 0, 0, 1, 46, 0}";
}
);
layerId = "39D11A97-A6D9-4B52-A6F5-15D5E4373676";
paths = (
{
closed = 1;
nodes = (
"352 334 LINE",
"352 368 LINE",
"54 368 LINE",
"54 334 LINE"
);
}
);
width = 706;
},
{
components = (
{
name = D;
transform = "{1, 0, 0, 1, 45, 0}";
}
);
layerId = "D6105F7E-CAE1-4F7B-A52E-8AA6E6082DF8";
paths = (
{
closed = 1;
nodes = (
"400 292 LINE",
"400 410 LINE",
"5 410 LINE",
"5 292 LINE"
);
}
);
width = 706;
},
{
components = (
{
name = D;
transform = "{1, 0, 0, 1, 45, 0}";
}
);
layerId = "3C986DA2-2E28-42A4-B05D-29F449A87569";
paths = (
{
closed = 1;
nodes = (
"35 318 LINE",
"370 318 LINE",
"370 384 LINE",
"35 384 LINE"
);
}
);
width = 706;
}
);
note = Dcroat;
rightKerningGroup = O;
unicode = 0110;
},
{
color = 6;
glyphname = Hbar;
lastChange = "2018-05-03 10:26:29 +0000";
layers = (
{
background = {
components = (
{
name = H;
transform = "{1, 0, 0, 1, 55, 0}";
}
);
paths = (
{
closed = 1;
nodes = (
"749 509 LINE",
"749 569 LINE",
"35 569 LINE",
"35 509 LINE"
);
}
);
};
components = (
{
name = H;
transform = "{1, 0, 0, 1, 55, 0}";
}
);
layerId = "39D11A97-A6D9-4B52-A6F5-15D5E4373676";
paths = (
{
closed = 1;
nodes = (
"737 514 LINE",
"737 550 LINE",
"30 550 LINE",
"30 514 LINE"
);
}
);
width = 784;
},
{
components = (
{
name = H;
transform = "{1, 0, 0, 1, 55, 0}";
}
);
layerId = "D6105F7E-CAE1-4F7B-A52E-8AA6E6082DF8";
paths = (
{
closed = 1;
nodes = (
"749 509 LINE",
"749 569 LINE",
"35 569 LINE",
"35 509 LINE"
);
}
);
width = 784;
},
{
components = (
{
name = H;
transform = "{1, 0, 0, 1, 55, 0}";
}
);
layerId = "3C986DA2-2E28-42A4-B05D-29F449A87569";
paths = (
{
closed = 1;
nodes = (
"749 509 LINE",
"749 569 LINE",
"35 569 LINE",
"35 509 LINE"
);
}
);
width = 784;
}
);
note = Hbar;
unicode = 0126;
},
{
color = 6;
glyphname = Lslash;
lastChange = "2018-05-03 10:26:29 +0000";
layers = (
{
components = (
{
name = L;
transform = "{1, 0, 0, 1, 20, 0}";
}
);
layerId = "39D11A97-A6D9-4B52-A6F5-15D5E4373676";
paths = (
{
closed = 1;
nodes = (
"296 410 LINE",
"296 480 LINE",
"0 280 LINE",
"0 210 LINE"
);
}
);
width = 562;
},
{
components = (
{
name = L;
transform = "{1, 0, 0, 1, 20, 0}";
}
);
layerId = "D6105F7E-CAE1-4F7B-A52E-8AA6E6082DF8";
paths = (
{
closed = 1;
nodes = (
"296 410 LINE",
"296 480 LINE",
"0 280 LINE",
"0 210 LINE"
);
}
);
width = 562;
},
{
components = (
{
name = L;
transform = "{1, 0, 0, 1, 20, 0}";
}
);
layerId = "3C986DA2-2E28-42A4-B05D-29F449A87569";
paths = (
{
closed = 1;
nodes = (
"0 210 LINE",
"296 410 LINE",
"296 480 LINE",
"0 280 LINE"
);
}
);
width = 562;
}
);
note = Lslash;
rightKerningGroup = L;
unicode = 0141;
},
{
color = 6;
glyphname = Eng;
lastChange = "2018-05-03 10:26:29 +0000";
layers = (
{
layerId = "39D11A97-A6D9-4B52-A6F5-15D5E4373676";
paths = (
{
closed = 1;
nodes = (
"125 0 LINE",
"125 639 LINE",
"127 639 LINE",
"516 0 LINE",
"560 0 LINE",
"560 700 LINE",
"525 700 LINE",
"525 62 LINE",
"523 62 LINE",
"133 700 LINE",
"89 700 LINE",
"89 0 LINE"
);
},
{
closed = 1;
nodes = (
"479 -218 LINE",
"560 -137 LINE",
"560 -149 LINE",
"521 -149 LINE",
"521 -124 LINE",
"462 -182 LINE",
"371 -182 LINE",
"371 -218 LINE"
);
}
);
width = 649;
},
{
background = {
paths = (
{
closed = 1;
nodes = (
"507 225 LINE",
"505 225 LINE",
"187 700 LINE",
"65 700 LINE",
"65 0 LINE",
"196 0 LINE",
"196 474 LINE",
"198 474 LINE",
"516 0 LINE",
"638 0 LINE",
"638 700 LINE",
"507 700 LINE"
);
},
{
closed = 1;
nodes = (
"531 -218 LINE",
"638 -111 LINE",
"638 498 LINE",
"507 498 LINE",
"507 -69 LINE",
"472 -104 LINE",
"357 -104 LINE",
"357 -218 LINE"
);
}
);
};
layerId = "D6105F7E-CAE1-4F7B-A52E-8AA6E6082DF8";
paths = (
{
closed = 1;
nodes = (
"196 0 LINE",
"196 474 LINE",
"198 474 LINE",
"516 0 LINE",
"638 0 LINE",
"638 700 LINE",
"507 700 LINE",
"507 225 LINE",
"505 225 LINE",
"187 700 LINE",
"65 700 LINE",
"65 0 LINE"
);
},
{
closed = 1;
nodes = (
"531 -218 LINE",
"638 -111 LINE",
"638 498 LINE",
"507 498 LINE",
"507 -69 LINE",
"472 -104 LINE",
"357 -104 LINE",
"357 -218 LINE"
);
}
);
width = 703;
},
{
layerId = "3C986DA2-2E28-42A4-B05D-29F449A87569";
paths = (
{
closed = 1;
nodes = (
"518 124 LINE",
"516 124 LINE",
"154 700 LINE",
"80 700 LINE",
"80 0 LINE",
"152 0 LINE",
"152 576 LINE",
"154 576 LINE",
"516 0 LINE",
"590 0 LINE",
"590 700 LINE",
"518 700 LINE"
);
},
{
closed = 1;
nodes = (
"499 -218 LINE",
"590 -127 LINE",
"590 98 LINE",
"516 98 LINE",
"516 -103 LINE",
"466 -152 LINE",
"366 -152 LINE",
"366 -218 LINE"
);
}
);
width = 670;
}
);
leftMetricsKey = N;
note = Eng;
rightMetricsKey = N;
unicode = 014A;
},
{
color = 6;
glyphname = Oslash;
lastChange = "2018-05-03 10:26:29 +0000";
layers = (
{
background = {
paths = (
{
closed = 1;
nodes = (
"38 -30 LINE",
"116 -30 LINE",
"650 730 LINE",
"572 730 LINE"
);
}
);
};
components = (
{
name = O;
}
);
layerId = "39D11A97-A6D9-4B52-A6F5-15D5E4373676";
paths = (
{
closed = 1;
nodes = (
"124 -24 LINE",
"624 724 LINE",
"565 724 LINE",
"65 -24 LINE"
);
}
);
width = 688;
},
{
background = {
paths = (
{
closed = 1;
nodes = (
"96 -40 LINE",
"701 740 LINE",
"592 740 LINE",
"-13 -40 LINE"
);
}
);
};
components = (
{
name = O;
}
);
layerId = "D6105F7E-CAE1-4F7B-A52E-8AA6E6082DF8";
paths = (
{
closed = 1;
nodes = (
"96 -40 LINE",
"701 740 LINE",
"592 740 LINE",
"-13 -40 LINE"
);
}
);
width = 688;
},
{
components = (
{
name = O;
}
);
layerId = "3C986DA2-2E28-42A4-B05D-29F449A87569";
paths = (
{
closed = 1;
nodes = (
"35 -30 LINE",
"113 -30 LINE",
"653 730 LINE",
"575 730 LINE"
);
}
);
width = 688;
}
);
leftKerningGroup = O;
note = Oslash;
rightKerningGroup = O;
unicode = 00D8;
},
{
color = 6;
glyphname = OE;
lastChange = "2018-05-03 10:26:29 +0000";
layers = (
{
background = {
paths = (
{
closed = 1;
nodes = (
"478 0 LINE",
"608 130 LINE",
"608 570 LINE",
"478 700 LINE",
"180 700 LINE",
"70 590 LINE",
"70 110 LINE",
"180 0 LINE"
);
},
{
closed = 1;
nodes = (
"146 135 LINE",
"146 565 LINE",
"214 632 LINE",
"454 632 LINE",
"532 555 LINE",
"532 145 LINE",
"454 68 LINE",
"214 68 LINE"
);
},
{
closed = 1;
nodes = (
"972 0 LINE",
"972 68 LINE",
"608 68 LINE",
"608 316 LINE",
"943 316 LINE",
"943 384 LINE",
"608 384 LINE",
"608 632 LINE",
"972 632 LINE",
"972 700 LINE",
"542 700 LINE",
"542 603 LINE",
"532 585 LINE",
"532 88 LINE",
"542 77 LINE",
"542 0 LINE"
);
}
);
};
layerId = "39D11A97-A6D9-4B52-A6F5-15D5E4373676";
paths = (
{
closed = 1;
nodes = (
"467 0 LINE",
"587 120 LINE",
"587 580 LINE",
"467 700 LINE",
"179 700 LINE",
"79 600 LINE",
"79 100 LINE",
"179 0 LINE"
);
},
{
closed = 1;
nodes = (
"118 113 LINE",
"118 587 LINE",
"195 663 LINE",
"449 663 LINE",
"542 571 LINE",
"542 129 LINE",
"449 37 LINE",
"195 37 LINE"
);
},
{
closed = 1;
nodes = (
"928 0 LINE",
"928 37 LINE",
"581 37 LINE",
"581 330 LINE",
"899 330 LINE",
"899 368 LINE",
"581 368 LINE",
"581 663 LINE",
"928 663 LINE",
"928 700 LINE",
"534 700 LINE",
"534 585 LINE",
"536 569 LINE",
"536 71 LINE",
"534 72 LINE",
"534 0 LINE"
);
}
);
width = 987;
},
{
background = {
paths = (
{
closed = 1;
nodes = (
"507 0 LINE",
"653 146 LINE",
"653 554 LINE",
"507 700 LINE",
"181 700 LINE",
"55 574 LINE",
"55 126 LINE",
"181 0 LINE"
);
},
{
closed = 1;
nodes = (
"191 171 LINE",
"191 529 LINE",
"242 580 LINE",
"456 580 LINE",
"517 519 LINE",
"517 181 LINE",
"456 120 LINE",
"242 120 LINE"
);
},
{
closed = 1;
nodes = (
"1011 0 LINE",
"1011 120 LINE",
"653 120 LINE",
"653 290 LINE",
"982 290 LINE",
"982 410 LINE",
"653 410 LINE",
"653 580 LINE",
"1011 580 LINE",
"1011 700 LINE",
"527 700 LINE",
"527 583 LINE",
"517 565 LINE",
"517 105 LINE",
"527 94 LINE",
"527 0 LINE"
);
}
);
};
layerId = "D6105F7E-CAE1-4F7B-A52E-8AA6E6082DF8";
paths = (
{
closed = 1;
nodes = (
"495 0 LINE",
"641 146 LINE",
"641 554 LINE",
"495 700 LINE",
"181 700 LINE",
"55 574 LINE",
"55 126 LINE",
"181 0 LINE"
);
},
{
closed = 1;
nodes = (
"191 171 LINE",
"191 529 LINE",
"245 582 LINE",
"461 582 LINE",
"515 529 LINE",
"515 171 LINE",
"461 118 LINE",
"245 118 LINE"
);
},
{
closed = 1;
nodes = (
"1027 0 LINE",
"1027 118 LINE",
"651 118 LINE",
"651 294 LINE",
"998 294 LINE",
"998 410 LINE",
"651 410 LINE",
"651 582 LINE",
"1027 582 LINE",
"1027 700 LINE",
"555 700 LINE",
"555 633 LINE",
"525 611 LINE",
"525 115 LINE",
"555 85 LINE",
"555 0 LINE"
);
}
);
width = 1062;
},
{
layerId = "3C986DA2-2E28-42A4-B05D-29F449A87569";
paths = (
{
closed = 1;
nodes = (
"478 0 LINE",
"608 130 LINE",
"608 570 LINE",
"478 700 LINE",
"180 700 LINE",
"70 590 LINE",
"70 110 LINE",
"180 0 LINE"
);
},
{
closed = 1;
nodes = (
"146 135 LINE",
"146 565 LINE",
"214 632 LINE",
"454 632 LINE",
"532 555 LINE",
"532 145 LINE",
"454 68 LINE",
"214 68 LINE"
);
},
{
closed = 1;
nodes = (
"966 0 LINE",
"966 68 LINE",
"608 68 LINE",
"608 316 LINE",
"937 316 LINE",
"937 384 LINE",
"608 384 LINE",
"608 632 LINE",
"966 632 LINE",
"966 700 LINE",
"542 700 LINE",
"542 603 LINE",
"532 585 LINE",
"532 88 LINE",
"542 77 LINE",
"542 0 LINE"
);
}
);
width = 1016;
}
);
leftKerningGroup = O;
leftMetricsKey = O;
note = OE;
rightKerningGroup = E;
rightMetricsKey = E;
unicode = 0152;
},
{
color = 6;
glyphname = Thorn;
lastChange = "2018-05-03 10:26:29 +0000";
layers = (
{
background = {
paths = (
{
closed = 0;
nodes = (
"156 145 LINE",
"479 145 LINE",
"572 238 LINE",
"572 463 LINE",
"480 555 LINE",
"80 555 LINE"
);
},
{
closed = 1;
nodes = (
"156 489 LINE",
"448 489 LINE",
"498 440 LINE",
"498 260 LINE",
"448 211 LINE",
"156 211 LINE"
);
}
);
};
layerId = "39D11A97-A6D9-4B52-A6F5-15D5E4373676";
paths = (
{
closed = 1;
nodes = (
"128 0 LINE",
"128 161 LINE",
"461 161 LINE",
"544 244 LINE",
"544 457 LINE",
"462 539 LINE",
"89 539 LINE",
"89 0 LINE"
);
},
{
closed = 1;
nodes = (
"128 504 LINE",
"448 504 LINE",
"507 446 LINE",
"507 254 LINE",
"448 196 LINE",
"128 196 LINE"
);
},
{
closed = 1;
nodes = (
"128 495 LINE",
"128 700 LINE",
"89 700 LINE",
"89 495 LINE"
);
}
);
width = 603;
},
{
background = {
paths = (
{
closed = 1;
nodes = (
"201 -26 LINE",
"201 119 LINE",
"508 119 LINE",
"617 228 LINE",
"617 473 LINE",
"509 581 LINE",
"65 581 LINE",
"65 -26 LINE"
);
},
{
closed = 1;
nodes = (
"201 463 LINE",
"450 463 LINE",
"483 430 LINE",
"483 270 LINE",
"450 237 LINE",
"201 237 LINE"
);
},
{
closed = 1;
nodes = (
"65 453 LINE",
"201 453 LINE",
"201 726 LINE",
"65 726 LINE"
);
}
);
};
layerId = "D6105F7E-CAE1-4F7B-A52E-8AA6E6082DF8";
paths = (
{
closed = 1;
nodes = (
"201 0 LINE",
"201 119 LINE",
"508 119 LINE",
"617 228 LINE",
"617 473 LINE",
"509 581 LINE",
"65 581 LINE",
"65 0 LINE"
);
},
{
closed = 1;
nodes = (
"201 465 LINE",
"447 465 LINE",
"483 430 LINE",
"483 270 LINE",
"447 235 LINE",
"201 235 LINE"
);
},
{
closed = 1;
nodes = (
"201 453 LINE",
"201 700 LINE",
"65 700 LINE",
"65 453 LINE"
);
}
);
width = 652;
},
{
layerId = "3C986DA2-2E28-42A4-B05D-29F449A87569";
paths = (
{
closed = 1;
nodes = (
"156 0 LINE",
"156 145 LINE",
"479 145 LINE",
"572 238 LINE",
"572 463 LINE",
"480 555 LINE",
"80 555 LINE",
"80 0 LINE"
);
},
{
closed = 1;
nodes = (
"156 489 LINE",
"448 489 LINE",
"498 440 LINE",
"498 260 LINE",
"448 211 LINE",
"156 211 LINE"
);
},
{
closed = 1;
nodes = (
"156 479 LINE",
"156 700 LINE",
"80 700 LINE",
"80 479 LINE"
);
}
);
width = 622;
}
);
leftMetricsKey = P;
note = Thorn;
rightMetricsKey = P;
unicode = 00DE;
},
{
color = 6;
glyphname = Germandbls;
lastChange = "2018-05-03 10:26:29 +0000";
layers = (
{
background = {
paths = (
{
closed = 1;
nodes = (
"156 0 LINE",
"156 592 LINE",
"201 636 LINE",
"546 636 LINE",
"546 700 LINE",
"169 700 LINE",
"82 613 LINE",
"82 0 LINE"
);
},
{
closed = 1;
nodes = (
"519 392 LINE",
"413 392 LINE",
"546 636 LINE",
"468 636 LINE",
"339 398 LINE",
"339 330 LINE",
"487 330 LINE",
"527 290 LINE",
"527 103 LINE",
"487 64 LINE",
"363 64 LINE",
"323 103 LINE",
"323 144 LINE",
"251 144 LINE",
"251 80 LINE",
"331 0 LINE",
"519 0 LINE",
"601 82 LINE",
"601 310 LINE"
);
}
);
};
layerId = "39D11A97-A6D9-4B52-A6F5-15D5E4373676";
paths = (
{
closed = 1;
nodes = (
"128 0 LINE",
"128 609 LINE",
"183 663 LINE",
"526 663 LINE",
"526 700 LINE",
"166 700 LINE",
"89 623 LINE",
"89 0 LINE"
);
},
{
closed = 1;
nodes = (
"511 0 LINE",
"583 72 LINE",
"583 309 LINE",
"511 381 LINE",
"388 381 LINE",
"526 663 LINE",
"485 663 LINE",
"358 401 LINE",
"358 342 LINE",
"493 342 LINE",
"543 292 LINE",
"543 84 LINE",
"492 35 LINE",
"348 35 LINE",
"298 84 LINE",
"298 119 LINE",
"259 119 LINE",
"259 70 LINE",
"329 0 LINE"
);
}
);
width = 657;
},
{
background = {
paths = (
{
closed = 1;
nodes = (
"201 0 LINE",
"201 554 LINE",
"229 582 LINE",
"599 582 LINE",
"599 700 LINE",
"168 700 LINE",
"65 597 LINE",
"65 0 LINE"
);
},
{
closed = 1;
nodes = (
"558 0 LINE",
"656 98 LINE",
"656 320 LINE",
"558 418 LINE",
"485 418 LINE",
"599 582 LINE",
"453 582 LINE",
"334 408 LINE",
"334 300 LINE",
"496 300 LINE",
"520 276 LINE",
"520 139 LINE",
"497 116 LINE",
"413 116 LINE",
"390 139 LINE",
"390 184 LINE",
"258 184 LINE",
"258 96 LINE",
"354 0 LINE"
);
}
);
};
layerId = "D6105F7E-CAE1-4F7B-A52E-8AA6E6082DF8";
paths = (
{
closed = 1;
nodes = (
"201 0 LINE",
"201 554 LINE",
"229 582 LINE",
"599 582 LINE",
"599 700 LINE",
"168 700 LINE",
"65 597 LINE",
"65 0 LINE"
);
},
{
closed = 1;
nodes = (
"558 0 LINE",
"656 98 LINE",
"656 312 LINE",
"558 410 LINE",
"479 410 LINE",
"599 582 LINE",
"455 582 LINE",
"334 404 LINE",
"334 300 LINE",
"498 300 LINE",
"522 276 LINE",
"522 139 LINE",
"499 116 LINE",
"413 116 LINE",
"390 139 LINE",
"390 184 LINE",
"258 184 LINE",
"258 96 LINE",
"354 0 LINE"
);
}
);
width = 681;
},
{
layerId = "3C986DA2-2E28-42A4-B05D-29F449A87569";
paths = (
{
closed = 1;
nodes = (
"156 0 LINE",
"156 588 LINE",
"201 632 LINE",
"554 632 LINE",
"554 700 LINE",
"167 700 LINE",
"80 613 LINE",
"80 0 LINE"
);
},
{
closed = 1;
nodes = (
"529 392 LINE",
"423 392 LINE",
"554 632 LINE",
"474 632 LINE",
"349 402 LINE",
"349 326 LINE",
"495 326 LINE",
"535 286 LINE",
"535 105 LINE",
"495 66 LINE",
"373 66 LINE",
"333 105 LINE",
"333 144 LINE",
"259 144 LINE",
"259 80 LINE",
"339 0 LINE",
"529 0 LINE",
"611 82 LINE",
"611 310 LINE"
);
}
);
width = 666;
}
);
leftMetricsKey = H;
note = uni1E9E;
unicode = 1E9E;
},
{
color = 6;
glyphname = Schwa;
lastChange = "2018-05-03 10:26:29 +0000";
layers = (
{
background = {
paths = (
{
closed = 1;
nodes = (
"196 700 LINE",
"67 571 LINE",
"67 483 LINE",
"143 483 LINE",
"143 563 LINE",
"213 632 LINE",
"472 632 LINE",
"542 563 LINE",
"542 381 LINE",
"67 381 LINE",
"67 129 LINE",
"196 0 LINE",
"489 0 LINE",
"618 129 LINE",
"618 571 LINE",
"489 700 LINE"
);
},
{
closed = 1;
nodes = (
"542 137 LINE",
"472 68 LINE",
"213 68 LINE",
"143 137 LINE",
"143 315 LINE",
"542 315 LINE"
);
}
);
};
layerId = "39D11A97-A6D9-4B52-A6F5-15D5E4373676";
paths = (
{
closed = 1;
nodes = (
"491 0 LINE",
"610 119 LINE",
"610 581 LINE",
"491 700 LINE",
"208 700 LINE",
"89 581 LINE",
"89 498 LINE",
"128 498 LINE",
"128 566 LINE",
"226 663 LINE",
"473 663 LINE",
"571 566 LINE",
"571 367 LINE",
"89 367 LINE",
"89 119 LINE",
"208 0 LINE"
);
},
{
closed = 1;
nodes = (
"128 136 LINE",
"128 329 LINE",
"571 329 LINE",
"571 136 LINE",
"471 37 LINE",
"228 37 LINE"
);
}
);
width = 698;
},
{
background = {
paths = (
{
closed = 1;
nodes = (
"185 700 LINE",
"40 555 LINE",
"40 457 LINE",
"176 457 LINE",
"176 509 LINE",
"247 580 LINE",
"451 580 LINE",
"522 509 LINE",
"522 408 LINE",
"40 408 LINE",
"40 145 LINE",
"185 0 LINE",
"513 0 LINE",
"658 145 LINE",
"658 555 LINE",
"513 700 LINE"
);
},
{
closed = 1;
nodes = (
"522 193 LINE",
"449 120 LINE",
"249 120 LINE",
"176 193 LINE",
"176 288 LINE",
"522 288 LINE"
);
}
);
};
layerId = "D6105F7E-CAE1-4F7B-A52E-8AA6E6082DF8";
paths = (
{
closed = 1;
nodes = (
"513 0 LINE",
"658 145 LINE",
"658 555 LINE",
"513 700 LINE",
"185 700 LINE",
"40 555 LINE",
"40 459 LINE",
"176 459 LINE",
"176 511 LINE",
"247 582 LINE",
"451 582 LINE",
"522 511 LINE",
"522 407 LINE",
"40 407 LINE",
"40 145 LINE",
"185 0 LINE"
);
},
{
closed = 1;
nodes = (
"176 191 LINE",
"176 289 LINE",
"522 289 LINE",
"522 191 LINE",
"449 118 LINE",
"249 118 LINE"
);
}
);
width = 698;
},
{
layerId = "3C986DA2-2E28-42A4-B05D-29F449A87569";
paths = (
{
closed = 1;
nodes = (
"199 700 LINE",
"70 571 LINE",
"70 483 LINE",
"146 483 LINE",
"146 545 LINE",
"234 632 LINE",
"464 632 LINE",
"552 545 LINE",
"552 382 LINE",
"70 382 LINE",
"70 129 LINE",
"199 0 LINE",
"499 0 LINE",
"628 129 LINE",
"628 571 LINE",
"499 700 LINE"
);
},
{
closed = 1;
nodes = (
"552 157 LINE",
"462 68 LINE",
"236 68 LINE",
"146 157 LINE",
"146 314 LINE",
"552 314 LINE"
);
}
);
width = 698;
}
);
note = uni018F;
unicode = 018F;
},
{
color = 6;
glyphname = Tbar;
lastChange = "2018-05-03 10:26:29 +0000";
layers = (
{
components = (
{
name = T;
}
);
layerId = "39D11A97-A6D9-4B52-A6F5-15D5E4373676";
paths = (
{
closed = 1;
nodes = (
"493 301 LINE",
"493 363 LINE",
"79 363 LINE",
"79 301 LINE"
);
}
);
width = 560;
},
{
associatedMasterId = "39D11A97-A6D9-4B52-A6F5-15D5E4373676";
layerId = "8AF6BA7E-4672-4BE4-A9AE-4DB948958C2C";
name = "new Layer";
width = 600;
},
{
associatedMasterId = "39D11A97-A6D9-4B52-A6F5-15D5E4373676";
layerId = "7F6AF056-48B6-4F53-BC9A-D34BFBE15044";
name = "new Layer";
width = 600;
},
{
associatedMasterId = "39D11A97-A6D9-4B52-A6F5-15D5E4373676";
layerId = "F73E8325-8E12-4C51-8F58-F416F66A4A1B";
name = "new Layer";
width = 600;
},
{
components = (
{
name = T;
}
);
layerId = "D6105F7E-CAE1-4F7B-A52E-8AA6E6082DF8";
paths = (
{
closed = 1;
nodes = (
"513 275 LINE",
"513 389 LINE",
"77 389 LINE",
"77 275 LINE"
);
}
);
width = 590;
},
{
associatedMasterId = "D6105F7E-CAE1-4F7B-A52E-8AA6E6082DF8";
layerId = "CCEC87D2-BDDB-4BB0-836F-89AA69FD70A4";
name = "new Layer";
width = 600;
},
{
associatedMasterId = "D6105F7E-CAE1-4F7B-A52E-8AA6E6082DF8";
layerId = "77C5EE56-9A9F-49D7-8F19-2FEEB456554D";
name = "new Layer";
width = 600;
},
{
associatedMasterId = "D6105F7E-CAE1-4F7B-A52E-8AA6E6082DF8";
layerId = "E3B642DC-BD26-4568-8D17-3487E48E46DF";
name = "new Layer";
width = 600;
},
{
components = (
{
name = T;
}
);
layerId = "3C986DA2-2E28-42A4-B05D-29F449A87569";
paths = (
{
closed = 1;
nodes = (
"493 301 LINE",
"493 363 LINE",
"79 363 LINE",
"79 301 LINE"
);
}
);
width = 560;
}
);
leftKerningGroup = T;
leftMetricsKey = T;
note = Tbar;
rightKerningGroup = T;
rightMetricsKey = T;
unicode = 0166;
},
{
color = 6;
glyphname = "alpha-latin";
lastChange = "2018-05-03 10:26:29 +0000";
layers = (
{
background = {
paths = (
{
closed = 1;
nodes = (
"433 0 LINE",
"505 0 LINE",
"505 498 LINE",
"431 498 LINE",
"431 426 LINE",
"349 498 LINE",
"157 498 LINE",
"65 406 LINE",
"65 92 LINE",
"157 0 LINE",
"342 0 LINE",
"433 91 LINE"
);
},
{
closed = 1;
nodes = (
"326 66 LINE",
"189 66 LINE",
"139 115 LINE",
"139 383 LINE",
"189 432 LINE",
"335 432 LINE",
"431 348 LINE",
"431 171 LINE"
);
}
);
};
layerId = "39D11A97-A6D9-4B52-A6F5-15D5E4373676";
paths = (
{
closed = 1;
nodes = (
"345 0 LINE",
"441 97 LINE",
"441 48 LINE",
"480 0 LINE",
"557 0 LINE",
"557 32 LINE",
"487 32 LINE",
"487 498 LINE",
"446 498 LINE",
"446 426 LINE",
"360 498 LINE",
"166 498 LINE",
"84 416 LINE",
"84 82 LINE",
"166 0 LINE"
);
},
{
closed = 1;
nodes = (
"122 94 LINE",
"122 404 LINE",
"181 462 LINE",
"345 462 LINE",
"449 373 LINE",
"449 155 LINE",
"330 36 LINE",
"181 36 LINE"
);
}
);
width = 597;
},
{
background = {
paths = (
{
closed = 1;
nodes = (
"338 0 LINE",
"411 71 LINE",
"411 50 LINE",
"461 0 LINE",
"605 0 LINE",
"605 110 LINE",
"535 110 LINE",
"535 498 LINE",
"403 498 LINE",
"403 451 LINE",
"351 498 LINE",
"143 498 LINE",
"35 390 LINE",
"35 108 LINE",
"143 0 LINE"
);
},
{
closed = 1;
nodes = (
"167 149 LINE",
"167 349 LINE",
"202 384 LINE",
"333 384 LINE",
"403 323 LINE",
"403 197 LINE",
"320 114 LINE",
"202 114 LINE"
);
}
);
};
layerId = "D6105F7E-CAE1-4F7B-A52E-8AA6E6082DF8";
paths = (
{
closed = 1;
nodes = (
"338 0 LINE",
"421 81 LINE",
"421 50 LINE",
"471 0 LINE",
"605 0 LINE",
"605 110 LINE",
"535 110 LINE",
"535 498 LINE",
"413 498 LINE",
"413 441 LINE",
"351 498 LINE",
"143 498 LINE",
"35 390 LINE",
"35 108 LINE",
"143 0 LINE"
);
},
{
closed = 1;
nodes = (
"167 149 LINE",
"167 349 LINE",
"202 384 LINE",
"333 384 LINE",
"403 323 LINE",
"403 197 LINE",
"320 114 LINE",
"202 114 LINE"
);
}
);
width = 605;
},
{
layerId = "3C986DA2-2E28-42A4-B05D-29F449A87569";
paths = (
{
closed = 1;
nodes = (
"505 498 LINE",
"433 498 LINE",
"433 432 LINE",
"356 498 LINE",
"157 498 LINE",
"65 406 LINE",
"65 92 LINE",
"157 0 LINE",
"342 0 LINE",
"433 91 LINE",
"433 49 LINE",
"476 0 LINE",
"575 0 LINE",
"575 62 LINE",
"505 62 LINE"
);
},
{
closed = 1;
nodes = (
"326 66 LINE",
"189 66 LINE",
"139 115 LINE",
"139 383 LINE",
"189 432 LINE",
"340 432 LINE",
"431 354 LINE",
"431 171 LINE"
);
}
);
width = 600;
}
);
leftKerningGroup = o;
note = ascript;
unicode = 0251;
},
{
color = 6;
glyphname = ae;
lastChange = "2018-05-03 10:26:29 +0000";
layers = (
{
anchors = (
{
name = bottom;
position = "{433, 0}";
},
{
name = top;
position = "{440, 498}";
}
);
background = {
paths = (
{
closed = 1;
nodes = (
"318 0 LINE",
"410 88 LINE",
"410 100 LINE",
"482 100 LINE",
"482 406 LINE",
"390 498 LINE",
"142 498 LINE",
"50 406 LINE",
"50 344 LINE",
"124 344 LINE",
"124 385 LINE",
"174 434 LINE",
"358 434 LINE",
"408 385 LINE",
"408 290 LINE",
"132 290 LINE",
"50 209 LINE",
"50 82 LINE",
"132 0 LINE"
);
},
{
closed = 1;
nodes = (
"124 103 LINE",
"124 187 LINE",
"164 226 LINE",
"408 226 LINE",
"408 165 LINE",
"303 64 LINE",
"164 64 LINE"
);
},
{
closed = 1;
nodes = (
"751 0 LINE",
"843 92 LINE",
"843 154 LINE",
"769 154 LINE",
"769 115 LINE",
"719 66 LINE",
"532 66 LINE",
"482 115 LINE",
"482 227 LINE",
"843 227 LINE",
"843 406 LINE",
"751 498 LINE",
"500 498 LINE",
"408 406 LINE",
"408 92 LINE",
"500 0 LINE"
);
},
{
closed = 1;
nodes = (
"482 383 LINE",
"532 432 LINE",
"719 432 LINE",
"769 383 LINE",
"769 291 LINE",
"482 291 LINE"
);
}
);
};
layerId = "39D11A97-A6D9-4B52-A6F5-15D5E4373676";
paths = (
{
closed = 1;
nodes = (
"722 0 LINE",
"805 83 LINE",
"805 144 LINE",
"767 144 LINE",
"767 99 LINE",
"705 39 LINE",
"514 39 LINE",
"453 98 LINE",
"453 240 LINE",
"804 240 LINE",
"804 416 LINE",
"723 498 LINE",
"490 498 LINE",
"414 422 LINE",
"414 82 LINE",
"496 0 LINE"
);
},
{
closed = 1;
nodes = (
"107 86 LINE",
"107 194 LINE",
"155 240 LINE",
"415 240 LINE",
"415 154 LINE",
"300 39 LINE",
"155 39 LINE"
);
},
{
closed = 1;
nodes = (
"315 0 LINE",
"455 140 LINE",
"455 422 LINE",
"379 498 LINE",
"155 498 LINE",
"73 416 LINE",
"73 352 LINE",
"111 352 LINE",
"111 401 LINE",
"173 461 LINE",
"354 461 LINE",
"415 401 LINE",
"415 284 LINE",
"141 284 LINE",
"69 213 LINE",
"69 72 LINE",
"141 0 LINE"
);
},
{
closed = 1;
nodes = (
"453 399 LINE",
"514 458 LINE",
"706 458 LINE",
"766 399 LINE",
"766 287 LINE",
"453 287 LINE"
);
}
);
width = 874;
},
{
anchors = (
{
name = bottom;
position = "{457, 0}";
},
{
name = top;
position = "{464, 498}";
}
);
background = {
paths = (
{
closed = 1;
nodes = (
"771 0 LINE",
"877 106 LINE",
"877 171 LINE",
"745 171 LINE",
"745 141 LINE",
"714 110 LINE",
"560 110 LINE",
"527 143 LINE",
"527 206 LINE",
"878 206 LINE",
"878 390 LINE",
"769 498 LINE",
"505 498 LINE",
"397 390 LINE",
"397 108 LINE",
"505 0 LINE"
);
},
{
closed = 1;
nodes = (
"527 357 LINE",
"560 390 LINE",
"713 390 LINE",
"746 357 LINE",
"746 298 LINE",
"527 298 LINE"
);
},
{
closed = 1;
nodes = (
"365 0 LINE",
"526 161 LINE",
"526 390 LINE",
"418 498 LINE",
"157 498 LINE",
"49 390 LINE",
"49 331 LINE",
"181 331 LINE",
"181 359 LINE",
"212 390 LINE",
"364 390 LINE",
"396 359 LINE",
"396 299 LINE",
"144 299 LINE",
"45 202 LINE",
"45 98 LINE",
"143 0 LINE"
);
},
{
closed = 1;
nodes = (
"177 131 LINE",
"177 176 LINE",
"204 203 LINE",
"396 203 LINE",
"396 177 LINE",
"323 104 LINE",
"204 104 LINE"
);
}
);
};
layerId = "D6105F7E-CAE1-4F7B-A52E-8AA6E6082DF8";
paths = (
{
closed = 1;
nodes = (
"772 0 LINE",
"878 106 LINE",
"878 171 LINE",
"746 171 LINE",
"746 141 LINE",
"715 110 LINE",
"561 110 LINE",
"528 143 LINE",
"528 206 LINE",
"879 206 LINE",
"879 390 LINE",
"770 498 LINE",
"516 498 LINE",
"398 380 LINE",
"398 108 LINE",
"506 0 LINE"
);
},
{
closed = 1;
nodes = (
"177 131 LINE",
"177 176 LINE",
"204 203 LINE",
"396 203 LINE",
"396 167 LINE",
"333 104 LINE",
"204 104 LINE"
);
},
{
closed = 1;
nodes = (
"375 0 LINE",
"526 151 LINE",
"526 380 LINE",
"408 498 LINE",
"157 498 LINE",
"49 390 LINE",
"49 331 LINE",
"181 331 LINE",
"181 359 LINE",
"212 390 LINE",
"364 390 LINE",
"396 359 LINE",
"396 299 LINE",
"144 299 LINE",
"45 202 LINE",
"45 98 LINE",
"143 0 LINE"
);
},
{
closed = 1;
nodes = (
"528 357 LINE",
"561 390 LINE",
"714 390 LINE",
"747 357 LINE",
"747 298 LINE",
"528 298 LINE"
);
}
);
width = 924;
},
{
anchors = (
{
name = bottom;
position = "{442, 0}";
},
{
name = top;
position = "{449, 498}";
}
);
layerId = "3C986DA2-2E28-42A4-B05D-29F449A87569";
paths = (
{
closed = 1;
nodes = (
"741 0 LINE",
"833 92 LINE",
"833 154 LINE",
"759 154 LINE",
"759 115 LINE",
"709 66 LINE",
"532 66 LINE",
"482 115 LINE",
"482 227 LINE",
"833 227 LINE",
"833 406 LINE",
"741 498 LINE",
"500 498 LINE",
"408 406 LINE",
"408 92 LINE",
"500 0 LINE"
);
},
{
closed = 1;
nodes = (
"134 103 LINE",
"134 187 LINE",
"174 226 LINE",
"408 226 LINE",
"408 159 LINE",
"313 64 LINE",
"174 64 LINE"
);
},
{
closed = 1;
nodes = (
"338 0 LINE",
"482 144 LINE",
"482 406 LINE",
"390 498 LINE",
"156 498 LINE",
"64 406 LINE",
"64 344 LINE",
"138 344 LINE",
"138 385 LINE",
"188 434 LINE",
"358 434 LINE",
"408 385 LINE",
"408 290 LINE",
"142 290 LINE",
"60 209 LINE",
"60 82 LINE",
"142 0 LINE"
);
},
{
closed = 1;
nodes = (
"482 383 LINE",
"532 432 LINE",
"709 432 LINE",
"759 383 LINE",
"759 291 LINE",
"482 291 LINE"
);
}
);
width = 893;
}
);
leftKerningGroup = a;
leftMetricsKey = a;
note = ae;
rightKerningGroup = e;
rightMetricsKey = e;
unicode = 00E6;
},
{
color = 6;
glyphname = eth;
lastChange = "2018-05-03 10:26:29 +0000";
layers = (
{
background = {
paths = (
{
closed = 1;
nodes = (
"212 700 LINE",
"212 638 LINE",
"331 638 LINE",
"447 449 LINE",
"447 367 LINE",
"366 438 LINE",
"157 438 LINE",
"65 346 LINE",
"65 92 LINE",
"157 0 LINE",
"431 0 LINE",
"523 92 LINE",
"523 459 LINE",
"376 700 LINE"
);
},
{
closed = 1;
nodes = (
"397 68 LINE",
"191 68 LINE",
"141 117 LINE",
"141 321 LINE",
"191 370 LINE",
"351 370 LINE",
"447 284 LINE",
"447 117 LINE"
);
},
{
closed = 1;
nodes = (
"310 488 LINE",
"536 619 LINE",
"505 672 LINE",
"279 541 LINE"
);
}
);
};
layerId = "39D11A97-A6D9-4B52-A6F5-15D5E4373676";
paths = (
{
closed = 1;
nodes = (
"429 0 LINE",
"511 82 LINE",
"511 431 LINE",
"362 700 LINE",
"237 700 LINE",
"237 659 LINE",
"338 659 LINE",
"471 427 LINE",
"471 349 LINE",
"377 432 LINE",
"172 432 LINE",
"90 350 LINE",
"90 82 LINE",
"172 0 LINE"
);
},
{
closed = 1;
nodes = (
"130 95 LINE",
"130 335 LINE",
"189 392 LINE",
"364 392 LINE",
"471 296 LINE",
"471 95 LINE",
"412 37 LINE",
"189 37 LINE"
);
},
{
closed = 1;
nodes = (
"515 617 LINE",
"494 652 LINE",
"300 539 LINE",
"320 504 LINE"
);
}
);
width = 580;
},
{
background = {
paths = (
{
closed = 1;
nodes = (
"435 0 LINE",
"543 108 LINE",
"543 505 LINE",
"399 700 LINE",
"248 700 LINE",
"409 485 LINE",
"409 400 LINE",
"348 452 LINE",
"133 452 LINE",
"25 344 LINE",
"25 108 LINE",
"133 0 LINE"
);
},
{
closed = 1;
nodes = (
"159 153 LINE",
"159 299 LINE",
"194 334 LINE",
"330 334 LINE",
"409 264 LINE",
"409 153 LINE",
"374 118 LINE",
"194 118 LINE"
);
},
{
closed = 1;
nodes = (
"356 588 LINE",
"356 700 LINE",
"172 700 LINE",
"172 588 LINE"
);
},
{
closed = 1;
nodes = (
"574 611 LINE",
"517 710 LINE",
"240 550 LINE",
"297 451 LINE"
);
}
);
};
layerId = "D6105F7E-CAE1-4F7B-A52E-8AA6E6082DF8";
paths = (
{
closed = 1;
nodes = (
"435 0 LINE",
"543 108 LINE",
"543 505 LINE",
"399 700 LINE",
"172 700 LINE",
"172 604 LINE",
"320 604 LINE",
"409 485 LINE",
"409 396 LINE",
"348 448 LINE",
"133 448 LINE",
"25 340 LINE",
"25 108 LINE",
"133 0 LINE"
);
},
{
closed = 1;
nodes = (
"159 153 LINE",
"159 299 LINE",
"194 334 LINE",
"330 334 LINE",
"409 264 LINE",
"409 153 LINE",
"374 118 LINE",
"194 118 LINE"
);
},
{
closed = 1;
nodes = (
"568 625 LINE",
"523 704 LINE",
"246 544 LINE",
"291 465 LINE"
);
}
);
width = 580;
},
{
layerId = "3C986DA2-2E28-42A4-B05D-29F449A87569";
paths = (
{
closed = 1;
nodes = (
"431 0 LINE",
"523 92 LINE",
"523 459 LINE",
"376 700 LINE",
"212 700 LINE",
"212 638 LINE",
"331 638 LINE",
"447 449 LINE",
"447 367 LINE",
"366 438 LINE",
"157 438 LINE",
"65 346 LINE",
"65 92 LINE",
"157 0 LINE"
);
},
{
closed = 1;
nodes = (
"141 117 LINE",
"141 321 LINE",
"191 370 LINE",
"351 370 LINE",
"447 284 LINE",
"447 117 LINE",
"397 68 LINE",
"191 68 LINE"
);
},
{
closed = 1;
nodes = (
"535 620 LINE",
"505 672 LINE",
"279 541 LINE",
"309 489 LINE"
);
}
);
width = 580;
}
);
note = eth;
unicode = 00F0;
},
{
color = 6;
glyphname = dcroat;
lastChange = "2018-05-03 10:26:29 +0000";
layers = (
{
components = (
{
name = d;
}
);
layerId = "39D11A97-A6D9-4B52-A6F5-15D5E4373676";
paths = (
{
closed = 1;
nodes = (
"585 572 LINE",
"585 632 LINE",
"295 632 LINE",
"295 572 LINE"
);
}
);
width = 590;
},
{
associatedMasterId = "39D11A97-A6D9-4B52-A6F5-15D5E4373676";
layerId = "8AF6BA7E-4672-4BE4-A9AE-4DB948958C2C";
name = "new Layer";
width = 600;
},
{
associatedMasterId = "39D11A97-A6D9-4B52-A6F5-15D5E4373676";
layerId = "99A51F82-47E0-43BF-8447-338ADA3FF528";
name = "new Layer";
width = 600;
},
{
associatedMasterId = "39D11A97-A6D9-4B52-A6F5-15D5E4373676";
layerId = "C575E3BA-6D59-4072-876C-EA40D7930C0D";
name = "new Layer";
width = 600;
},
{
background = {
paths = (
{
closed = 1;
nodes = (
"615 546 LINE",
"615 648 LINE",
"265 648 LINE",
"265 546 LINE"
);
}
);
};
components = (
{
name = d;
}
);
layerId = "D6105F7E-CAE1-4F7B-A52E-8AA6E6082DF8";
paths = (
{
closed = 1;
nodes = (
"620 550 LINE",
"620 644 LINE",
"253 644 LINE",
"253 550 LINE"
);
}
);
width = 610;
},
{
associatedMasterId = "D6105F7E-CAE1-4F7B-A52E-8AA6E6082DF8";
layerId = "7557A2EA-C0A3-47CB-BC64-BACDFCAEBC1C";
name = "new Layer";
width = 600;
},
{
associatedMasterId = "D6105F7E-CAE1-4F7B-A52E-8AA6E6082DF8";
layerId = "4B94482B-CAF5-49CC-871D-2CACE94FA346";
name = "new Layer";
width = 600;
},
{
associatedMasterId = "D6105F7E-CAE1-4F7B-A52E-8AA6E6082DF8";
layerId = "D8C7DDD8-B3DF-4B1A-857C-A364FCD1BDA0";
name = "new Layer";
width = 600;
},
{
components = (
{
name = d;
}
);
layerId = "3C986DA2-2E28-42A4-B05D-29F449A87569";
paths = (
{
closed = 1;
nodes = (
"585 572 LINE",
"585 632 LINE",
"295 632 LINE",
"295 572 LINE"
);
}
);
width = 590;
}
);
leftKerningGroup = o;
note = dcroat;
unicode = 0111;
},
{
color = 6;
glyphname = hbar;
lastChange = "2018-05-03 10:26:29 +0000";
layers = (
{
components = (
{
name = h;
transform = "{1, 0, 0, 1, 15, 0}";
}
);
layerId = "39D11A97-A6D9-4B52-A6F5-15D5E4373676";
paths = (
{
closed = 1;
nodes = (
"304 572 LINE",
"304 632 LINE",
"0 632 LINE",
"0 572 LINE"
);
}
);
width = 585;
},
{
associatedMasterId = "39D11A97-A6D9-4B52-A6F5-15D5E4373676";
layerId = "8AF6BA7E-4672-4BE4-A9AE-4DB948958C2C";
name = "new Layer";
width = 600;
},
{
associatedMasterId = "39D11A97-A6D9-4B52-A6F5-15D5E4373676";
layerId = "95E7B70C-3955-4FF0-933E-B9872947184D";
name = "new Layer";
width = 600;
},
{
associatedMasterId = "39D11A97-A6D9-4B52-A6F5-15D5E4373676";
layerId = "909C3EF5-11EB-4157-886C-15B61D145ECE";
name = "new Layer";
width = 600;
},
{
components = (
{
name = h;
transform = "{1, 0, 0, 1, 15, 0}";
}
);
layerId = "D6105F7E-CAE1-4F7B-A52E-8AA6E6082DF8";
paths = (
{
closed = 1;
nodes = (
"304 572 LINE",
"304 632 LINE",
"0 632 LINE",
"0 572 LINE"
);
}
);
width = 615;
},
{
associatedMasterId = "D6105F7E-CAE1-4F7B-A52E-8AA6E6082DF8";
layerId = "B2961D78-ABA6-48CD-AD05-392B8BC589EE";
name = "new Layer";
width = 600;
},
{
associatedMasterId = "D6105F7E-CAE1-4F7B-A52E-8AA6E6082DF8";
layerId = "830110E6-9AFB-4BCD-AD3E-56001C317DD6";
name = "new Layer";
width = 600;
},
{
associatedMasterId = "D6105F7E-CAE1-4F7B-A52E-8AA6E6082DF8";
layerId = "493F2C31-5D28-44F2-82C9-2DCFC4F89F06";
name = "new Layer";
width = 600;
},
{
components = (
{
name = h;
transform = "{1, 0, 0, 1, 15, 0}";
}
);
layerId = "3C986DA2-2E28-42A4-B05D-29F449A87569";
paths = (
{
closed = 1;
nodes = (
"304 572 LINE",
"304 632 LINE",
"0 632 LINE",
"0 572 LINE"
);
}
);
width = 585;
}
);
note = hbar;
rightKerningGroup = n;
rightMetricsKey = n;
unicode = 0127;
},
{
color = 6;
glyphname = idotless;
lastChange = "2018-05-03 10:26:29 +0000";
layers = (
{
anchors = (
{
name = bottom;
position = "{122, 0}";
},
{
name = ogonek;
position = "{159, 0}";
},
{
name = top;
position = "{122, 498}";
}
);
layerId = "39D11A97-A6D9-4B52-A6F5-15D5E4373676";
paths = (
{
closed = 1;
nodes = (
"132 0 LINE",
"132 498 LINE",
"94 498 LINE",
"94 0 LINE"
);
}
);
width = 226;
},
{
anchors = (
{
name = bottom;
position = "{122, 0}";
},
{
name = ogonek;
position = "{159, 0}";
},
{
name = top;
position = "{122, 498}";
}
);
background = {
paths = (
{
closed = 1;
nodes = (
"159 0 LINE",
"159 498 LINE",
"85 498 LINE",
"85 0 LINE"
);
}
);
};
layerId = "D6105F7E-CAE1-4F7B-A52E-8AA6E6082DF8";
paths = (
{
closed = 1;
nodes = (
"202 0 LINE",
"202 498 LINE",
"70 498 LINE",
"70 0 LINE"
);
}
);
width = 272;
},
{
anchors = (
{
name = bottom;
position = "{122, 0}";
},
{
name = ogonek;
position = "{159, 0}";
},
{
name = top;
position = "{122, 498}";
}
);
layerId = "3C986DA2-2E28-42A4-B05D-29F449A87569";
paths = (
{
closed = 1;
nodes = (
"159 0 LINE",
"159 498 LINE",
"85 498 LINE",
"85 0 LINE"
);
}
);
width = 244;
}
);
note = dotlessi;
unicode = 0131;
},
{
color = 6;
glyphname = jdotless;
lastChange = "2018-05-03 10:26:29 +0000";
layers = (
{
anchors = (
{
name = bottom;
position = "{151, 0}";
},
{
name = top;
position = "{132, 498}";
}
);
layerId = "39D11A97-A6D9-4B52-A6F5-15D5E4373676";
paths = (
{
closed = 1;
nodes = (
"58 -218 LINE",
"139 -137 LINE",
"139 498 LINE",
"101 498 LINE",
"101 -124 LINE",
"42 -182 LINE",
"-49 -182 LINE",
"-49 -218 LINE"
);
}
);
width = 242;
},
{
anchors = (
{
name = bottom;
position = "{151, 0}";
},
{
name = top;
position = "{132, 498}";
}
);
layerId = "D6105F7E-CAE1-4F7B-A52E-8AA6E6082DF8";
paths = (
{
closed = 1;
nodes = (
"110 -218 LINE",
"217 -111 LINE",
"217 498 LINE",
"85 498 LINE",
"85 -69 LINE",
"50 -104 LINE",
"-65 -104 LINE",
"-65 -218 LINE"
);
}
);
width = 272;
},
{
anchors = (
{
name = bottom;
position = "{151, 0}";
},
{
name = top;
position = "{132, 498}";
}
);
layerId = "3C986DA2-2E28-42A4-B05D-29F449A87569";
paths = (
{
closed = 1;
nodes = (
"78 -218 LINE",
"169 -127 LINE",
"169 498 LINE",
"95 498 LINE",
"95 -103 LINE",
"45 -152 LINE",
"-55 -152 LINE",
"-55 -218 LINE"
);
}
);
width = 254;
}
);
leftKerningGroup = j;
note = dotlessj;
unicode = 0237;
},
{
color = 6;
glyphname = kgreenlandic;
lastChange = "2018-05-03 10:26:29 +0000";
layers = (
{
background = {
paths = (
{
closed = 0;
nodes = (
"301 282 LINE",
"151 282 LINE"
);
},
{
closed = 0;
nodes = (
"151 214 LINE",
"302 214 LINE"
);
},
{
closed = 0;
nodes = (
"364 250 LINE"
);
}
);
};
layerId = "39D11A97-A6D9-4B52-A6F5-15D5E4373676";
paths = (
{
closed = 1;
nodes = (
"123 0 LINE",
"123 229 LINE",
"305 229 LINE",
"469 0 LINE",
"512 0 LINE",
"337 251 LINE",
"498 498 LINE",
"454 498 LINE",
"304 267 LINE",
"123 267 LINE",
"123 498 LINE",
"84 498 LINE",
"84 0 LINE"
);
}
);
width = 544;
},
{
background = {
paths = (
{
closed = 1;
nodes = (
"308 307 LINE",
"196 307 LINE",
"196 498 LINE",
"60 498 LINE",
"60 0 LINE",
"196 0 LINE",
"196 189 LINE",
"307 189 LINE",
"447 0 LINE",
"601 0 LINE",
"401 250 LINE",
"584 498 LINE",
"432 498 LINE"
);
}
);
};
layerId = "D6105F7E-CAE1-4F7B-A52E-8AA6E6082DF8";
paths = (
{
closed = 1;
nodes = (
"196 0 LINE",
"196 189 LINE",
"296 189 LINE",
"435 0 LINE",
"591 0 LINE",
"408 248 LINE",
"574 498 LINE",
"420 498 LINE",
"295 307 LINE",
"196 307 LINE",
"196 498 LINE",
"60 498 LINE",
"60 0 LINE"
);
}
);
width = 591;
},
{
layerId = "3C986DA2-2E28-42A4-B05D-29F449A87569";
paths = (
{
closed = 1;
nodes = (
"301 282 LINE",
"151 282 LINE",
"151 498 LINE",
"75 498 LINE",
"75 0 LINE",
"151 0 LINE",
"151 214 LINE",
"302 214 LINE",
"456 0 LINE",
"542 0 LINE",
"364 250 LINE",
"527 498 LINE",
"441 498 LINE"
);
}
);
width = 562;
}
);
leftMetricsKey = k;
note = kgreenlandic;
rightKerningGroup = k;
unicode = 0138;
},
{
color = 6;
glyphname = lslash;
lastChange = "2018-05-03 10:26:29 +0000";
layers = (
{
background = {
paths = (
{
closed = 1;
nodes = (
"9 226 LINE",
"283 426 LINE",
"283 496 LINE",
"9 296 LINE"
);
}
);
};
components = (
{
name = l;
transform = "{1, 0, 0, 1, 20, 0}";
}
);
layerId = "39D11A97-A6D9-4B52-A6F5-15D5E4373676";
paths = (
{
closed = 1;
nodes = (
"274 418 LINE",
"274 488 LINE",
"0 288 LINE",
"0 218 LINE"
);
}
);
width = 274;
},
{
background = {
paths = (
{
closed = 1;
nodes = (
"9 226 LINE",
"283 426 LINE",
"283 496 LINE",
"9 296 LINE"
);
}
);
};
components = (
{
name = l;
transform = "{1, 0, 0, 1, 20, 0}";
}
);
layerId = "D6105F7E-CAE1-4F7B-A52E-8AA6E6082DF8";
paths = (
{
closed = 1;
nodes = (
"274 418 LINE",
"274 488 LINE",
"0 288 LINE",
"0 218 LINE"
);
}
);
width = 274;
},
{
components = (
{
name = l;
transform = "{1, 0, 0, 1, 20, 0}";
}
);
layerId = "3C986DA2-2E28-42A4-B05D-29F449A87569";
paths = (
{
closed = 1;
nodes = (
"0 218 LINE",
"274 418 LINE",
"274 488 LINE",
"0 288 LINE"
);
}
);
width = 274;
}
);
note = lslash;
unicode = 0142;
},
{
color = 6;
glyphname = eng;
lastChange = "2018-05-03 10:26:29 +0000";
layers = (
{
layerId = "39D11A97-A6D9-4B52-A6F5-15D5E4373676";
paths = (
{
closed = 1;
nodes = (
"122 0 LINE",
"122 322 LINE",
"262 462 LINE",
"371 462 LINE",
"430 404 LINE",
"430 0 LINE",
"468 0 LINE",
"468 416 LINE",
"386 498 LINE",
"247 498 LINE",
"124 375 LINE",
"124 498 LINE",
"84 498 LINE",
"84 0 LINE"
);
},
{
closed = 1;
nodes = (
"387 -218 LINE",
"468 -137 LINE",
"468 198 LINE",
"430 198 LINE",
"430 -124 LINE",
"371 -182 LINE",
"280 -182 LINE",
"280 -218 LINE"
);
}
);
width = 555;
},
{
background = {
paths = (
{
closed = 1;
nodes = (
"192 0 LINE",
"192 286 LINE",
"290 384 LINE",
"376 384 LINE",
"411 349 LINE",
"411 0 LINE",
"543 0 LINE",
"543 390 LINE",
"435 498 LINE",
"262 498 LINE",
"184 420 LINE",
"184 498 LINE",
"60 498 LINE",
"60 0 LINE"
);
},
{
closed = 1;
nodes = (
"436 -218 LINE",
"543 -111 LINE",
"543 198 LINE",
"411 198 LINE",
"411 -69 LINE",
"376 -104 LINE",
"261 -104 LINE",
"261 -218 LINE"
);
}
);
};
layerId = "D6105F7E-CAE1-4F7B-A52E-8AA6E6082DF8";
paths = (
{
closed = 1;
nodes = (
"192 0 LINE",
"192 286 LINE",
"290 384 LINE",
"376 384 LINE",
"411 349 LINE",
"411 0 LINE",
"543 0 LINE",
"543 390 LINE",
"435 498 LINE",
"262 498 LINE",
"184 420 LINE",
"184 498 LINE",
"60 498 LINE",
"60 0 LINE"
);
},
{
closed = 1;
nodes = (
"436 -218 LINE",
"543 -111 LINE",
"543 198 LINE",
"411 198 LINE",
"411 -69 LINE",
"376 -104 LINE",
"261 -104 LINE",
"261 -218 LINE"
);
}
);
width = 598;
},
{
layerId = "3C986DA2-2E28-42A4-B05D-29F449A87569";
paths = (
{
closed = 1;
nodes = (
"149 0 LINE",
"149 308 LINE",
"273 432 LINE",
"373 432 LINE",
"423 383 LINE",
"423 0 LINE",
"497 0 LINE",
"497 406 LINE",
"405 498 LINE",
"253 498 LINE",
"147 392 LINE",
"147 498 LINE",
"75 498 LINE",
"75 0 LINE"
);
},
{
closed = 1;
nodes = (
"406 -218 LINE",
"497 -127 LINE",
"497 198 LINE",
"423 198 LINE",
"423 -103 LINE",
"373 -152 LINE",
"273 -152 LINE",
"273 -218 LINE"
);
}
);
width = 572;
}
);
leftKerningGroup = n;
note = eng;
rightKerningGroup = n;
unicode = 014B;
},
{
color = 6;
glyphname = oslash;
lastChange = "2018-05-03 10:26:29 +0000";
layers = (
{
background = {
paths = (
{
closed = 1;
nodes = (
"25 -50 LINE",
"103 -50 LINE",
"643 710 LINE",
"565 710 LINE"
);
}
);
};
components = (
{
name = o;
}
);
layerId = "39D11A97-A6D9-4B52-A6F5-15D5E4373676";
paths = (
{
closed = 1;
nodes = (
"69 -40 LINE",
"528 538 LINE",
"469 538 LINE",
"10 -40 LINE"
);
}
);
width = 570;
},
{
background = {
paths = (
{
closed = 1;
nodes = (
"136 -40 LINE",
"584 538 LINE",
"475 538 LINE",
"27 -40 LINE"
);
}
);
};
components = (
{
name = o;
}
);
layerId = "D6105F7E-CAE1-4F7B-A52E-8AA6E6082DF8";
paths = (
{
closed = 1;
nodes = (
"132 -40 LINE",
"580 538 LINE",
"471 538 LINE",
"23 -40 LINE"
);
}
);
width = 600;
},
{
components = (
{
name = o;
}
);
layerId = "3C986DA2-2E28-42A4-B05D-29F449A87569";
paths = (
{
closed = 1;
nodes = (
"15 -40 LINE",
"93 -40 LINE",
"548 538 LINE",
"470 538 LINE"
);
}
);
width = 570;
}
);
leftKerningGroup = o;
note = oslash;
rightKerningGroup = o;
unicode = 00F8;
},
{
color = 6;
glyphname = oe;
lastChange = "2018-05-03 10:26:29 +0000";
layers = (
{
layerId = "39D11A97-A6D9-4B52-A6F5-15D5E4373676";
paths = (
{
closed = 1;
nodes = (
"402 0 LINE",
"478 76 LINE",
"478 422 LINE",
"402 498 LINE",
"156 498 LINE",
"74 416 LINE",
"74 82 LINE",
"156 0 LINE"
);
},
{
closed = 1;
nodes = (
"112 94 LINE",
"112 404 LINE",
"171 462 LINE",
"380 462 LINE",
"439 404 LINE",
"439 94 LINE",
"380 36 LINE",
"171 36 LINE"
);
},
{
closed = 1;
nodes = (
"745 0 LINE",
"829 83 LINE",
"829 144 LINE",
"790 144 LINE",
"790 99 LINE",
"729 39 LINE",
"539 39 LINE",
"478 98 LINE",
"478 240 LINE",
"828 240 LINE",
"828 416 LINE",
"746 498 LINE",
"521 498 LINE",
"439 416 LINE",
"439 82 LINE",
"521 0 LINE"
);
},
{
closed = 1;
nodes = (
"478 399 LINE",
"539 458 LINE",
"729 458 LINE",
"790 399 LINE",
"790 287 LINE",
"478 287 LINE"
);
}
);
width = 898;
},
{
background = {
paths = (
{
closed = 1;
nodes = (
"442 0 LINE",
"550 108 LINE",
"550 390 LINE",
"442 498 LINE",
"158 498 LINE",
"50 390 LINE",
"50 108 LINE",
"158 0 LINE"
);
},
{
closed = 1;
nodes = (
"184 151 LINE",
"184 347 LINE",
"217 380 LINE",
"383 380 LINE",
"416 347 LINE",
"416 151 LINE",
"383 118 LINE",
"217 118 LINE"
);
},
{
closed = 1;
nodes = (
"793 0 LINE",
"901 108 LINE",
"901 180 LINE",
"767 180 LINE",
"767 151 LINE",
"734 118 LINE",
"583 118 LINE",
"550 151 LINE",
"550 201 LINE",
"901 201 LINE",
"901 390 LINE",
"793 498 LINE",
"524 498 LINE",
"416 390 LINE",
"416 108 LINE",
"524 0 LINE"
);
},
{
closed = 1;
nodes = (
"550 347 LINE",
"583 380 LINE",
"734 380 LINE",
"767 347 LINE",
"767 291 LINE",
"550 291 LINE"
);
}
);
};
layerId = "D6105F7E-CAE1-4F7B-A52E-8AA6E6082DF8";
paths = (
{
closed = 1;
nodes = (
"430 0 LINE",
"548 118 LINE",
"548 380 LINE",
"430 498 LINE",
"158 498 LINE",
"50 390 LINE",
"50 108 LINE",
"158 0 LINE"
);
},
{
closed = 1;
nodes = (
"182 149 LINE",
"182 349 LINE",
"217 384 LINE",
"383 384 LINE",
"418 349 LINE",
"418 149 LINE",
"383 114 LINE",
"217 114 LINE"
);
},
{
closed = 1;
nodes = (
"794 0 LINE",
"900 106 LINE",
"900 171 LINE",
"768 171 LINE",
"768 141 LINE",
"737 110 LINE",
"581 110 LINE",
"548 143 LINE",
"548 206 LINE",
"901 206 LINE",
"901 390 LINE",
"792 498 LINE",
"526 498 LINE",
"418 390 LINE",
"418 108 LINE",
"526 0 LINE"
);
},
{
closed = 1;
nodes = (
"548 357 LINE",
"581 390 LINE",
"736 390 LINE",
"769 357 LINE",
"769 298 LINE",
"548 298 LINE"
);
}
);
width = 946;
},
{
layerId = "3C986DA2-2E28-42A4-B05D-29F449A87569";
paths = (
{
closed = 1;
nodes = (
"413 0 LINE",
"505 92 LINE",
"505 406 LINE",
"413 498 LINE",
"157 498 LINE",
"65 406 LINE",
"65 92 LINE",
"157 0 LINE"
);
},
{
closed = 1;
nodes = (
"139 115 LINE",
"139 383 LINE",
"189 432 LINE",
"381 432 LINE",
"431 383 LINE",
"431 115 LINE",
"381 66 LINE",
"189 66 LINE"
);
},
{
closed = 1;
nodes = (
"764 0 LINE",
"856 92 LINE",
"856 154 LINE",
"782 154 LINE",
"782 115 LINE",
"732 66 LINE",
"555 66 LINE",
"505 115 LINE",
"505 227 LINE",
"856 227 LINE",
"856 406 LINE",
"764 498 LINE",
"523 498 LINE",
"431 406 LINE",
"431 92 LINE",
"523 0 LINE"
);
},
{
closed = 1;
nodes = (
"505 383 LINE",
"555 432 LINE",
"732 432 LINE",
"782 383 LINE",
"782 291 LINE",
"505 291 LINE"
);
}
);
width = 916;
}
);
leftKerningGroup = o;
leftMetricsKey = o;
note = oe;
rightKerningGroup = e;
rightMetricsKey = e;
unicode = 0153;
},
{
color = 6;
glyphname = thorn;
lastChange = "2018-05-03 10:26:29 +0000";
layers = (
{
layerId = "39D11A97-A6D9-4B52-A6F5-15D5E4373676";
paths = (
{
closed = 1;
nodes = (
"122 -212 LINE",
"122 84 LINE",
"215 0 LINE",
"405 0 LINE",
"487 82 LINE",
"487 416 LINE",
"405 498 LINE",
"224 498 LINE",
"119 392 LINE",
"119 710 LINE",
"84 710 LINE",
"84 -212 LINE"
);
},
{
closed = 1;
nodes = (
"122 133 LINE",
"122 339 LINE",
"245 462 LINE",
"390 462 LINE",
"449 404 LINE",
"449 94 LINE",
"390 36 LINE",
"229 36 LINE"
);
}
);
width = 561;
},
{
background = {
paths = (
{
closed = 1;
nodes = (
"177 710 LINE",
"45 710 LINE",
"45 -212 LINE",
"179 -212 LINE",
"179 35 LINE",
"219 0 LINE",
"437 0 LINE",
"545 108 LINE",
"545 390 LINE",
"437 498 LINE",
"222 498 LINE",
"177 453 LINE"
);
},
{
closed = 1;
nodes = (
"270 380 LINE",
"378 380 LINE",
"411 347 LINE",
"411 151 LINE",
"378 118 LINE",
"258 118 LINE",
"179 189 LINE",
"179 289 LINE"
);
}
);
};
layerId = "D6105F7E-CAE1-4F7B-A52E-8AA6E6082DF8";
paths = (
{
closed = 1;
nodes = (
"192 -212 LINE",
"192 53 LINE",
"256 0 LINE",
"452 0 LINE",
"560 108 LINE",
"560 390 LINE",
"452 498 LINE",
"255 498 LINE",
"192 437 LINE",
"192 710 LINE",
"60 710 LINE",
"60 -212 LINE"
);
},
{
closed = 1;
nodes = (
"192 185 LINE",
"192 303 LINE",
"273 384 LINE",
"393 384 LINE",
"428 349 LINE",
"428 149 LINE",
"393 114 LINE",
"271 114 LINE"
);
}
);
width = 610;
},
{
layerId = "3C986DA2-2E28-42A4-B05D-29F449A87569";
paths = (
{
closed = 1;
nodes = (
"147 710 LINE",
"75 710 LINE",
"75 -212 LINE",
"149 -212 LINE",
"149 72 LINE",
"231 0 LINE",
"423 0 LINE",
"515 92 LINE",
"515 406 LINE",
"423 498 LINE",
"236 498 LINE",
"147 409 LINE"
);
},
{
closed = 1;
nodes = (
"256 432 LINE",
"391 432 LINE",
"441 383 LINE",
"441 115 LINE",
"391 66 LINE",
"245 66 LINE",
"149 153 LINE",
"149 325 LINE"
);
}
);
width = 580;
}
);
leftMetricsKey = p;
note = thorn;
rightKerningGroup = o;
rightMetricsKey = p;
unicode = 00FE;
},
{
color = 6;
glyphname = germandbls;
lastChange = "2018-05-03 10:26:29 +0000";
layers = (
{
layerId = "39D11A97-A6D9-4B52-A6F5-15D5E4373676";
paths = (
{
closed = 1;
nodes = (
"137 0 LINE",
"137 605 LINE",
"193 659 LINE",
"383 659 LINE",
"439 605 LINE",
"439 520 LINE",
"359 399 LINE",
"359 337 LINE",
"408 288 LINE",
"484 288 LINE",
"534 238 LINE",
"534 83 LINE",
"483 34 LINE",
"372 34 LINE",
"321 83 LINE",
"321 128 LINE",
"282 128 LINE",
"282 72 LINE",
"354 0 LINE",
"500 0 LINE",
"572 72 LINE",
"572 247 LINE",
"500 319 LINE",
"425 319 LINE",
"396 348 LINE",
"396 393 LINE",
"477 515 LINE",
"477 616 LINE",
"400 694 LINE",
"176 694 LINE",
"99 616 LINE",
"99 0 LINE"
);
}
);
width = 625;
},
{
background = {
paths = (
{
closed = 1;
nodes = (
"450 361 LINE",
"444 367 LINE",
"444 385 LINE",
"525 475 LINE",
"525 597 LINE",
"422 700 LINE",
"153 700 LINE",
"50 597 LINE",
"50 0 LINE",
"182 0 LINE",
"182 558 LINE",
"210 586 LINE",
"365 586 LINE",
"393 558 LINE",
"393 493 LINE",
"310 403 LINE",
"310 324 LINE",
"385 249 LINE",
"464 249 LINE",
"488 225 LINE",
"488 135 LINE",
"465 112 LINE",
"389 112 LINE",
"366 135 LINE",
"366 170 LINE",
"236 170 LINE",
"236 98 LINE",
"334 0 LINE",
"522 0 LINE",
"620 98 LINE",
"620 263 LINE",
"522 361 LINE"
);
}
);
};
layerId = "D6105F7E-CAE1-4F7B-A52E-8AA6E6082DF8";
paths = (
{
closed = 1;
nodes = (
"182 0 LINE",
"182 560 LINE",
"210 588 LINE",
"365 588 LINE",
"393 560 LINE",
"393 493 LINE",
"310 401 LINE",
"310 324 LINE",
"385 249 LINE",
"464 249 LINE",
"488 225 LINE",
"488 135 LINE",
"465 112 LINE",
"389 112 LINE",
"366 135 LINE",
"366 170 LINE",
"236 170 LINE",
"236 98 LINE",
"334 0 LINE",
"522 0 LINE",
"620 98 LINE",
"620 263 LINE",
"522 361 LINE",
"450 361 LINE",
"444 367 LINE",
"444 385 LINE",
"525 475 LINE",
"525 597 LINE",
"422 700 LINE",
"153 700 LINE",
"50 597 LINE",
"50 0 LINE"
);
}
);
width = 625;
},
{
layerId = "3C986DA2-2E28-42A4-B05D-29F449A87569";
paths = (
{
closed = 1;
nodes = (
"434 335 LINE",
"414 355 LINE",
"414 390 LINE",
"495 500 LINE",
"495 609 LINE",
"408 696 LINE",
"167 696 LINE",
"80 609 LINE",
"80 0 LINE",
"154 0 LINE",
"154 588 LINE",
"199 632 LINE",
"376 632 LINE",
"421 588 LINE",
"421 510 LINE",
"340 400 LINE",
"340 332 LINE",
"399 273 LINE",
"476 273 LINE",
"516 233 LINE",
"516 103 LINE",
"476 64 LINE",
"378 64 LINE",
"338 103 LINE",
"338 144 LINE",
"264 144 LINE",
"264 82 LINE",
"346 0 LINE",
"508 0 LINE",
"590 82 LINE",
"590 253 LINE",
"508 335 LINE"
);
}
);
width = 625;
}
);
note = uni00DF;
unicode = 00DF;
},
{
color = 6;
glyphname = tbar;
lastChange = "2018-05-03 10:26:29 +0000";
layers = (
{
components = (
{
name = t;
}
);
layerId = "39D11A97-A6D9-4B52-A6F5-15D5E4373676";
paths = (
{
closed = 1;
nodes = (
"350 212 LINE",
"350 272 LINE",
"30 272 LINE",
"30 212 LINE"
);
}
);
width = 397;
},
{
associatedMasterId = "39D11A97-A6D9-4B52-A6F5-15D5E4373676";
layerId = "8AF6BA7E-4672-4BE4-A9AE-4DB948958C2C";
name = "new Layer";
width = 600;
},
{
associatedMasterId = "39D11A97-A6D9-4B52-A6F5-15D5E4373676";
layerId = "26E13327-8330-4649-BEE6-6EB9E5BC37E6";
name = "new Layer";
width = 600;
},
{
associatedMasterId = "39D11A97-A6D9-4B52-A6F5-15D5E4373676";
layerId = "76AC1F11-46C0-40E2-AD3B-1629C40F4BEF";
name = "new Layer";
width = 600;
},
{
components = (
{
name = t;
}
);
layerId = "D6105F7E-CAE1-4F7B-A52E-8AA6E6082DF8";
paths = (
{
closed = 1;
nodes = (
"395 201 LINE",
"395 311 LINE",
"15 311 LINE",
"15 201 LINE"
);
}
);
width = 397;
},
{
associatedMasterId = "D6105F7E-CAE1-4F7B-A52E-8AA6E6082DF8";
layerId = "B402E141-6F24-483E-92B0-664B470D6612";
name = "new Layer";
width = 600;
},
{
associatedMasterId = "D6105F7E-CAE1-4F7B-A52E-8AA6E6082DF8";
layerId = "9311D43C-E83C-4FBC-B6EF-152230D48143";
name = "new Layer";
width = 600;
},
{
associatedMasterId = "D6105F7E-CAE1-4F7B-A52E-8AA6E6082DF8";
layerId = "52E62A53-9BC1-47FF-8362-2E585943DF25";
name = "new Layer";
width = 600;
},
{
components = (
{
name = t;
}
);
layerId = "3C986DA2-2E28-42A4-B05D-29F449A87569";
paths = (
{
closed = 1;
nodes = (
"350 212 LINE",
"350 272 LINE",
"30 272 LINE",
"30 212 LINE"
);
}
);
width = 397;
}
);
leftKerningGroup = t;
note = tbar;
rightKerningGroup = t;
unicode = 0167;
},
{
color = 6;
glyphname = fi;
lastChange = "2018-05-03 10:26:29 +0000";
layers = (
{
background = {
paths = (
{
closed = 1;
nodes = (
"115 589 LINE",
"169 643 LINE",
"261 643 LINE",
"261 701 LINE",
"145 701 LINE",
"57 613 LINE",
"57 0 LINE",
"115 0 LINE",
"115 380 LINE",
"261 380 LINE",
"261 0 LINE",
"320 0 LINE",
"320 438 LINE",
"115 438 LINE"
);
}
);
};
layerId = "39D11A97-A6D9-4B52-A6F5-15D5E4373676";
paths = (
{
closed = 1;
nodes = (
"166 0 LINE",
"166 460 LINE",
"422 460 LINE",
"422 498 LINE",
"166 498 LINE",
"166 628 LINE",
"221 683 LINE",
"323 683 LINE",
"323 719 LINE",
"206 719 LINE",
"128 640 LINE",
"128 498 LINE",
"39 498 LINE",
"39 460 LINE",
"128 460 LINE",
"128 0 LINE"
);
},
{
closed = 1;
nodes = (
"471 0 LINE",
"471 498 LINE",
"433 498 LINE",
"433 0 LINE"
);
}
);
width = 555;
},
{
background = {
paths = (
{
closed = 1;
nodes = (
"224 0 LINE",
"224 380 LINE",
"481 380 LINE",
"481 498 LINE",
"224 498 LINE",
"224 565 LINE",
"253 594 LINE",
"381 594 LINE",
"381 710 LINE",
"193 710 LINE",
"90 607 LINE",
"90 498 LINE",
"0 498 LINE",
"0 380 LINE",
"90 380 LINE",
"90 0 LINE"
);
},
{
closed = 1;
nodes = (
"535 0 LINE",
"535 498 LINE",
"401 498 LINE",
"401 0 LINE"
);
}
);
};
layerId = "D6105F7E-CAE1-4F7B-A52E-8AA6E6082DF8";
paths = (
{
closed = 1;
nodes = (
"239 0 LINE",
"239 386 LINE",
"498 386 LINE",
"498 498 LINE",
"239 498 LINE",
"239 558 LINE",
"267 586 LINE",
"396 586 LINE",
"396 696 LINE",
"208 696 LINE",
"107 595 LINE",
"107 498 LINE",
"15 498 LINE",
"15 386 LINE",
"107 386 LINE",
"107 0 LINE"
);
},
{
closed = 1;
nodes = (
"560 0 LINE",
"560 498 LINE",
"428 498 LINE",
"428 0 LINE"
);
}
);
width = 620;
},
{
layerId = "3C986DA2-2E28-42A4-B05D-29F449A87569";
paths = (
{
closed = 1;
nodes = (
"194 0 LINE",
"194 432 LINE",
"451 432 LINE",
"451 498 LINE",
"194 498 LINE",
"194 601 LINE",
"239 646 LINE",
"351 646 LINE",
"351 710 LINE",
"207 710 LINE",
"120 623 LINE",
"120 498 LINE",
"30 498 LINE",
"30 432 LINE",
"120 432 LINE",
"120 0 LINE"
);
},
{
closed = 1;
nodes = (
"505 0 LINE",
"505 498 LINE",
"431 498 LINE",
"431 0 LINE"
);
}
);
width = 580;
}
);
leftKerningGroup = f;
leftMetricsKey = f;
note = fi;
rightMetricsKey = u;
unicode = FB01;
},
{
color = 6;
glyphname = fl;
lastChange = "2018-05-03 10:26:29 +0000";
layers = (
{
layerId = "39D11A97-A6D9-4B52-A6F5-15D5E4373676";
paths = (
{
closed = 1;
nodes = (
"166 0 LINE",
"166 460 LINE",
"329 460 LINE",
"329 498 LINE",
"166 498 LINE",
"166 621 LINE",
"221 676 LINE",
"423 676 LINE",
"423 710 LINE",
"206 710 LINE",
"128 632 LINE",
"128 498 LINE",
"39 498 LINE",
"39 460 LINE",
"128 460 LINE",
"128 0 LINE"
);
},
{
closed = 1;
nodes = (
"475 0 LINE",
"475 710 LINE",
"438 710 LINE",
"438 0 LINE"
);
}
);
width = 564;
},
{
background = {
paths = (
{
closed = 1;
nodes = (
"239 0 LINE",
"239 386 LINE",
"386 386 LINE",
"386 498 LINE",
"239 498 LINE",
"239 572 LINE",
"267 600 LINE",
"496 600 LINE",
"496 710 LINE",
"208 710 LINE",
"107 609 LINE",
"107 498 LINE",
"15 498 LINE",
"15 386 LINE",
"107 386 LINE",
"107 0 LINE"
);
},
{
closed = 1;
nodes = (
"580 0 LINE",
"580 710 LINE",
"446 710 LINE",
"446 0 LINE"
);
}
);
};
layerId = "D6105F7E-CAE1-4F7B-A52E-8AA6E6082DF8";
paths = (
{
closed = 1;
nodes = (
"239 0 LINE",
"239 386 LINE",
"386 386 LINE",
"386 498 LINE",
"239 498 LINE",
"239 574 LINE",
"267 602 LINE",
"496 602 LINE",
"496 710 LINE",
"208 710 LINE",
"107 609 LINE",
"107 498 LINE",
"15 498 LINE",
"15 386 LINE",
"107 386 LINE",
"107 0 LINE"
);
},
{
closed = 1;
nodes = (
"593 0 LINE",
"593 710 LINE",
"459 710 LINE",
"459 0 LINE"
);
}
);
width = 658;
},
{
layerId = "3C986DA2-2E28-42A4-B05D-29F449A87569";
paths = (
{
closed = 1;
nodes = (
"194 0 LINE",
"194 432 LINE",
"351 432 LINE",
"351 498 LINE",
"194 498 LINE",
"194 603 LINE",
"239 648 LINE",
"451 648 LINE",
"451 710 LINE",
"207 710 LINE",
"120 623 LINE",
"120 498 LINE",
"30 498 LINE",
"30 432 LINE",
"120 432 LINE",
"120 0 LINE"
);
},
{
closed = 1;
nodes = (
"520 0 LINE",
"520 710 LINE",
"446 710 LINE",
"446 0 LINE"
);
}
);
width = 600;
}
);
leftKerningGroup = f;
leftMetricsKey = f;
note = fl;
rightMetricsKey = l;
unicode = FB02;
},
{
color = 0;
glyphname = ordfeminine;
lastChange = "2018-05-03 07:09:38 +0000";
layers = (
{
layerId = "39D11A97-A6D9-4B52-A6F5-15D5E4373676";
paths = (
{
closed = 1;
nodes = (
"278 269 LINE",
"279 271 OFFCURVE",
"342 334 OFFCURVE",
"357 349 CURVE",
"357 329 OFFCURVE",
"357 269 OFFCURVE",
"357 269 CURVE",
"411 269 LINE",
"411 581 LINE",
"342 649 LINE",
"122 649 LINE",
"54 581 LINE",
"54 529 LINE",
"107 529 LINE",
"107 529 OFFCURVE",
"107 553 OFFCURVE",
"107 558 CURVE",
"110 562 OFFCURVE",
"141 591 OFFCURVE",
"144 594 CURVE",
"149 594 OFFCURVE",
"316 594 OFFCURVE",
"321 594 CURVE",
"323 591 OFFCURVE",
"354 562 OFFCURVE",
"357 558 CURVE",
"357 555 OFFCURVE",
"357 516 OFFCURVE",
"357 508 CURVE",
"346 508 OFFCURVE",
"122 508 OFFCURVE",
"122 508 CURVE",
"54 440 LINE",
"54 338 LINE",
"122 269 LINE"
);
},
{
closed = 1;
nodes = (
"141 326 OFFCURVE",
"110 357 OFFCURVE",
"107 360 CURVE",
"107 364 OFFCURVE",
"107 412 OFFCURVE",
"107 417 CURVE",
"110 420 OFFCURVE",
"141 451 OFFCURVE",
"144 453 CURVE",
"149 453 OFFCURVE",
"347 453 OFFCURVE",
"357 453 CURVE",
"357 446 OFFCURVE",
"357 422 OFFCURVE",
"357 419 CURVE",
"354 415 OFFCURVE",
"266 326 OFFCURVE",
"263 323 CURVE",
"258 323 OFFCURVE",
"148 323 OFFCURVE",
"144 323 CURVE"
);
}
);
width = 493;
},
{
layerId = "D6105F7E-CAE1-4F7B-A52E-8AA6E6082DF8";
paths = (
{
closed = 1;
nodes = (
"278 269 LINE",
"279 271 OFFCURVE",
"342 334 OFFCURVE",
"357 349 CURVE",
"357 329 OFFCURVE",
"357 269 OFFCURVE",
"357 269 CURVE",
"411 269 LINE",
"411 581 LINE",
"342 649 LINE",
"122 649 LINE",
"54 581 LINE",
"54 529 LINE",
"107 529 LINE",
"107 529 OFFCURVE",
"107 553 OFFCURVE",
"107 558 CURVE",
"110 562 OFFCURVE",
"141 591 OFFCURVE",
"144 594 CURVE",
"149 594 OFFCURVE",
"316 594 OFFCURVE",
"321 594 CURVE",
"323 591 OFFCURVE",
"354 562 OFFCURVE",
"357 558 CURVE",
"357 555 OFFCURVE",
"357 516 OFFCURVE",
"357 508 CURVE",
"346 508 OFFCURVE",
"122 508 OFFCURVE",
"122 508 CURVE",
"54 440 LINE",
"54 338 LINE",
"122 269 LINE"
);
},
{
closed = 1;
nodes = (
"141 326 OFFCURVE",
"110 357 OFFCURVE",
"107 360 CURVE",
"107 364 OFFCURVE",
"107 412 OFFCURVE",
"107 417 CURVE",
"110 420 OFFCURVE",
"141 451 OFFCURVE",
"144 453 CURVE",
"149 453 OFFCURVE",
"347 453 OFFCURVE",
"357 453 CURVE",
"357 446 OFFCURVE",
"357 422 OFFCURVE",
"357 419 CURVE",
"354 415 OFFCURVE",
"266 326 OFFCURVE",
"263 323 CURVE",
"258 323 OFFCURVE",
"148 323 OFFCURVE",
"144 323 CURVE"
);
}
);
width = 493;
},
{
layerId = "3C986DA2-2E28-42A4-B05D-29F449A87569";
paths = (
{
closed = 1;
nodes = (
"54 581 LINE",
"54 529 LINE",
"107 529 LINE",
"107 529 OFFCURVE",
"107 553 OFFCURVE",
"107 558 CURVE",
"110 562 OFFCURVE",
"141 591 OFFCURVE",
"144 594 CURVE",
"149 594 OFFCURVE",
"316 594 OFFCURVE",
"321 594 CURVE",
"323 591 OFFCURVE",
"354 562 OFFCURVE",
"357 558 CURVE",
"357 555 OFFCURVE",
"357 516 OFFCURVE",
"357 508 CURVE",
"346 508 OFFCURVE",
"122 508 OFFCURVE",
"122 508 CURVE",
"54 440 LINE",
"54 338 LINE",
"122 269 LINE",
"278 269 LINE",
"279 271 OFFCURVE",
"342 334 OFFCURVE",
"357 349 CURVE",
"357 329 OFFCURVE",
"357 269 OFFCURVE",
"357 269 CURVE",
"411 269 LINE",
"411 581 LINE",
"342 649 LINE",
"122 649 LINE"
);
},
{
closed = 1;
nodes = (
"357 446 OFFCURVE",
"357 422 OFFCURVE",
"357 419 CURVE",
"354 415 OFFCURVE",
"266 326 OFFCURVE",
"263 323 CURVE",
"258 323 OFFCURVE",
"148 323 OFFCURVE",
"144 323 CURVE",
"141 326 OFFCURVE",
"110 357 OFFCURVE",
"107 360 CURVE",
"107 364 OFFCURVE",
"107 412 OFFCURVE",
"107 417 CURVE",
"110 420 OFFCURVE",
"141 451 OFFCURVE",
"144 453 CURVE",
"149 453 OFFCURVE",
"347 453 OFFCURVE",
"357 453 CURVE"
);
}
);
width = 493;
}
);
note = ordfeminine;
unicode = 00AA;
},
{
color = 0;
glyphname = ordmasculine;
lastChange = "2018-05-03 07:09:38 +0000";
layers = (
{
layerId = "39D11A97-A6D9-4B52-A6F5-15D5E4373676";
paths = (
{
closed = 1;
nodes = (
"260 380 LINE",
"320 438 LINE",
"320 583 LINE",
"260 641 LINE",
"117 641 LINE",
"57 583 LINE",
"57 438 LINE",
"117 380 LINE"
);
},
{
closed = 1;
nodes = (
"107 459 LINE",
"107 560 LINE",
"138 591 LINE",
"239 591 LINE",
"268 560 LINE",
"268 459 LINE",
"239 430 LINE",
"138 430 LINE"
);
}
);
width = 403;
},
{
layerId = "D6105F7E-CAE1-4F7B-A52E-8AA6E6082DF8";
paths = (
{
closed = 1;
nodes = (
"260 380 LINE",
"320 438 LINE",
"320 583 LINE",
"260 641 LINE",
"117 641 LINE",
"57 583 LINE",
"57 438 LINE",
"117 380 LINE"
);
},
{
closed = 1;
nodes = (
"107 459 LINE",
"107 560 LINE",
"138 591 LINE",
"239 591 LINE",
"268 560 LINE",
"268 459 LINE",
"239 430 LINE",
"138 430 LINE"
);
}
);
width = 403;
},
{
layerId = "3C986DA2-2E28-42A4-B05D-29F449A87569";
paths = (
{
closed = 1;
nodes = (
"117 641 LINE",
"57 583 LINE",
"57 438 LINE",
"117 380 LINE",
"260 380 LINE",
"320 438 LINE",
"320 583 LINE",
"260 641 LINE"
);
},
{
closed = 1;
nodes = (
"239 430 LINE",
"138 430 LINE",
"107 459 LINE",
"107 560 LINE",
"138 591 LINE",
"239 591 LINE",
"268 560 LINE",
"268 459 LINE"
);
}
);
width = 403;
}
);
note = ordmasculine;
unicode = 00BA;
},
{
color = 0;
glyphname = nmod;
lastChange = "2018-05-03 07:09:38 +0000";
layers = (
{
layerId = "39D11A97-A6D9-4B52-A6F5-15D5E4373676";
paths = (
{
closed = 1;
nodes = (
"410 378 LINE",
"410 397 LINE",
"392 397 LINE SMOOTH",
"368 397 OFFCURVE",
"350 405 OFFCURVE",
"350 424 CURVE SMOOTH",
"350 599 LINE SMOOTH",
"350 660 OFFCURVE",
"323 708 OFFCURVE",
"240 708 CURVE SMOOTH",
"168 708 OFFCURVE",
"128 658 OFFCURVE",
"116 601 CURVE",
"116 548 LINE",
"135 548 LINE",
"135 628 OFFCURVE",
"173 677 OFFCURVE",
"221 677 CURVE SMOOTH",
"266 677 OFFCURVE",
"281 652 OFFCURVE",
"281 595 CURVE SMOOTH",
"281 424 LINE SMOOTH",
"281 405 OFFCURVE",
"264 397 OFFCURVE",
"239 397 CURVE SMOOTH",
"229 397 LINE",
"229 378 LINE"
);
},
{
closed = 1;
nodes = (
"187 378 LINE",
"187 397 LINE",
"177 397 LINE SMOOTH",
"152 397 OFFCURVE",
"135 405 OFFCURVE",
"135 424 CURVE SMOOTH",
"135 706 LINE",
"114 706 LINE",
"17 670 LINE",
"22 652 LINE",
"30 655 OFFCURVE",
"42 659 OFFCURVE",
"50 659 CURVE SMOOTH",
"58 659 OFFCURVE",
"66 656 OFFCURVE",
"66 643 CURVE SMOOTH",
"66 424 LINE SMOOTH",
"66 405 OFFCURVE",
"48 397 OFFCURVE",
"23 397 CURVE SMOOTH",
"6 397 LINE",
"6 378 LINE"
);
}
);
width = 416;
},
{
layerId = "D6105F7E-CAE1-4F7B-A52E-8AA6E6082DF8";
paths = (
{
closed = 1;
nodes = (
"410 378 LINE",
"410 397 LINE",
"392 397 LINE SMOOTH",
"368 397 OFFCURVE",
"350 405 OFFCURVE",
"350 424 CURVE SMOOTH",
"350 599 LINE SMOOTH",
"350 660 OFFCURVE",
"323 708 OFFCURVE",
"240 708 CURVE SMOOTH",
"168 708 OFFCURVE",
"128 658 OFFCURVE",
"116 601 CURVE",
"116 548 LINE",
"135 548 LINE",
"135 628 OFFCURVE",
"173 677 OFFCURVE",
"221 677 CURVE SMOOTH",
"266 677 OFFCURVE",
"281 652 OFFCURVE",
"281 595 CURVE SMOOTH",
"281 424 LINE SMOOTH",
"281 405 OFFCURVE",
"264 397 OFFCURVE",
"239 397 CURVE SMOOTH",
"229 397 LINE",
"229 378 LINE"
);
},
{
closed = 1;
nodes = (
"187 378 LINE",
"187 397 LINE",
"177 397 LINE SMOOTH",
"152 397 OFFCURVE",
"135 405 OFFCURVE",
"135 424 CURVE SMOOTH",
"135 706 LINE",
"114 706 LINE",
"17 670 LINE",
"22 652 LINE",
"30 655 OFFCURVE",
"42 659 OFFCURVE",
"50 659 CURVE SMOOTH",
"58 659 OFFCURVE",
"66 656 OFFCURVE",
"66 643 CURVE SMOOTH",
"66 424 LINE SMOOTH",
"66 405 OFFCURVE",
"48 397 OFFCURVE",
"23 397 CURVE SMOOTH",
"6 397 LINE",
"6 378 LINE"
);
}
);
width = 416;
},
{
layerId = "3C986DA2-2E28-42A4-B05D-29F449A87569";
paths = (
{
closed = 1;
nodes = (
"410 378 LINE",
"410 397 LINE",
"392 397 LINE SMOOTH",
"368 397 OFFCURVE",
"350 405 OFFCURVE",
"350 424 CURVE SMOOTH",
"350 599 LINE SMOOTH",
"350 660 OFFCURVE",
"323 708 OFFCURVE",
"240 708 CURVE SMOOTH",
"168 708 OFFCURVE",
"128 658 OFFCURVE",
"116 601 CURVE",
"116 548 LINE",
"135 548 LINE",
"135 628 OFFCURVE",
"173 677 OFFCURVE",
"221 677 CURVE SMOOTH",
"266 677 OFFCURVE",
"281 652 OFFCURVE",
"281 595 CURVE SMOOTH",
"281 424 LINE SMOOTH",
"281 405 OFFCURVE",
"264 397 OFFCURVE",
"239 397 CURVE SMOOTH",
"229 397 LINE",
"229 378 LINE"
);
},
{
closed = 1;
nodes = (
"187 378 LINE",
"187 397 LINE",
"177 397 LINE SMOOTH",
"152 397 OFFCURVE",
"135 405 OFFCURVE",
"135 424 CURVE SMOOTH",
"135 706 LINE",
"114 706 LINE",
"17 670 LINE",
"22 652 LINE",
"30 655 OFFCURVE",
"42 659 OFFCURVE",
"50 659 CURVE SMOOTH",
"58 659 OFFCURVE",
"66 656 OFFCURVE",
"66 643 CURVE SMOOTH",
"66 424 LINE SMOOTH",
"66 405 OFFCURVE",
"48 397 OFFCURVE",
"23 397 CURVE SMOOTH",
"6 397 LINE",
"6 378 LINE"
);
}
);
width = 416;
}
);
note = uni207F;
unicode = 207F;
},
{
glyphname = Delta;
lastChange = "2018-05-04 05:10:55 +0000";
layers = (
{
layerId = "39D11A97-A6D9-4B52-A6F5-15D5E4373676";
paths = (
{
closed = 1;
nodes = (
"587 0 LINE",
"587 39 LINE",
"349 700 LINE",
"294 700 LINE",
"54 39 LINE",
"54 0 LINE"
);
},
{
closed = 1;
nodes = (
"319 660 LINE",
"324 660 LINE",
"547 36 LINE",
"94 36 LINE"
);
}
);
width = 642;
},
{
background = {
paths = (
{
closed = 1;
nodes = (
"248 700 LINE",
"5 88 LINE",
"5 0 LINE",
"637 0 LINE",
"637 88 LINE",
"394 700 LINE"
);
},
{
closed = 1;
nodes = (
"318 566 LINE",
"324 566 LINE",
"493 112 LINE",
"149 112 LINE"
);
}
);
};
layerId = "D6105F7E-CAE1-4F7B-A52E-8AA6E6082DF8";
paths = (
{
closed = 1;
nodes = (
"637 0 LINE",
"637 88 LINE",
"394 700 LINE",
"248 700 LINE",
"5 88 LINE",
"5 0 LINE"
);
},
{
closed = 1;
nodes = (
"318 562 LINE",
"324 562 LINE",
"497 112 LINE",
"145 112 LINE"
);
}
);
width = 642;
},
{
layerId = "3C986DA2-2E28-42A4-B05D-29F449A87569";
paths = (
{
closed = 1;
nodes = (
"270 700 LINE",
"35 58 LINE",
"35 0 LINE",
"607 0 LINE",
"607 58 LINE",
"372 700 LINE"
);
},
{
closed = 1;
nodes = (
"318 638 LINE",
"324 638 LINE",
"527 64 LINE",
"113 64 LINE"
);
}
);
width = 642;
}
);
note = Delta;
unicode = 0394;
},
{
glyphname = Omega;
lastChange = "2018-05-04 05:10:55 +0000";
layers = (
{
background = {
paths = (
{
closed = 1;
nodes = (
"242 0 LINE",
"242 176 LINE",
"133 285 LINE",
"133 601 LINE",
"197 666 LINE",
"495 666 LINE",
"559 601 LINE",
"559 285 LINE",
"450 176 LINE",
"450 0 LINE",
"613 0 LINE",
"613 33 LINE",
"483 33 LINE",
"483 160 LINE",
"595 272 LINE",
"595 618 LINE",
"513 700 LINE",
"179 700 LINE",
"97 618 LINE",
"97 272 LINE",
"209 160 LINE",
"209 33 LINE",
"79 33 LINE",
"79 0 LINE"
);
}
);
};
layerId = "39D11A97-A6D9-4B52-A6F5-15D5E4373676";
paths = (
{
closed = 1;
nodes = (
"244 0 LINE",
"244 175 LINE",
"134 285 LINE",
"134 599 LINE",
"198 664 LINE",
"494 664 LINE",
"558 599 LINE",
"558 285 LINE",
"448 175 LINE",
"448 0 LINE",
"613 0 LINE",
"613 35 LINE",
"484 35 LINE",
"484 161 LINE",
"595 272 LINE",
"595 618 LINE",
"513 700 LINE",
"179 700 LINE",
"97 618 LINE",
"97 272 LINE",
"208 161 LINE",
"208 35 LINE",
"79 35 LINE",
"79 0 LINE"
);
}
);
width = 692;
},
{
background = {
paths = (
{
closed = 1;
nodes = (
"531 166 LINE",
"643 278 LINE",
"643 589 LINE",
"532 700 LINE",
"159 700 LINE",
"48 589 LINE",
"48 278 LINE",
"160 166 LINE",
"160 116 LINE",
"30 116 LINE",
"30 0 LINE",
"290 0 LINE",
"290 212 LINE",
"182 320 LINE",
"182 542 LINE",
"222 582 LINE",
"469 582 LINE",
"509 542 LINE",
"509 320 LINE",
"401 212 LINE",
"401 0 LINE",
"661 0 LINE",
"661 116 LINE",
"531 116 LINE"
);
}
);
};
layerId = "D6105F7E-CAE1-4F7B-A52E-8AA6E6082DF8";
paths = (
{
closed = 1;
nodes = (
"290 0 LINE",
"290 207 LINE",
"184 314 LINE",
"184 540 LINE",
"226 582 LINE",
"465 582 LINE",
"507 540 LINE",
"507 314 LINE",
"401 207 LINE",
"401 0 LINE",
"661 0 LINE",
"661 114 LINE",
"531 114 LINE",
"531 166 LINE",
"643 278 LINE",
"643 584 LINE",
"527 700 LINE",
"164 700 LINE",
"48 584 LINE",
"48 278 LINE",
"160 166 LINE",
"160 114 LINE",
"30 114 LINE",
"30 0 LINE"
);
}
);
width = 691;
},
{
layerId = "3C986DA2-2E28-42A4-B05D-29F449A87569";
paths = (
{
closed = 1;
nodes = (
"501 162 LINE",
"613 274 LINE",
"613 605 LINE",
"518 700 LINE",
"173 700 LINE",
"78 605 LINE",
"78 274 LINE",
"190 162 LINE",
"190 64 LINE",
"60 64 LINE",
"60 0 LINE",
"260 0 LINE",
"260 188 LINE",
"152 296 LINE",
"152 578 LINE",
"208 634 LINE",
"483 634 LINE",
"539 578 LINE",
"539 296 LINE",
"431 188 LINE",
"431 0 LINE",
"631 0 LINE",
"631 64 LINE",
"501 64 LINE"
);
}
);
width = 691;
}
);
note = Omega;
unicode = 03A9;
},
{
glyphname = mu;
lastChange = "2018-05-04 05:10:55 +0000";
layers = (
{
background = {
paths = (
{
closed = 1;
nodes = (
"326 0 LINE",
"431 105 LINE",
"431 0 LINE",
"471 0 LINE",
"471 498 LINE",
"433 498 LINE",
"433 160 LINE",
"309 36 LINE",
"206 36 LINE",
"127 114 LINE",
"127 498 LINE",
"89 498 LINE",
"89 94 LINE",
"183 0 LINE"
);
},
{
closed = 1;
nodes = (
"128 -200 LINE",
"128 76 LINE",
"127 82 LINE",
"127 268 LINE",
"89 268 LINE",
"89 -200 LINE"
);
}
);
};
layerId = "39D11A97-A6D9-4B52-A6F5-15D5E4373676";
paths = (
{
closed = 1;
nodes = (
"311 0 LINE",
"436 125 LINE",
"436 0 LINE",
"474 0 LINE",
"474 498 LINE",
"436 498 LINE",
"436 176 LINE",
"297 36 LINE",
"186 36 LINE",
"127 94 LINE",
"127 498 LINE",
"89 498 LINE",
"89 82 LINE",
"171 0 LINE"
);
},
{
closed = 1;
nodes = (
"127 -200 LINE",
"127 76 LINE",
"127 82 LINE",
"127 268 LINE",
"89 268 LINE",
"89 -200 LINE"
);
}
);
width = 565;
},
{
background = {
paths = (
{
closed = 1;
nodes = (
"386 498 LINE",
"386 216 LINE",
"288 118 LINE",
"227 118 LINE",
"174 171 LINE",
"174 498 LINE",
"40 498 LINE",
"40 138 LINE",
"178 0 LINE",
"336 0 LINE",
"388 52 LINE",
"388 0 LINE",
"520 0 LINE",
"520 498 LINE"
);
}
);
};
layerId = "D6105F7E-CAE1-4F7B-A52E-8AA6E6082DF8";
paths = (
{
closed = 1;
nodes = (
"316 0 LINE",
"398 82 LINE",
"398 0 LINE",
"522 0 LINE",
"522 498 LINE",
"390 498 LINE",
"390 212 LINE",
"292 114 LINE",
"227 114 LINE",
"172 169 LINE",
"172 498 LINE",
"40 498 LINE",
"40 168 LINE",
"208 0 LINE"
);
},
{
closed = 1;
nodes = (
"170 -200 LINE",
"170 82 LINE",
"172 100 LINE",
"172 310 LINE",
"40 310 LINE",
"40 -200 LINE"
);
}
);
width = 565;
},
{
layerId = "3C986DA2-2E28-42A4-B05D-29F449A87569";
paths = (
{
closed = 1;
nodes = (
"324 0 LINE",
"420 96 LINE",
"420 0 LINE",
"492 0 LINE",
"492 498 LINE",
"418 498 LINE",
"418 180 LINE",
"304 66 LINE",
"214 66 LINE",
"144 135 LINE",
"144 498 LINE",
"70 498 LINE",
"70 122 LINE",
"192 0 LINE"
);
},
{
closed = 1;
nodes = (
"144 -200 LINE",
"144 78 LINE",
"144 89 LINE",
"144 284 LINE",
"70 284 LINE",
"70 -200 LINE"
);
}
);
width = 567;
}
);
note = mu;
unicode = 03BC;
},
{
glyphname = pi;
lastChange = "2018-05-04 05:10:55 +0000";
layers = (
{
background = {
paths = (
{
closed = 1;
nodes = (
"637 0 LINE",
"637 35 LINE",
"568 35 LINE",
"522 82 LINE",
"522 461 LINE",
"637 461 LINE",
"637 496 LINE",
"74 497 LINE",
"74 462 LINE",
"484 462 LINE",
"484 72 LINE",
"556 0 LINE"
);
},
{
closed = 1;
nodes = (
"217 0 LINE",
"217 483 LINE",
"178 483 LINE",
"178 0 LINE"
);
}
);
};
layerId = "39D11A97-A6D9-4B52-A6F5-15D5E4373676";
paths = (
{
closed = 1;
nodes = (
"637 0 LINE",
"637 35 LINE",
"572 35 LINE",
"522 85 LINE",
"522 463 LINE",
"637 463 LINE",
"637 498 LINE",
"74 498 LINE",
"74 463 LINE",
"484 463 LINE",
"484 72 LINE",
"556 0 LINE"
);
},
{
closed = 1;
nodes = (
"217 0 LINE",
"217 484 LINE",
"178 484 LINE",
"178 0 LINE"
);
}
);
width = 710;
},
{
background = {
paths = (
{
closed = 1;
nodes = (
"685 0 LINE",
"685 114 LINE",
"599 114 LINE",
"569 143 LINE",
"569 380 LINE",
"685 380 LINE",
"685 498 LINE",
"25 499 LINE",
"25 381 LINE",
"435 381 LINE",
"435 98 LINE",
"533 0 LINE"
);
},
{
closed = 1;
nodes = (
"264 0 LINE",
"264 485 LINE",
"130 485 LINE",
"130 0 LINE"
);
}
);
};
layerId = "D6105F7E-CAE1-4F7B-A52E-8AA6E6082DF8";
paths = (
{
closed = 1;
nodes = (
"685 0 LINE",
"685 114 LINE",
"597 114 LINE",
"567 143 LINE",
"567 383 LINE",
"685 383 LINE",
"685 498 LINE",
"25 498 LINE",
"25 383 LINE",
"435 383 LINE",
"435 98 LINE",
"533 0 LINE"
);
},
{
closed = 1;
nodes = (
"263 0 LINE",
"263 485 LINE",
"131 485 LINE",
"131 0 LINE"
);
}
);
width = 710;
},
{
layerId = "3C986DA2-2E28-42A4-B05D-29F449A87569";
paths = (
{
closed = 1;
nodes = (
"655 497 LINE",
"55 498 LINE",
"55 432 LINE",
"465 432 LINE",
"465 82 LINE",
"547 0 LINE",
"655 0 LINE",
"655 65 LINE",
"579 65 LINE",
"539 105 LINE",
"539 431 LINE",
"655 431 LINE"
);
},
{
closed = 1;
nodes = (
"160 0 LINE",
"234 0 LINE",
"234 484 LINE",
"160 484 LINE"
);
}
);
width = 710;
}
);
note = pi;
unicode = 03C0;
},
{
glyphname = "koKai-thai";
lastChange = "2018-05-04 10:35:52 +0000";
layers = (
{
anchors = (
{
name = bottom;
position = "{499, 0}";
},
{
name = top;
position = "{499, 498}";
}
);
background = {
paths = (
{
closed = 1;
nodes = (
"131 0 LINE",
"131 296 LINE",
"196 388 LINE",
"112 477 LINE",
"160 520 LINE",
"391 520 LINE",
"444 467 LINE",
"444 0 LINE",
"481 0 LINE",
"481 487 LINE",
"410 558 LINE",
"150 558 LINE",
"65 473 LINE",
"151 388 LINE",
"94 316 LINE",
"94 0 LINE"
);
}
);
};
layerId = "39D11A97-A6D9-4B52-A6F5-15D5E4373676";
paths = (
{
closed = 1;
nodes = (
"132 0 LINE",
"132 304 LINE",
"196 388 LINE",
"112 473 LINE",
"163 522 LINE",
"390 522 LINE",
"443 469 LINE",
"443 0 LINE",
"481 0 LINE",
"481 487 LINE",
"410 558 LINE",
"150 558 LINE",
"65 473 LINE",
"151 388 LINE",
"94 314 LINE",
"94 0 LINE"
);
}
);
width = 570;
},
{
anchors = (
{
name = bottom;
position = "{524, 0}";
},
{
name = top;
position = "{524, 498}";
}
);
background = {
paths = (
{
closed = 1;
nodes = (
"204 0 LINE",
"204 265 LINE",
"258 343 LINE",
"179 425 LINE",
"199 442 LINE",
"393 442 LINE",
"420 415 LINE",
"420 0 LINE",
"554 0 LINE",
"554 461 LINE",
"457 558 LINE",
"152 558 LINE",
"25 431 LINE",
"114 343 LINE",
"70 284 LINE",
"70 0 LINE"
);
}
);
};
layerId = "D6105F7E-CAE1-4F7B-A52E-8AA6E6082DF8";
paths = (
{
closed = 1;
nodes = (
"204 0 LINE",
"204 265 LINE",
"258 343 LINE",
"179 425 LINE",
"199 442 LINE",
"393 442 LINE",
"420 415 LINE",
"420 0 LINE",
"554 0 LINE",
"554 461 LINE",
"457 558 LINE",
"152 558 LINE",
"25 431 LINE",
"114 343 LINE",
"70 284 LINE",
"70 0 LINE"
);
}
);
width = 619;
},
{
anchors = (
{
name = bottom;
position = "{509, 0}";
},
{
name = top;
position = "{509, 498}";
}
);
layerId = "3C986DA2-2E28-42A4-B05D-29F449A87569";
paths = (
{
closed = 1;
nodes = (
"159 0 LINE",
"159 284 LINE",
"220 371 LINE",
"138 457 LINE",
"175 490 LINE",
"392 490 LINE",
"435 447 LINE",
"435 0 LINE",
"509 0 LINE",
"509 477 LINE",
"428 558 LINE",
"151 558 LINE",
"50 457 LINE",
"137 371 LINE",
"85 304 LINE",
"85 0 LINE"
);
}
);
width = 589;
}
);
note = uni0E01;
unicode = 0E01;
},
{
glyphname = "thoThung-thai";
lastChange = "2018-05-04 10:40:16 +0000";
layers = (
{
anchors = (
{
name = bottom;
position = "{493, 0}";
},
{
name = top;
position = "{493, 498}";
}
);
background = {
paths = (
{
closed = 1;
nodes = (
"196 0 LINE",
"244 48 LINE",
"244 110 LINE",
"196 158 LINE",
"140 158 LINE",
"120 141 LINE",
"122 183 LINE",
"122 304 LINE",
"190 388 LINE",
"106 473 LINE",
"157 522 LINE",
"384 522 LINE",
"437 469 LINE",
"437 0 LINE",
"475 0 LINE",
"475 487 LINE",
"404 558 LINE",
"144 558 LINE",
"59 473 LINE",
"145 388 LINE",
"84 314 LINE",
"84 48 LINE",
"132 0 LINE"
);
},
{
closed = 1;
nodes = (
"118 58 LINE",
"118 100 LINE",
"144 126 LINE",
"184 126 LINE",
"210 100 LINE",
"210 58 LINE",
"184 32 LINE",
"144 32 LINE"
);
}
);
};
layerId = "39D11A97-A6D9-4B52-A6F5-15D5E4373676";
paths = (
{
closed = 1;
nodes = (
"196 0 LINE",
"244 48 LINE",
"244 110 LINE",
"196 158 LINE",
"140 158 LINE",
"120 141 LINE",
"122 183 LINE",
"122 304 LINE",
"190 388 LINE",
"106 473 LINE",
"157 522 LINE",
"384 522 LINE",
"437 469 LINE",
"437 0 LINE",
"475 0 LINE",
"475 487 LINE",
"404 558 LINE",
"144 558 LINE",
"59 473 LINE",
"145 388 LINE",
"84 314 LINE",
"84 48 LINE",
"132 0 LINE"
);
},
{
closed = 1;
nodes = (
"118 58 LINE",
"118 100 LINE",
"144 126 LINE",
"184 126 LINE",
"210 100 LINE",
"210 58 LINE",
"184 32 LINE",
"144 32 LINE"
);
}
);
width = 564;
},
{
anchors = (
{
name = bottom;
position = "{534, 0}";
},
{
name = top;
position = "{534, 498}";
}
);
background = {
paths = (
{
closed = 1;
nodes = (
"247 0 LINE",
"317 67 LINE",
"317 163 LINE",
"248 228 LINE",
"215 228 LINE",
"206 228 LINE",
"208 236 LINE",
"208 267 LINE",
"268 343 LINE",
"189 425 LINE",
"209 442 LINE",
"403 442 LINE",
"430 415 LINE",
"430 0 LINE",
"564 0 LINE",
"564 461 LINE",
"467 558 LINE",
"162 558 LINE",
"35 431 LINE",
"124 343 LINE",
"76 284 LINE",
"76 67 LINE",
"144 0 LINE"
);
},
{
closed = 1;
nodes = (
"160 99 LINE",
"160 133 LINE",
"179 153 LINE",
"214 153 LINE",
"234 133 LINE",
"234 99 LINE",
"214 79 LINE",
"179 79 LINE"
);
}
);
};
layerId = "D6105F7E-CAE1-4F7B-A52E-8AA6E6082DF8";
paths = (
{
closed = 1;
nodes = (
"247 0 LINE",
"317 67 LINE",
"317 163 LINE",
"248 228 LINE",
"215 228 LINE",
"206 228 LINE",
"208 236 LINE",
"208 267 LINE",
"268 343 LINE",
"189 425 LINE",
"209 442 LINE",
"403 442 LINE",
"430 415 LINE",
"430 0 LINE",
"564 0 LINE",
"564 461 LINE",
"467 558 LINE",
"162 558 LINE",
"35 431 LINE",
"124 343 LINE",
"76 284 LINE",
"76 67 LINE",
"144 0 LINE"
);
},
{
closed = 1;
nodes = (
"160 99 LINE",
"160 133 LINE",
"179 153 LINE",
"214 153 LINE",
"234 133 LINE",
"234 99 LINE",
"214 79 LINE",
"179 79 LINE"
);
}
);
width = 629;
},
{
anchors = (
{
name = bottom;
position = "{509, 0}";
},
{
name = top;
position = "{509, 498}";
}
);
layerId = "3C986DA2-2E28-42A4-B05D-29F449A87569";
paths = (
{
closed = 1;
nodes = (
"217 0 LINE",
"277 59 LINE",
"277 133 LINE",
"217 190 LINE",
"169 190 LINE",
"150 190 LINE",
"155 238 LINE",
"155 284 LINE",
"220 371 LINE",
"138 457 LINE",
"175 490 LINE",
"392 490 LINE",
"435 447 LINE",
"435 0 LINE",
"509 0 LINE",
"509 477 LINE",
"428 558 LINE",
"151 558 LINE",
"50 457 LINE",
"137 371 LINE",
"81 304 LINE",
"81 59 LINE",
"141 0 LINE"
);
},
{
closed = 1;
nodes = (
"135 74 LINE",
"135 116 LINE",
"161 140 LINE",
"197 140 LINE",
"223 116 LINE",
"223 74 LINE",
"197 50 LINE",
"161 50 LINE"
);
}
);
width = 589;
}
);
note = uni0E16;
unicode = 0E16;
},
{
glyphname = "phoSamphao-thai";
lastChange = "2018-05-04 10:40:16 +0000";
layers = (
{
anchors = (
{
name = bottom;
position = "{540, 0}";
},
{
name = top;
position = "{540, 498}";
}
);
background = {
paths = (
{
closed = 1;
nodes = (
"142 0 LINE",
"198 53 LINE",
"198 296 LINE",
"248 388 LINE",
"153 477 LINE",
"200 520 LINE",
"431 520 LINE",
"484 467 LINE",
"484 0 LINE",
"521 0 LINE",
"521 487 LINE",
"450 558 LINE",
"190 558 LINE",
"105 473 LINE",
"206 388 LINE",
"159 316 LINE",
"159 216 LINE",
"165 165 LINE",
"93 165 LINE",
"39 113 LINE",
"39 54 LINE",
"93 0 LINE"
);
},
{
closed = 1;
nodes = (
"72 58 LINE",
"72 105 LINE",
"100 132 LINE",
"137 132 LINE",
"165 105 LINE",
"165 58 LINE",
"137 32 LINE",
"100 32 LINE"
);
}
);
};
layerId = "39D11A97-A6D9-4B52-A6F5-15D5E4373676";
paths = (
{
closed = 1;
nodes = (
"149 0 LINE",
"197 48 LINE",
"197 304 LINE",
"248 388 LINE",
"152 473 LINE",
"203 522 LINE",
"430 522 LINE",
"483 469 LINE",
"483 0 LINE",
"521 0 LINE",
"521 487 LINE",
"450 558 LINE",
"190 558 LINE",
"105 473 LINE",
"203 388 LINE",
"159 314 LINE",
"159 181 LINE",
"161 139 LINE",
"141 156 LINE",
"87 156 LINE",
"39 108 LINE",
"39 48 LINE",
"87 0 LINE"
);
},
{
closed = 1;
nodes = (
"73 58 LINE",
"73 98 LINE",
"99 124 LINE",
"137 124 LINE",
"163 98 LINE",
"163 58 LINE",
"137 32 LINE",
"99 32 LINE"
);
}
);
width = 610;
},
{
anchors = (
{
name = bottom;
position = "{548, 0}";
},
{
name = top;
position = "{548, 498}";
}
);
background = {
paths = (
{
closed = 1;
nodes = (
"189 0 LINE",
"259 68 LINE",
"259 261 LINE",
"303 343 LINE",
"212 425 LINE",
"231 440 LINE",
"418 440 LINE",
"444 413 LINE",
"444 0 LINE",
"579 0 LINE",
"579 461 LINE",
"482 558 LINE",
"180 558 LINE",
"53 431 LINE",
"159 343 LINE",
"125 286 LINE",
"125 246 LINE",
"129 230 LINE",
"84 230 LINE",
"15 165 LINE",
"15 67 LINE",
"84 0 LINE"
);
},
{
closed = 1;
nodes = (
"100 99 LINE",
"100 133 LINE",
"120 153 LINE",
"153 153 LINE",
"173 133 LINE",
"173 99 LINE",
"153 79 LINE",
"120 79 LINE"
);
}
);
};
layerId = "D6105F7E-CAE1-4F7B-A52E-8AA6E6082DF8";
paths = (
{
closed = 1;
nodes = (
"189 0 LINE",
"257 68 LINE",
"257 265 LINE",
"301 343 LINE",
"204 425 LINE",
"224 442 LINE",
"418 442 LINE",
"445 415 LINE",
"445 0 LINE",
"579 0 LINE",
"579 461 LINE",
"482 558 LINE",
"177 558 LINE",
"50 431 LINE",
"156 343 LINE",
"125 284 LINE",
"125 242 LINE",
"129 226 LINE",
"116 226 LINE",
"85 226 LINE",
"16 161 LINE",
"16 67 LINE",
"85 0 LINE"
);
},
{
closed = 1;
nodes = (
"99 97 LINE",
"99 131 LINE",
"119 151 LINE",
"153 151 LINE",
"173 131 LINE",
"173 97 LINE",
"153 77 LINE",
"119 77 LINE"
);
}
);
width = 644;
},
{
anchors = (
{
name = bottom;
position = "{543, 0}";
},
{
name = top;
position = "{543, 498}";
}
);
layerId = "3C986DA2-2E28-42A4-B05D-29F449A87569";
paths = (
{
closed = 1;
nodes = (
"160 0 LINE",
"220 59 LINE",
"220 284 LINE",
"268 371 LINE",
"172 457 LINE",
"209 490 LINE",
"426 490 LINE",
"469 447 LINE",
"469 0 LINE",
"543 0 LINE",
"543 477 LINE",
"462 558 LINE",
"185 558 LINE",
"84 457 LINE",
"187 371 LINE",
"146 304 LINE",
"146 226 LINE",
"151 188 LINE",
"141 188 LINE",
"90 188 LINE",
"30 131 LINE",
"30 59 LINE",
"90 0 LINE"
);
},
{
closed = 1;
nodes = (
"82 73 LINE",
"82 115 LINE",
"107 139 LINE",
"143 139 LINE",
"168 115 LINE",
"168 73 LINE",
"143 49 LINE",
"107 49 LINE"
);
}
);
width = 623;
}
);
note = uni0E20;
unicode = 0E20;
},
{
color = 6;
glyphname = "ru-thai";
lastChange = "2018-05-03 10:26:23 +0000";
layers = (
{
anchors = (
{
name = bottom;
position = "{498, 0}";
},
{
name = top;
position = "{498, 498}";
}
);
background = {
paths = (
{
closed = 1;
nodes = (
"216 0 LINE",
"276 59 LINE",
"276 133 LINE",
"216 190 LINE",
"149 190 LINE",
"154 238 LINE",
"154 284 LINE",
"215 371 LINE",
"133 457 LINE",
"170 490 LINE",
"389 490 LINE",
"432 447 LINE",
"432 -210 LINE",
"506 -210 LINE",
"506 476 LINE",
"425 558 LINE",
"146 558 LINE",
"45 457 LINE",
"132 371 LINE",
"80 304 LINE",
"80 59 LINE",
"140 0 LINE"
);
},
{
closed = 1;
nodes = (
"134 74 LINE",
"134 116 LINE",
"160 140 LINE",
"196 140 LINE",
"222 116 LINE",
"222 74 LINE",
"196 50 LINE",
"160 50 LINE"
);
}
);
};
layerId = "39D11A97-A6D9-4B52-A6F5-15D5E4373676";
paths = (
{
closed = 1;
nodes = (
"477 -210 LINE",
"477 487 LINE",
"406 558 LINE",
"144 558 LINE",
"59 473 LINE",
"145 388 LINE",
"90 316 LINE",
"90 54 LINE",
"145 0 LINE",
"205 0 LINE",
"259 54 LINE",
"259 115 LINE",
"204 167 LINE",
"122 167 LINE",
"129 239 LINE",
"129 294 LINE",
"190 388 LINE",
"106 477 LINE",
"154 520 LINE",
"387 520 LINE",
"440 467 LINE",
"440 -210 LINE"
);
},
{
closed = 1;
nodes = (
"126 59 LINE",
"126 106 LINE",
"156 132 LINE",
"193 132 LINE",
"222 106 LINE",
"222 59 LINE",
"193 32 LINE",
"156 32 LINE"
);
}
);
width = 566;
},
{
anchors = (
{
name = bottom;
position = "{532, 0}";
},
{
name = top;
position = "{532, 498}";
}
);
background = {
paths = (
{
closed = 1;
nodes = (
"250 0 LINE",
"318 67 LINE",
"318 165 LINE",
"250 230 LINE",
"208 230 LINE",
"210 238 LINE",
"210 261 LINE",
"271 343 LINE",
"194 425 LINE",
"212 440 LINE",
"400 440 LINE",
"426 413 LINE",
"426 -210 LINE",
"560 -210 LINE",
"560 461 LINE",
"464 558 LINE",
"161 558 LINE",
"35 431 LINE",
"123 343 LINE",
"76 286 LINE",
"76 67 LINE",
"144 0 LINE"
);
},
{
closed = 1;
nodes = (
"161 99 LINE",
"161 133 LINE",
"180 153 LINE",
"214 153 LINE",
"234 133 LINE",
"234 99 LINE",
"214 79 LINE",
"180 79 LINE"
);
}
);
};
layerId = "D6105F7E-CAE1-4F7B-A52E-8AA6E6082DF8";
paths = (
{
closed = 1;
nodes = (
"566 -210 LINE",
"566 461 LINE",
"469 558 LINE",
"162 558 LINE",
"35 431 LINE",
"124 343 LINE",
"76 284 LINE",
"76 67 LINE",
"144 0 LINE",
"247 0 LINE",
"317 67 LINE",
"317 163 LINE",
"248 228 LINE",
"206 228 LINE",
"208 236 LINE",
"208 267 LINE",
"268 343 LINE",
"189 425 LINE",
"209 442 LINE",
"405 442 LINE",
"432 415 LINE",
"432 -210 LINE"
);
},
{
closed = 1;
nodes = (
"160 99 LINE",
"160 133 LINE",
"179 153 LINE",
"214 153 LINE",
"234 133 LINE",
"234 99 LINE",
"214 79 LINE",
"179 79 LINE"
);
}
);
width = 631;
},
{
anchors = (
{
name = bottom;
position = "{511, 0}";
},
{
name = top;
position = "{511, 498}";
}
);
layerId = "3C986DA2-2E28-42A4-B05D-29F449A87569";
paths = (
{
closed = 1;
nodes = (
"511 -210 LINE",
"511 477 LINE",
"430 558 LINE",
"151 558 LINE",
"50 457 LINE",
"137 371 LINE",
"85 304 LINE",
"85 59 LINE",
"145 0 LINE",
"221 0 LINE",
"281 59 LINE",
"281 133 LINE",
"221 190 LINE",
"154 190 LINE",
"159 238 LINE",
"159 284 LINE",
"220 371 LINE",
"138 457 LINE",
"175 490 LINE",
"394 490 LINE",
"437 447 LINE",
"437 -210 LINE"
);
},
{
closed = 1;
nodes = (
"139 74 LINE",
"139 116 LINE",
"165 140 LINE",
"201 140 LINE",
"227 116 LINE",
"227 74 LINE",
"201 50 LINE",
"165 50 LINE"
);
}
);
width = 591;
}
);
note = uni0E24;
unicode = 0E24;
},
